<mxfile host="Electron" modified="2023-10-08T17:37:12.676Z" agent="Mozilla/5.0 (X11; Linux x86_64) AppleWebKit/537.36 (KHTML, like Gecko) draw.io/22.0.2 Chrome/114.0.5735.289 Electron/25.8.4 Safari/537.36" etag="vb-W_yFb_OL6o5mc_XWf" version="22.0.2" type="device">
  <diagram name="Page-1" id="MH7lh3ZzuLft9WFcox9W">
    <mxGraphModel dx="2191" dy="2012" grid="1" gridSize="10" guides="1" tooltips="1" connect="1" arrows="1" fold="1" page="1" pageScale="1" pageWidth="827" pageHeight="1169" math="0" shadow="0">
      <root>
        <mxCell id="0" />
        <mxCell id="1" parent="0" />
        <mxCell id="e4bR5QUqeG97lNsjzucb-4" value="" style="shape=image;verticalLabelPosition=bottom;labelBackgroundColor=default;verticalAlign=top;aspect=fixed;imageAspect=0;image=data:image/png,iVBORw0KGgoAAAANSUhEUgAAA1cAAAIHCAYAAABzO6azAAAABHNCSVQICAgIfAhkiAAAIABJREFUeF7sXQd8VeXd/oeQhIQMQiZJCGFvZS8BAa3ixIVatVrtsF/tcLWu1rq6rH7267BqrbV1j7ZWxYGKCILI3nuGhASSkB2SMPze572cy8nNuSv33uTcm+fv70juOe95x/Oe9bz/FfWVEqEQASJABIgAESACRIAIEAEiQASIQEAIdAnobJ5MBIgAESACRIAIEAEiQASIABEgAhoBkiteCESACBABIkAEiAARIAJEgAgQgSAgQHIVBBBZBREgAkSACBABIkAEiAARIAJEgOSK1wARIAJEgAgQASJABIgAESACRCAICHT1tY4NGzbI+vXrLYtnZ2fLWWed5Tz2+eefy759+yzLDhkyRMaOHes89u6770p1dbVl2UmTJkn//v31McTdePnlly3LYefs2bMlLS1NH6+srJT33nvPbdmrrrpKunZ1DH3Pnj2ydOlSy7KJiYkyZ84c57E1a9bI5s2bLcvm5eXJmWee6Ty2cOFCKS4utiw7YsQIOf30053H3nrrLamvr7csO3XqVOnTp48+dvToUXn99dcty2HnBRdcID169NDHy8rKZP78+ZZlo6Ki5JprrnEe27FjhyxfvtyyLOpDvYasXLlStm3bZlm2oKBAzjjjDOexjz/+WA4ePGhZdtSoUTJ8+HDnsTfffFOamposywJX4As5cuSI/Pvf/7Ysh52YL8wbpKSkRBYsWGBZFvOP68CQrVu3yqpVqyzLpqeny7nnnus8tmzZMtm1a5dl2QEDBsjEiROdxz744AOpqKiwLIv7APeDIa+++qocP37csizuL9xnkNraWnn77bcty2Hn5ZdfLt26ddPHi4qK5LPPPrMsizIoa8jGjRtl3bp1lmX9uccHDx4s48aNc9bj6R4HVsAM4u0exxxgLiBVVVUyb948y75ip/ke37t3ryxZssSyrOs9vnbtWtm0aZNl2dzcXJkxY4bzmKd7HNc2rnFD/vvf/0pdXZ1lvbhncO9Ajh07Jq+99pplOew03+Pl5eXy4Ycfui177bXXOo/t3LlTvvzyS8uy/tzjeBbhmWTIJ598IqWlpZb14hmHZ50h//rXv6SxsdGyrPkeRxmUdScXX3yxJCUl6cNoG32wEn/ucbw78A4xBFgBMyvBOwnvJkMwB5gLK3G9xzG3mGMrMd/juFZwzbiTyy67TOLj4/VhT/d4XFycXHHFFc5qPN3jWVlZcvbZZzvL4p7BvWMlrvc47kXck1Zivsdx/KWXXrIqpvedc845kpGRof/2do9feeWVEhMTo8t6use7d+8ul1xyiS4HwTMOOFiJ6z2OZyfwtRJ/7vEpU6ZI3759dTXe7vHzzz9fUlNTdVlv9zje43ifQ/BOwrvJSlJSUuTCCy90HsK7Du88KwnkHse7Ge9oK5k+fbr07t1bHwrWPR4dHS1XX321szl8m+AbxUoCucfxLYVvKisZM2aMDB061HkI32j4VrOSWbNmSa9evfQhb/f4pZdeKgkJCbosviXxvnEnuL5xnVPsg4DP5AoXizsC4PrCxG93ZZubm1uMvqGhwW1Z1wvUXZ2o0PxReuLECbd1ukKPB527ert0aanYQ9/dlQ0VBuYXMT4+3bWPcWHchgQLA7yczQIC5K4PruQID1l3Za2uA1cMjXbNc+sNA3PwS5znrn2DXBtteJpb14dWsDBw/chCX92Rq7Zi4On6dm3LEwauL0x/7nFP14EVBi0uONMPf65v83XgCYP2uscxt+6uxbbe456ub1cMPWEQGxvborin6yCQexzjd3eP+4NBW+9xT+8w4yPGACJY97jVO8z1mrd6znl7fvuKges97gkD17nxdI/7cx1YYeB6fRq//bnHzXV4ur4N8mGU93R9+4OB1TvMl3sc/XBXDsfaioGnuTVIqIGBp+s7EAwwLtd3hdGm67XoCQPz9e3pXgC5MosnDIzFiLZg4O93qus1b4WBt28Z87g8PevxDnMdWwtQ+KNDEKBZYIfAzkaJABEgAkSACBABIkAEiEDbEUhOThbXRcK218Yzg4WAV80VTB7AsAsLC3WbhnmWuQOGOZ6xr2fPnuK6qmMcg3raLDA3Msy4WhxQP1w1BlZtG+eYV1+xSuOprHklCyuW7sq6rmai7+7KumKA3+YVKPPYcDO4YuC6WmQcN69I4AZy1z7Km1engIensub2gbO7sob5jVEeJkTuymLezQLzDteVJeO4a705OTlurxl/MDC3B7M3d3117Rf6466sYWpp9B0mG76WzczMFFftn1GP63UPkxR314y5Dmjd3LWPus0PWk8YuGoscF26q9fq+nZ3j7viBXMj13vZwMB1v7v2Ud7cX28YmO9xXD/u6nVd8fN0jxsmiUbf8dvdfLk+52AK4m5F1/ycQb/d9RXttvUe9/Scc70O/b3H3b3YXZ9zwbrHzVpn3Bfu8HLtF8bprqzrfHnCwDDZMq4D3OOu95JxzBVb3OOuK/hGWX/ucV+fc6798vScc31+45531VAZfbW6x13fl0bZtt7jwXqPu97jnp5zrvc4MHA3X67XN+5x1+vIwMAVG3fXYSD3uKf3uOt16On6dr0OgImr9s8YlxUG7t4Lhqk6zvX2LWO+vkN1j3t6j7ti4O897k47bcYAY/R0Hfj6Hne9Zo254b8di0CUIk4ekwg/++yzzg+IgQMHysyZMzu2x2ydCBABIkAEiAARIAJEgAgQASJgQwS8aq5s2Gd2iQgQASJABIgAESACRIAIdFoEDh06JIsXL3aOf/z48ZKfn99p8bDTwEmu7DQb7AsRIAJEgAgQASJABIgAEfCCAAJnmKMRuzPJ9FIND4cAAQa0CAGokVLl8RPHpflYs5z46lQUwkgZG8dBBIgAESACRIAIEAEiQASCjQA1V8FGNMzrO3r8qOw6uEf2lRdKbWOdDmbSRTnZpySkSL/MAumTni/RXVqGPw3zIbP7RIAIEAEiQASIABEgAkQgKAiQXAUFxsioBFqqlbtXS3FlSYsBnVAEq7K+SlbvWaf+rZbT80dI12heOpEx6xwFESACRIAIEAEiQASIQLAQ8PqFPHr0aK29gLiGYw5WJ1iPPRCAtupAVamzM+mJaZKZkiHFhw9I9ZEa+Ur9hzIZSWmSn+7ItG6PnrMXRIAIEAEiQASIABEgAkSg4xHwSq7Gjh3b8b1kD0KOQNPRJiksL3IS6dTuPWTSwPESH6tyBPXMlaXbl0ldU73AD2tf+X7JSe1F7VXIZ4UNEAEiQASIABEgAkSACIQTAl7JVTgNhn1tOwI1R2qlTvlYQaLU1jstTxMrSHJ8kvRKzZYdpbv07+oj1VLf1KD8sFomQ9YHKUSACBABIhC2CGABDRtMv7tEMeZV2E4kOx7xCCAZ9NSpU53jzMjIiPgxh8sASa7CZaZC3M96pZU6euKYbiVavVRBqAxBdvYeKqAF/oWJ6NFjRxW5qie5CvGcsHoiQASIQHsgwEBG7YEy2yACwUWge/fuMmzYsOBWytqCgoBXcvXKK6/IiROOUNx9+/aVKVOmBKVhVmIvBBqPNjpNAo8dPyZf7lyhOggdlkNAqgzfu+MqNHuzIlgUIkAEiAARCG8EGMgovOePvScCRMB+CHglV/X19U5y1dTUZL8RsEcBIwDSdPwkgTYqO6oIllvR5Y+7PcwDRIAIEAEiEB4IMJBReMwTe0kEiED4IOCVXIXPUNjTYCEAW/sRecNamAZW1FbIlgPbVEJhRI6M0rmvKESACBABImADBI6rxS4sfiYktO7MMbVQhmPKhMhVGMjIFRH+JgLhg0BxcbHMmzfP2eFZs2bJgAEDwmcAEdxTeqtG8OT6OjT4UsV1jTtlBKgIVPe4BMlKyXRuCG5xMiK/JlYxXWN09TAhrKg7LHvK9slOFfCiUEUSxD4KESACRIAIBBmBt94SmTxZZOJEkdmzRZYuFbnzTpHMTJEk5SeLD6unnhJpbhbZvl3kqqtElNO7JKvgQ4MGifz97yIgYifFl0BGRlkjkFGQR8TqiAARIAIRhwA1VxE3pW0bEMhUdJdoOXYyUlTtyciBqA1mg0aeK/yGZitBk62vZH3hRtl1aI+zUQTCyEhOZ5j2tk0DzyICRIAIuEfg0CGRFcofFgQJZOr73xfZsEGU7b7jnF0qouvtt4sUFYm8/bbIxo14gDuO7dghcuutDqJ1+eV6HwMZuYeaR4gAESACbUWA5KqtyEXYeckJSTr0OkgVXsVFFcWSn9Zb7eum95VUHXSOOLFbotJsOUxM8HcflVAYAS5KTAmIIwweDocIEAEiYC8EamsdxGrgQAdhWrfOobE6ckTkl79E2FeRoUNFunVzlDuqghDhnJdeErngAr2fgYzsNaXsDREgApGBAM0CI2MeAx5FQmyCZPfIctZTWV8pa/etl5LKUlmzd92pHFjKJDA3NUfiYpQZofp7UK8BMqH/OH0uvbACngZWQAQ6DIHq6mo577zzJC8vTz7//PMO6wcb9hEB+L3OnevQZGG+oI0yfGHx7w03OI4tXixy4YWOY9BiQbt1+LC2PLAKZISw7MZ27GR6Dt0jXZ6BjHycHRYjAkSgEyPgVXN11llnOUNwJyYmdmKoInvoIEoDsvpLWU25VDVUO7RXh4ulSG1myUhKlz4Z+ZENBkdHBDohAvjYbmxslCNK82Gk3wgmDH/84x/lwQcf1FWmpKSob3xHUvJgthHqulYok7wJEyYIHMfT09MlLS1NsrOzJTU1Vbk29bDc8N7E8zXoguAVV1/tMA+EWeCQIacIFHysrrzSEeACx5AL57//dZgIqgjAOsCFizCQkSsi/E0EiAARaBsCXskVcltROgcCid26y6QB42XD/k3aDPCEymdlCPyxeqflqSiCQ6Wb0lpRiAARIAL+IADSVlFRoU85bgqq4E8dHV3WiMT16aefOhcd0afY2Fi9denSxZls/ZiK0ndUmeLh3/j4eE1aQWBLS0slK+uUlUCbx6TqVMzOcbpqV5v/GQLi1avXqd+G3xX24G+1mQMZaa8stc8IZGSc2NDUoItDXAMZwQ8XATGOqwBGsV1jJSe1F31tDeD4LxEgAp0aAa/kqlOj0wkHn6QCUkwZNEmONDdKtdJgId9VnHpxpiQka1NAChEgAkSgsyIADVVVVZWceeaZsmnTJk2cIM0qOh82d9LQ0KAP3aBM9TIyMtwV828/CBU2Q8zaMezvanq9u+QxNE5hICP/IGdpImAnBPAsmTNnjrNLydBYU2yBgFefKyQONjaswlE6BwIIZAE/qt5puZKZkkFi1TmmnaOMAAQKCwvlhz/8oVx33XUqYJyKGGchCxculOuvv15uvvlm2bZtm0WJ8NsFrRDMGc1aMfyGxgjkpq6uTsVzqJWamhqtUbKSA+WlsmCVZ38zmDTCJ+20005T/MW39Ulorl5//XV5/vnntXbLLmIEMkJ/jEBGWFiD+BLIqFePk5ozuwyI/SACnQgBaMuhBTc2PGco9kDA65vhhRdecNrfD1RRiWbOnGmPnrMXHY4APmZ2Htwte1WOq+ZjzfrlXN9YL4u2LlGmg91kbN/RAlNDChEgAu2HAAJSYHvmmWdUGqSl0rt3bxk9erSzA9tV/iOQr61bt8ptt90m/fv3b5fOZapcTPDh/eSTT3R7ID2VlZXaVM4gRvgXHwrdTpq47dy5U79/zMfh25STk6Pr2L9/v5SXl7fwEYO525gxY/TxeuVfhPG6Cszde/bs2WL3npJC2Vbomx8Y/KhAsM4991wVGX2F9lVzJwnKRO/hhx9WsSdU8AmbiRHIqLa0TvfMCGRUkJ4v20t3WgYyQjkEMoLg+V/KKLEaCwoRIAJEwEDAK7kiVETAEwKNapUTATAMOa78tGCHf1SFZj/ByFKeoOMxIhASBKAZueWWW2TNmjXyxhtvyE9/+lN5+eWXtTkaNDf33XefbN68WROdn/zkJ07tC0xKnn76aU16DN+iYHZwqAoLDjJnkCsQkpKSklZNgPQY5Ar9dQ2uYV6dNUiXuRKDrIFkudMSmetE+Y27t0pJxSFRHlOSltxTm/hhVdiToB8fffSRCsR3oSxZskTjZiWoH0Ew7CgMZGTHWWGfiIBvCEADj2ekId27d5e4OLpv+IZeaEuRXIUW34iuHS/mkfnD9UYhAkTAPghAs/JLlesI2imYAD766KPyyCOPCCL2wVSwT58+8tvf/raF/w+IyKBBg0I2CBCamJgYZ/3uIuiZiY9rGfw270N9IGLGfiOghNEIzPYQ0c/1uEHQjimf0tXbN0hlDSKkfiXp0Soxb8NRgcZsGCLseRF8yLz33nsqCvrlmjQavlXm00C6pk2bJpdccon8+te/VkH9VFQ/GwkDGdloMtgVIuAHAodUUvF58+Y5z0AU01AsjPnRJRY9iUCUWlU7GQvIGpNnn32WZoHW0HAvESACRMDWCHzwwQfyjW98Q2tirr32Wu33g7+ffPJJ7ZPVngITc2jS3nnnHR2yHB8GMNszCBEIEP4GYYlGAlwlCBhhECNXYhVo3xubm2TFljXS0NSozQ4hIFdoB+TLF3Jl9AF+XsAXYzMTLJC7008/XVatWqWLYlx33HGHPPDAA7oNu4m/gYxgFrhW5UFEIKTpQ87QiegpRIAItA8CxcXFJFftA7XfrdjHs9bvrvMEIkAEiAAR8ITAOeecI7fffrv2CfrLX/4iSBT87W9/W6VAUjmQ/JSDBw9qP6MvvvhCR8zzV2ACCPJhCLROIFkwR0xKShJo2+CfZBArlAM5wW9XjZS/bbuWr22okyUbVkiDwsXL+qLrqZa/0UeYXsKvCmMwBDmw4JMFUosVZZAwaBFBuOyYqJmBjCynlzuJABEgAn4hQHLlF1wsTASIABEIHwRASq666iox8hX269dP+2N58ycyjxAhxxF6HIExzj77bB3UCPXBzNBTIAe7olRWVSHLNq3SfqEwBQyWAOu///3vOgqjQbB6qVxT0ISBdAFHaKxAGHfs2CHTp0/XgUUQxTCcBGR0R+ku+WjDAtl2YHuLQEafbflcBcFQSYopRIAIEIFOjADJVSeefA6dCBCByEYA5Oexxx7TPkSQ3bt3y1//+ldnfiZfRo/Ev7m5udr8BGHMy8rK5Hvf+56u95VXXvGlCtuUKTxYLGu2b5TjbvI+BdpRECmYXP7P//yPrsqs4QOh/cUvfiGrV6+WcePGaY3Zn/70JxkxYoQzyEeg7bfX+UYgo4ZmRxAPI5BRrQpmxEBG7TULbIcIEAG7IuDV5wpmJIbAjMNs8mDXQbFfpxCAc3hFZY3U1tVLfLc4SU/rITFq5ZRCBIhA5CPwt7/9TX70ox9ps7ubbrpJnnrqKe1DizDtbTENNBCDrf95552nzdvgS+WLwBzurrvu0kVhDogw7O0lIDJb9+2U/WUHWkUfNPehZ7dk6ZOdp7VLCIQRiABvaLKszA7hS/bEE0/I/fffr7V/0Ho9/vjj8uMf/7hFwI5A2ue5RIAIRDYC9Lmy7/x61VwhYaKxkVjZdyKtelZRWS1vvb9YPv18lezeVyLL12yR/7y3SMoPnyLMVuf5uw8fD1+s3Cg79xT5e2qL8sGqJ6BO8GQiECEIfPnll/Lggw9qPx+QmoceekgTLQRc+PnPfy4bN25s80hBDrCFQ9jf4yolBCICeiNWACMxJUnn2QqUWKGu5557zm14dpA3hMFft26d1mKB8CJMPTSC7hIct3myeCIRIAJEgAi0KwJUYbQr3O3XWGNTs3z+5XrJzuwpE8cMczqJH1ZarNhYRzhkvNAPV9XqldWePZKcZZpV7oRotZLacKRJbY2S2iNZYmMclwrKVtXUSVPTUemRkijd4mLlmPp4q1b7oBk70tikNWNdu0arj4RjUlldq+rtIqnqowWrsxB39burp/1QY0tEIDIQQPCJu+++W7CyiSh23/3ud7U25tZbb5W1a9fqwBL33HOP/POf/5TU1FS/B41w7qWlpYKAGXaW5qPNsmD1Ep+6iOdTUkKiT2V9LWTk63JXHqHvFy1aJN/85jd10AtoFGHC+eabb7ZpXty1w/1EgAhEHgLw6YSG3BDjGyvyRhp+I/JKrg4cOOAcFULHtuVFHH6whH+PD5Yd1kRn6KCCFtG3eqYm68HV1jXIAqXRQhnckF2Ur8CsaWOlR3KSfLJolYCcqXyaatX7hCZf586YoMnT4i/XycHySknqHq/LTBo7XK3ONklRSZmUHDosW3bslVEjBklyUoLWZsUpPwMQtMSEeJk5dYwiY3Fu60efXesZOrBP+E8GR0AE2hGBpqYmnU8J0ehGjx6tNVZILgmBOd6vfvUr2bJli3z44Yfy+9//XpummSP0eevqxx9/LL/5zW9kzpw5OoGunaW+0eETlJqUIvgbQSy6RHVRPlfHW3Ub/lI16tm2rbJWa+QKCgpalQnFDrxX4buG/FeYqwULFsikSZPk3XfflYEDB4aiSdZJBIhABCCgv91OLlpHwHAiagheyRUSJBpJHfGgR6Qoiv0RqK8/orRNMZoQuQrI0ubte7UG67yzJistVZQiTetl3aadcubk0TqCVnJyd5kxeZSa+69k/mcrpLi0TGnB0rQmavbMiVoThWOiY0VFyZ7CEsnJTpcRQ/rp5kDKLjt/hrrxo9QHzTH5ZPEq2X/gkAzs29tt/YP792lVj2vf+ZsIEAHPCLz22msCXysshIEEuZIE5G9CgmGEZP/DH/6gCRgS3PoiCMMO07WxY8fqkOJ2NxUHqZo98dQ7C8+ijXu2ysHDZa2Gi/dco1oIgsCUsj0FH0gw4QTBuvHGG2X79u0yefJkWbZsGZOCtudEsC0iQASIQBAQ8EqugtAGq+gIBNQqLEiSlTM1SBH8sfJzs5zmfr1zMmXj1t26p1jBzUpPPZlf5ivpHh+nzQBB1LopTdTCJWukID9b+uRlK3PC5JMkq+Ugm1Si0rWKrBUrjRbMA6Ehy+iZ4rH+joCJbRKBSEMAocCxeZIrrrhCsPkjSISLD3+Ec3/66aclIyPDn9NtURYaq7LKCt2XlO7JgnxXJ746oX8bSYqtnpnt1fmvf/3rOsz9RRddJOXl5XLBBRdogkWLkfaaAbZDBMIHAfjPwvTbEOTVQ/AiSscj4DWgRcd3kT1oCwLJSd2lufmoNslzJ+aPCNd8LzATdMpJogb/qnNmTlBmfwOktrZB5n20VLbtKmxVPepds3GHjlA484wxMmf2NOmb30t9xJzKKWNVf6uKuIMIEAFbILBhwwa54YYbBDb+zz77rP43HGXH/t2aTEFTNHrQCDmt/1BtJgiJj+tmiyHBJBA+bTBNhAbr8ssvV89yZaZNIQJEgAiYEEDE1U8//dS5wdeWYg8ESK7sMQ9B70Vmeg9JSU7Upn4IIAEB6YFPU219g2SokOww02tSBOzYseNSWHRQB6jwJDCVAT/qm58j0yadLv365EpZeZU+JVoFsGiCn5ZuR1REskal/eop6UpbpVeLKxzlPNXvWo+3sjxOBIhA6BHABz4CLuADH6HCDx06JCtXrtTbrl27Qt+BILVQU18rxeWlura+vfKVFj5OstMyZUifAXpfUrzDLy1IzQVUDUwCEcYdgo+n73//+5ZWCAE1wpOJABEgAkQgJAjQLDAksHZ8pfC3mjbxdFmyYoO89tYnkqgCUNQrwpOUmCDTlS/VMBXoYuHStfLmO59qvygEmkDACU+CKIHzFy7XkQCj1H+I7nfmlNH6/H6KcC1Zvl42btsj404fIv0LcnXwi517i/RHASIGehOreoYP7uvtNB4nAkQghAhs3rxZtm7dqkO4X3rppS1aOv/883VyYbsLnkFbCx1EMLZrjCJXvZ1d7p2ZI5v3blcm0rESFR+tn1d2CDEPE8EdO3boxMPwoQPWl112md2hZv+IABEgAp0eAa9JhGECwoAW4X2dIKofzAMT4rvp0OmG4CMCWqyvlA9WUmJ3TZK8CbRXtSpYBs5NVud4Ik1GuyB0TFzsDVkeJwKRjUBHJhEuq6qQVdvWa4CH9x0sIFRmQRTB6C7Rtou8hecs/K7ef/99yc3N1VEe6VMR2fcJR0cEfEWASYR9Rar9y3lVJyBEr3lr/y6yxUARAKFC4AkzsUKdcOAGQYL5oC/ECufgWuihyiNaoCdihbJGuyRWgc4gzycCRKCtCMDHamvhTn16YnyC5GZkt6oqRmmz7BjSGM/oP//5z4J8WfiQevjhh1v1nTuIABEgAkTAXgh4NQtEdCgKESACRIAIEIFwRKC4rFTqjzTorg/OH+AMYGE1FkTog7YICZftEqEP0QPvvfdenY/sqaee0v8mJnr2j7UaG/cRASJABIhA+yDgVXPVPt1gK0SACBABIkAEgovAsePHBBECIWnJqZKe0tNjA4WFhYKtpKTEY7n2PnjLLbdoP7Da2lp59dVX27t5tkcEiIANEcAiUHJysnPDb4o9EOBM2GMe2AsiQASIABEIMgJ7DhRKs/KngkBrBTO7cJSePXvK3Llz5cUXX5TnnntOJ4CmEAEi0LkRyMrKkquvvrpzg2DT0XvVXG3cuFGMraioyKbDYLeIABEgAkSACJxCoLG5SfaU7Nc7ctOzJbl7eJvSGUmfkcz52LFjnGoiQASIABGwKQJeNVfIDm+OFpiXl2fTobBbRIAIEAEiQAQcCDgTBqskwQN79wt7WEaNGqXHgHxj27Ztk+HDh4f9mDgAIkAEiEAkIuCVXEXioDkmIkAEiAARiFwEaurrTAmDe+uEweEu+fn52reipqZGNm3aRHIV7hPK/hOBABGorq7WOQgN6d+/v6SnpwdYK08PBgIkV8FAkXUQASJABIiALRBAtL9tJ0Ov64TBOfk+92vo0KE6WqBdw7J3795dk6ujRx1+ZD4PjAWJABGIOATq6upk3bp1znGlpaWRXNlklkmubDIR7AYRIAJEgAgEjkB59WGpqKnUFcEcsGu076+5+Pj4wDsQwhpgpg+zwMzMzBC2wqqJABEgAkSOtkFyAAAgAElEQVQgEAR8f+sE0grPJQJEgAgQASIQYgSQMNjQWnV3kzDYUxcM/2KUsaP2CqaBFCJABIgAEbA3AiRX9p4f9o4IEAEiQAR8RAAJg+tOJgwe4iVhsFWVa9eu1WaB0GANGzbMqgj3EQEiQASIABHwiIBXcpWRkaFfNhA401KIABEgAkSACNgNAX8TBtut/+wPESACRIAIRAYCXsnVnDlzImOkNhwFTFDgjLhixQr57ne/a8MesktEgAgQgfBAADmtTiUM7h+2CYPDA232kggQASJABNwh4JVcuTuR+wNDoLy8XBYsWCBVVVUSF9e2MMHvvvuuPPzww1JbWxtYZ7ycjXCf6GO3bt28lAzsMCJ1vfTSSyFvJ7Be8mwiQATshoBOGHygUHfLkTA4yW5dZH+IABEgAkFFAObLBQUFzjoRTZRiDwRIrtp5HhBCd/ny5bJlyxadnDk6OlrGjBnTpl4899xzuq7c/N7K+TqqTXV4O6nxSKOUHTyki/UuCJ0z9f69hRqTlStXytSpU711i8eJABEgAk4EdhTtFgSz6IKEwXl9iQwRIAJEIOIR6Nmzp5xzzjkRP85wHKBXcrVo0SKnz1VWVpYMGTIkHMdpiz7v27dPPvvsMx1K14hKhX/79m3bx0BjY6PExsXKs6//I2Tjq1d5FK44+2LJ6Z0nz7z6fMjamffvt+VPj/5eMCYKESACRMBXBHTCYBXIAtK3l0oYHNd2DbsR4jwmJsbX5ttUDn7M2KKiopzmi8ePH3e+F8zHY2Nj29QGTyICRIAIEIGOQcArudq+fXsLIkBy5f9E1dfXC0hqSUmJHDt2rEUFSUlJkpiY6H+lPIMIEAEiEOYIYDHFSIhrBE7CkIzgSViIQqJMiEE4jOMgHdi3bdd2iY+KleguXSShS5x+zsKEOTU1VZ8H02vDdNpcB8Kag9w0NTVJcXFxizbQL5jcGP3Ys2ePLmfuR0JCgtMkp6ysTEpLS50LkUY7iDiIfmKMGzZscB7XFSnp1auX5OTk6L93796tEwSbBeeOHDmyxT7+IAJEgAgQAXsj4JVc2bv79u4dtFKbN2/WpntYlTR/PKDnyKMyaNAgew+CvSMCRIAIhAgBkBqQH7N07dpVTj/9dL2roaFBQGxcZeDAgZq0IGGwNJ+QxGiHtgoEBwJzGYNcgVgdOuQwbTbXY+SMwrO5stKRdNh8vEePHs6f6IerVh0m3YagDhBBVzGe+SBxrs9/17JWv7EYt7d0vzSpuhubG/W/h2urpGdSD5kwbLTVKdxHBIhAJ0EAvvv4vjRk1KhRzsWaTgKBbYdJchWiqamoqNABK/Bid9VWGU3ihdtWk8AQdZvVEgEiQARsjwCIipEwOE5OkRyj474QGZTBM9idmOvwVA7ng2hhM5v5mc/B39CEQVBv41GHFqy4vFT2VBRJs9JsdT3RRaK/atmfEye+kkP7dokyImzRzbxMh7bLXd+5nwgQgchHANr0oqIi50C5WG+fOSe5CvJcwPwDodURnAGrmZ4EEfiM1VVP5XiMCBABIhCJCEA7BA2UQUTwr1kjBEKSm5vbirRgv5EwuDmqq/TrlS8piY48jKjD7KcEPyq040p8jDZhQjh8+HB9fNOmTZr8YF9aWpoTcsMc3lyHeT6QDxKbO8GYjKTE9SrJ8eL1X7Yq6qBbrXa32IGAHaMHjZCMHqf65vkMHiUCRIAIEIH2RoDkKsiI//vf/xaELjd/IFg1gZf0gAEDrA5xHxEgAkQgJAh8/PHH8o9//EMQsvfOO+9s9QyCadtTTz0ly5YtE6RGuP3223XZUAkIjJnEuLaDBajs7GzX3aITBhc5zAUTld9qnzyH/1SrgmoH6vCU7gLm2a5pJvB8xn5DzH9bteHPvu7xCXL2uOmyats6qa6r1Ro4XwR9GjVwOImVL2CxDBEgAkSgAxE49fbowE5EUtOXXXaZzJ07V6ZMmaLt/t2RLOzv169fJA2dYyECRMDmCCDtA0yW//rXv8pdd92lF4LM8sYbb8jPfvYzmT9/vk4REUpiFQhUOmHwUYeP05D88EsY3FU9/8cNPl1AtAwNmic8tMZq4AjJTE33VIzHiAARIAJEwAYIeCVXMIcwNiOqkQ36bdsuIIQvTP2w6nvFFVfInDlzWqyAGh3HSqgnMxLbDpAdIwJEIGwRwILPb3/7W72w884778gf//hHp/nyunXr5P7779eBG2677TaZPXu2LcdpThick54tyd3DM2EwFthG9POe2kTn7urVR7p+1aVVNEFbThA7RQSIABHo5Ah4NQtkQtfArhBEoTJyWoFQGX8jkIUvK5aBtc6ziQARIAItEUBo70ceeURuvvlmeeKJJ2T06NEyadIk+elPfyp79+6VSy+9VH7wgx+41bp3NJ7mhMGDgpwwGJEK4XPlzuIg2GMvLivxGEUQxOq0AcOkeE+hHJYKrUk0wsMHuy+sjwgQASJABIKDgFdyFZxmOmctWAH+4osv9OCh/cOHC/ZBu0V/q855TXDURMAOCFx++eWydu1aefzxxzWpQghfRDeFxv2Xv/ylpKSk2KGbrfpQ2xC8hMGtKlc7TjvtNKvdIdtXoJIeHyg/6EjV4RIR0CBWWcoUEOSKQgSCiQAWEXbs2CHIZdoe4i06ZzD6gPQKWDzqLAvXyJM6duxYJ3SwTKDYAwGSqxDOw5o1azSZQmQrrAyDUL377rv6RYrkkRQiQASIQEcgAA0NAlqAYH344Yc6Hx/MmX/1q1/J4MGDO6JLPrW5tXCnLhfbNUb65uT7dE5HF8JH5cHKctlzYJ8M6ztYUkxmjAlx8TJrzBny5ebVUl1f6+yqJlb9h0p2zwyPmq2OHhvbD18Etm3bphdTIk0++eQTmTVrVqQNy3I80GKbyZVlIe7sEAS8kqu33nrLacqGVYFx48Z1SEfDrVEkncQHC2T8+PE6NLDhs5aQkGDphxVuY2R/iQARCF8EEKXv+uuvl88++0wvAl144YUe/azwTEOKibq6Op2fz0jC214IlFVVSEW1I9nvAGUO2DXa6+vL764hwIdhFohV4UAEJuAHVB6r3SWF0tB4RFe150ChjvhnFpiLI7CFQa5ArEb2HyLZaZmBNM9ziYBHBECuIGMmjJOps6Z7LBvIwU/eny+b1m2UvD75ctnXrwikKo/nrlu1Vj77aIFgXJ2FXHkEhAc7FAGvbydkgDb8hJiTyfe5gnM4NFR4QZsTuyGaoKewwL63wJJEgAgQgbYjsHv3bnn00Uc1sQKheO+997RpoGsgC5Cpu+++W1544QUBwcJCEfL5gYzBZ6tPnz5t74SPZ6J/2wp36dLduyVIXmZoNP+7dqmEvSfzXCH3VSByVIWL37x3hzPUOgJvZKdZ58LCmCAGseqVlhVI0zyXCPiMwLSzZ8jsi8/3uby/BcurD2tyNXDoIDnvkgv9Pd3n8umZGZpcUYiAHRDwSq7s0Mlw64NZawVncXOOlPR0htINt/lkf4lApCEAwoTIgOvXr5dp06bp6IEvvvii3HPPPXoxyJwmoqmpSWurEGUQaSaQkBeRBhH04t5775W//e1vrfJEBRuvIhX4oe5Iva52sAq9DhJiN3H1KYmLiZXcjF5Ka9Ug/ZQJY8/kVLe+IJW1jpD4iB5oRayMBbr2CrRhN2zZHyJABFojUFpaKshdaMgZZ5yhrQooHY8AyVUI5sCd1ioETbFKIkAEiIBfCMAS4emnn5Y333xTevfuLY899pjWPu3bt0+bCP785z/XxxMTE3W9MB98/vnnW7Rx0UUXaV8t+DfgBV9QUOBXH/wpbE4YDIKS0SPNn9NDXhYmf3tL90tTc5OMHjSyRXtDCwb4RATTe/SU9JSekpPeWmMF5/xATRRDDgIbIAJEoN0RgHUUFvMNwW+KPRAguQryPHjSWgW5KVZHBIgAEfAbgYULF8rvfvc7QVCLX/ziF9onFALNFHLz/etf/9IJhJHryqx1d22oublZ1+GpjOs5bflt14TBiFy4WwWpKKk45BxWTX2dyrvlIKXY6auGrSC7d1ug4TlEgAgQASJgQwTsZ1thQ5D86RLMbKx8rfypg2WJABEgAqFAANqpu+66S+BLe+ONN8o111zjbAYkC2QLhAm+WCBh7gTPOWitpkyZItnZ2e6KBbxfJwxWASEgdksYjBDqBrGK7hItCKsep9JsBFtgbrh69Wq9bd26NdjVsz4iQASIABEIMgIkV0EE9MiRI7Jp0yZdo6uvVRCbYVVEgAgQAb8RgFb9gQce0B/psM2/7777WgXXufbaa+WGG26QiooKTcJAxlylpKREh3FHQlv8iwAXoZIdRXt0QCVogIKdMNiqz0iXMXDgwFZBOkBwXKUgO0+6xcbJQBW5cMboyTIkf4DEqd+hELRv1YdQtMU6iQARIAJEIDAEvJoFYmXSeKjbNbFkYBAE72yEKYbWCr4K5giBwWuBNREBIkAE2oYAUkD8/e9/15s7QSTTP//5z3qzEpCuW265RRBpEAEwkBw9VOJIGFyiq4dWqFtct1A15awXeWPMosOpVxzUIdRH9BssqUk9nIdBpM4cNdltkIqQd5YNEAEiQASIgC0R8Equhg0bZsuO261TOlTwybwRwCzUfgh2Gz/7QwSIQGQjUFlZqSMErlixQge4gPYrlGJOGIxoe+0pWCTbf+iA7DkZqAJt71YEa+zgU+QK+xBsgkIEiAARIAJEwIyAV3JFuHxDAKYytbW1+mVLrZVvmLEUESAC4YEAnm0IcLF48WJ55pln5Kyzzgppx9sjYbDVABDpFQtlMHUsri+X4ycc0begscrPyrU6hfuIABEgAh2CQM+ePeWcc85xts1UPx0yDZaNklxZwuL/TsPROD8/X2B+QyECRIAIRAIC8NWC/9V//vMf/W9mZqasXLlSDw0kBItJ3boFz2RPWwG0Q8Jg89ygTSyMQWNl+DeBTNUjR1WvfOmRlNKhU2l8NIXSv61DB8jGiQAR8BuB+Pj4kKbB8LtDPMGJgFdy9dxzz2mHYgicfWfMmEH4XBBAks09e/bovYMHD243fOAf0dzULDdffaNEdQmNeUrjkUY9ngP7i+R719wUsrEV7nE4zgfzIy1knWXFRKATIQBzQGisampqdBAMbIb06tVL57saObJlfqdA4Clux4TBtQ31KhrhPkFUwglDR7fo9qDe/Wxh9gfShzxkFCIQCgSisLBwAgFbTgZtMQdvMf0d1SKmi+lHizLm/Y7edmls0n+gjZC2o1JDUIiAXRDwSq5ArAxyxWhF1tO2c+dOveKJVQRortpLbrrpJiksLNTmiKGS2MQYiVKRlmNUiOHY6OCHGTb6DeIOX7Vx48aFaiislwgQgTYgkJubKxs2bGjDmf6f0jJhcI+QJQyuqquWXcX7BOaHhlTWVrfoMP2p/J8/nhF+CESrKMexauFEqWydnW+xVGsmWydLgJAZYv7bXIdxPKbhqONPtYAR0nZOLgSH3wy0vcf47kS+QSfW6jsNqTQoHY8AZyEIc2AEsoB5THsGsrjooosEG4UIEAEiEAkIIGFw01HHxwJCm4eK4JRXVzqJVYz6GOmjkvh2j7enOTcWNY2Q+LBWgLaQQgSChUBMY7PE1da1IFdOLZZqxKyxaqG9chIsz6QsRpEqSPSxEyFtJ7YTkqvS0lKZN2+e81KYNWuWtjCjdDwCJFcBzgGScWKDtKdJoLtu42Z78sknZe7cuUE11XHXXqD7sfKC0NDQjH3jG99oV3IaaN95PhEgAsFDoGXC4CxJ7p4UlMpheQGSZiZqfZQ/VWnFIemdmSO5Gb2ka3S0bgsO4iAzeB7ZSRACH4LcYiRXdpqZ8O9L10aluVLkqoUGyjARxPBMln5uTQMNGCw0WjHKdQHSpflo8NrR/XJ0zOh314YjRi/4LxHocARIrgKcApgEQrKzs6VHj5ZhegOs2u/T8RHx9NNPy5IlS+TWW2/1+/yOOCFafdQAOzjKn3baaTr5MoUIEIHOh4A5YfDAvH4BA4CFmyLlv7WnpFCG9x3cwsQwpmuMnDFyfCvNWEFBQcDtsgIiEE4IdFXkJ66u3tFlJ2ExjcBsI2g2EWxBpMwjNjtnfSVdT5qtRSuNtGs7OMtJ2AJtp8nhHx5O2LOvkYsAyVWAcwufJ0jfvn0DrCnw0xFU480335Qf/ehHegU2XGTatGmSk5Mj//jHPzTBAuGiEAEi0HkQcE0YHB9AwmD4be0tLZJ9ajt6zOHvgSTAGT3SWgAaKpPDzjNrHGkkIBCtAnLFGuTKnLfNQgtl5VPlioGrBiz26DFdpIta7PC5HZxgJnKujajfru3EnAycYVGUu4hAuyNAchUA5AgkUVVVpWtoz0AW7rqMqF1wbjzzzDOdRTZu3Cj79++XyZMnOzVr0HB9+eWX0tjYKFOmTBHY8QcigbaRkpIis2fPFkSmBFm1A1ENBA+eSwSIgH8IGKHXY5VGKfCEwVGKWO1XxMrxUQdS5WudeFYaZoE0v/NvDlk6PBGA5ir2SIOj8y2UTm58qaxMBs1EzAyDqiL6qGOBQ5OrQNtB3YZ2zaWdriRX4XkBRmivvZKrCy+80Dl0hslueRXgRQxJTk4WEISOFISD//jjj2XgwIGSl5fn7AoI1C233CIXXHCBPPbYY5pIwQHyu9/9rk4KaiZibe1/MNqYMGGCPPHEE7JmzRqSq7ZOBM8jAmGIACL2lVcf1j0fkNdX+T95fS21GCUS/UZ3OaXthv9UgQpQgRxVfVWOqqSERJ9RKSsr0+QK7zo7kStDy0Ztm89TyYI+ItBV+ULF1DtM6qLMxMmKRKFOMwEz/XDnjxVzcpGji/rXaAfVnGrLVGFLi0LTCExEz0370MBRiIBdEPD6FoM/DMUaAYNc9e7d27pAO+6Fw/Pu3btl5syZLRJ6IrT5/fffr32axowZozVV9957ryZV3//+94MSQCIYbQBDOGsj5PMll1wSlH61I/xsiggQgTYgEEjCYIRT363M/RAIY/LwsS38p/rnFrShN/Y8BYQKz24KEQgFAtAsxapw7KfEDdk5WaClOZ51j8xEK1qRN0iX4ydC2g5IIoUI2AUBr+TKLh21Wz/gLF1cXKy7ZQeTQJgoItlnZmZmK2Ly9a9/XWuEQLKwGotw8Y888ogkJvq+ousN/0DbQI4waAAPHDjgrSkeJwJEIEIQaEvC4MM1lbKzaK8crnWYZAOKCrUvPSV8/EwjZPo4jAhAAOQqxk0Yc69EqoVflDUpizY0V8odIZTtGIEzImBKfB5CVlaWXH311c7y+I6i2AMBr+TK8ClCdxGeFtoFikhJSYkcUw8NBF+wg/kI/KiwCmyVZwumgD/96U9l8eLFgpxcCBzhmgsB5jDbt2/XJoV9+vTxe4q9tVFfXy9ffPGFztcyZMgQmTRpUovAFVidRd9BWpms2m/4eQIRCDsE2powuKa+zkms4mLjpK8yAeyRmBx24/e1w3ge1tWpPERK8L5JSLBnPi5fx8Ny9kIgulmZ65n9lcyEyRTgooXJoLmMVXkTz4pW73RI1LHjIW2nM2qukDAYi9IU+yHglVwh+hw+3CHw54HZGUV0kAgIotzZISM2XrggviDDmC9XkgV/LEQTBCFcuHChnHfeec5AFvgNfycEk8AqCEwI2yLu2kB/HnzwQU2shg8fLi+88IJMnTpVa88Mgc8YCFhaWlqr8Mht6QvPIQJEwN4I7DUlDB7sJmEw/Km6RHVp8UzIy+wlpYfLBP/mpGW1etbZe9Rt6x0WviB4xmNxitL+COA9BgsRfMxGku9bF6W56gp/JVModKdZnxv/Jrfom4iWUV2UoblSUTxD2U6Xk1EJ3faNB4hAOyLglVy1Y1/Cqik7+VsBOIReh9/Srl27WpGrVatWycMPPyzXXHONJjcgOmPHjtVJeyEzZsyQ6dOny913393ml4anNgwzxNjYWN3e2WefLT//+c/134YgEXN1dbUMHTq0U3wstRh8BP6A/x8iV2JBhqH1I3CCAxxSSo8U2a3yT0Fy0rMkxSVhMCL97T9ULCBgw1SOquyeGc4WEfBi0vDQ+CAxz16AExvBpyNw02uvvaafZ0gZgmdbR+e2DARuwy3g+2vXyp3K1zlU0nBSc/Va8QF55+13QtWMGO0kJQUn+XjIOhrEinFNGgnGUW1qaio120HEN5CqSK7agB60LIa5ZG5ubhtqCP4pWNFEsIq33npLDh48KEa/YO4H0gQN289+9jN98yF0+kMPPSQjR46UUaNGeewMtFGINvjAAw8I/KqsxJc2DGKF83fs2NEquiICWcDslB83VgiH3z6QK2xLly6V/v37a9KckZHRZvIefgiwx54QmHv91x2LQEorZU4YDFPBXcX7pPBgsUBrBdl9YF8LcuWp3kCPRZJGIlAseH5LBGAdgncm3p/r1q2T9evXOzWJMLMPpg9ze2CP74Xvfe972lUglAJTf3yT4PmPd3woBS4N5557biibsFXdIFaI/mzIrFmzWrl82KrDnagzJFdtmGxoWSAwB7TLyhW0QzD1e/HFF2XlypWaXEFz8Oijj2pfqldeecXpGwatEcgMzP9efvllbYrnTg4fPqxXRtz52vnbBjRczz77rCZ3hqAO5OiCNm3w4MHuusL9YYQAzIeLior0NYiXNzSqINggWZjjcPsQCSPobd/Vgv59Zebss3U/C3r1FnPCYJgAHigvdRKrXmmZOpx6ewlMkyF4ntI5vL1QD592oLHatGmT01WipqZG8E7DOxffAjDZxGJSOFw76ONf/vKX8AGfPSUCYYQAyVUbJssgV+np6bZaiYcWCuZ9r7/+ul69Qa6W3/3ud3ozCwJwILiFN4GN+fLly3XwCXe+dvhg9rUNvJR+8pOfyI9+9KMW9YHorV69WufhYi41b7MSHsdhOoOPjC1btugOw9cPG6JWYoMZK0xUkTDarNUMj9Gxl4Eg8O0ffk+TlxiVMDg/M6dFVdjfL6eP1Klko30V8Uro1r7Rr7AQYOS5wvVJsScCmCNjw3vK2LDP/Bt/m/e15bhrHXhewRzLEGhmIFiIRNCmZcuWCb4NsJDE55s9rx/2igiEGgGSqzYgbCZXbTg9ZKcgYt8Pf/hDueOOO7TZwsSJEwNq66hydIVWC5EGA7Vjhvbsxz/+sdx0000yd+5cZ7/wYnrnnXc0KXRH4AIaRCc7GVEsQYjtINBauQo+VCC4h0DwsSGVwbBhw7TpqmsgFtfz+Tu8ERgzcZyMnTReDyJWkasVW9fJ1NMmtFik6pN9Kgl6eI82eL3v16+frqyz+y9CG/7BBx84NUfBQzg4NRmE79ChQ5ps4fmG5xo0WnjO2SH4VXBGylqIABHwhIBKY2COo9m6KEy4jA8iRgt04AOnVgRfQCCIQYMGtQYtzPZAc3TnnXdqcwfYRI8YMUL++Mc/SkFBQVBGAgJ18803y3//+1+9kge/BgTfQCRKSnAR2Lt3r8yfPz+4lbZDbbjucF3gfsKHCDRbHSUwYcS1SgkuAgs+XSBX3HSNZOf0alHxvk07pb6qNriNtbE2aKtwHR5RSVVxHUS6wIognD74kVvS7GMSTvMDf2fzwqKd+v7GG2/oYB1PP/20RzcBo8/wOcc5WBB1TesS7HHh+xMLsLBq8eRPhXffD37wA/0tg2+zziCu9wN9ruwz6141V9dff72zt1xVFu1DAmIFgeo/EgROuvB5CpVgtRUkHRuFCFghAC0pBM7i2OA/CALeEbJ582at/aUEF4HE5CQ5/6pLnJUWFe6XN194VRZ88LEY8x/cFlmbNwQQrCicyFU4BRzB9xL6C1KFBUtD++htTtr7OLRsf/7zn+XKK6/0iVihf5WVlfLkk09qP+5Qkyus/2MhFjh+7Wtfc2vdAM0gAmL94Q9/kHHjxtGvt70vJLbXAgGv5Ir+EC2vGCPsJQiDXYJZ8JomAuGOADRXeIlCWwpfhezs7HAfEvvvgkBdTa3cetP35dd/ekz+8+qb8sVnS2xr3mWnycMHOlbuIVu3btUr851VwmGBF2QV/YQGHs+ylJQUW08XIgKDLHnSCtl6ACc7B8znzJmjiRhM46HFiXTBs8G8OBJOiw+RPjdeyVWkA+Dv+Ax/K/gihcOD3t/xsXx4IwDSb5dIfDAHhXmVO8GLAFtmZqYOboEwunZYRUcfmPXe3ay1fT9SWGC78+Yf60qIsW9YYtHh7bff1oXx/unMuCEcupELEc8OvIPNm3lfqI7j492IKmnMIJ67mCcsCiGiYF5eXlh8H8AS591333U+fzGehoYGuf/++3XCZEQbBjlEAA/kyoQZmmuALN+uYutSvrTlj4k4ItEiUvJ7773XKcgV/Pngx06xHwJeyRVy1RhuWQhqgA+hziyG5spT+PLOjA/H3rEIwJQOyaLtIIicBRM/s1un8cGD0P4IYgGTEnww2UlgkmiY/tqpX+HeF3yoIf0DBFp/rJZTiIA/CIBYTps2zZ9TgloWodfNkQKxEAPrHpj9wV/Ubs8yb4NHjkr4Wn/jG99wLmxhDFdffbXOa/n73/9e7rvvPnnppZfkn//8pw7djnxVKPPII48EnJfSl7YwBuTjQsAubwvaeK9gLhB9mEIEOhIBr+RqwYIFLQJadHZyhdUciN1V/R15UbFtIgAn5J07dzqJlZ0CVnB2iAARIAJtQeCtt94SaOShqYKmHR/yWVlZtkrJ4s+4oAlFcApoe8wCnyWQKuTExFj//ve/y3e+8x3tCwsBibngggv8acptWW9t4cQzzjjD7fnmAyBfWGAMpQ+5Tx1hoU6PgFdy1ekRcgHAMAewi+kV54cI2BEBhCCGSaDxsoPZH0Ot23Gm2CciQAR8RQCaljFjxmgtVST4o+MZDcsCaIVcBZoraIAefPBBueiii3QqlVClAghmW0iObJUGxHV8kfC7rq5OYF1mCIglAn9QOh4Bkis/5gAPIVzMEKzcUIgAEbBGAKu5MCPGym4kfIRYj5J7iQAR6EAbzfYAACAASURBVEwIXHHFFRE1XHzHwFTbyjcWSd9hums263Y3eASQePzxxwWRBx966CG/TTf9bQsaNVgRgUjdfffdOoqgIVgAR9j2ziAwX0fSakNA/kmu7DHzXezRjfDoBZyxjZxfJFfhMWfsZccggEhZWOElseoY/Nmq7wjANxCJ0l999VXfT2JJIhABCCCdDLbCwsIWo8F3zlNPPSWff/65/O///q+sW7dO576ESaSVIAcqAl0gNLu//qr+toX+/t///Z8sXbpUEyv4hRm+8KgL+a7QDwoR6EgESK78QN/QWuGUcHNc9WOYLEoEiAAR6DQIrF27Vp544gl5//33O82YOVAiAAQQnALRDWH+h8VjQz799FOdL+r222/XiXnvuecenWDYnS8TtCWIlOgaCnz//v3apBDnuhN/20K+MCzeQQz3DIP0gdghT+HEiRPdNcf9RKBdECC58gNmw98KxMpb1Bo/qmVRIkAEiAARIAJEgAi0KwKIdojcUMifZvju7Nu3T2uEkCfqW9/6lv7Wue6663QAi5/97GctfHy8dRbBMtavX+82SXggbcFkEQTwwgsvdEax3rJli5SWljoDb3jrH48TgVAh4NXnCisDhilcZ7FjdQc2g1m4Q4b7iQARIAJEgAgQgXBDYMaMGTpa4Lx583QOMURBXLFiRYth4NsPZoL+ClJxQKMFAmclbW0L/lbQpiGwiJHnCdqrf/3rX9ocHREIKUSgIxHwSq6Q74DiQIDBLHglEAEiQATshwAWvuAUj5D/7ky2EUHMiGAJn9lwsz7AxyOSrmKxE/13l3AbZTBW+Du6w8J+M8gedRQCyDl3xx13yOuvvy6HDx8Wf5L2euszrj8En0AUu2AJ7nVo0NBvECwj0mFRUZEgb9dtt93WaQJaBAtT1hN8BGgW6AemeGlBGMzCD9BYlAgQASIQQgRAOpCgGP4jSEy9cuXKVq2VlJTIWWedpSNpYaXbsEJoVdDGO5CT6OKLL9ZjmDt3rs5P5CrwiYE2AA79zz//vOth/iYClggg2t5f//rXNhMraLouu+wygf/U/fffr8kPBBormO0FU95++2158cUXZcmSJXL++efL9ddfr00Bcd0j0XFn0lphAQWReY2ts1uXBfM6C7Qur5qrQBuIpPOPHj2qh4PVUTtJY1OzHCw7LPKVclBN7yEJ8R0fhrThSKNeGe4WF+uE6sQJFcq+vkHiu8UpDB2XXrPCtL6hURK7x0uMsv+mEAEiQAT8QQC5d2699VZZs2aNvPvuu87If0bCezjqP/zww4KogCBfv/zlL3WaAEOwUo/9eXl5/jTb7mXxAfXb3/5WEyuYcCFiGj5ijdxD8JnBSj60DzfeeKN885vfbPc+ssHOicD48eP1vdcegpxY2CiOgCTuTC6JT8ci4FVzhVVA5DDAZk5W1rHd7pjWjYg0oUqk5++okH9i87Y98sbbC2Tj1j2yefte+de7C2X95p3KdEQxrQ6So0ePyaJl6+TgIUX4TALCNX/hcjlwsFzvra6pk3kffaH6fioJXgd1mc0SASIQxghAm/PrX/9aEBIaCax/85vfOBOJYpX7H//4hyQnJ8uvfvUr7adhlquuukqHmgbpsrtMmDBBawawYg1yBZIFgck69mMcWLnH3zQJtPtssn9EgAhEKgJeVQUIU2sEtMCLC2EwO6vYjVyVHKyQNZt2yPTJo6RPXraelgOl5bJw6WpJSU7U+6AZiu4SrVY3HTy6WRGf6C5RztXOo8pP4XBVrXRVx1NTkpW2KUonDUS5rmpFuKqmVrqoJIMJCQ7NEo5DcE0cPXZc4mJba/Fq6upVdKBjktYzxe2lcriqRhZ8vlryemXIuNOHKP+BaN1ulSJcTU1HpWdqksQqDaHRF2i1fGnbbYM8QASIQEQjMHz4cE2Qvv3tb8uzzz6rHdvxznrwwQd1tDLkskLEs3AXRG5D6GyEt7733nv1GN977z158803ddQ0aLfy8/PDfZjsPxEgAkQgbBHwSq7CdmQh6LidyBVIx+7CA5KemqIISqZztNmZaYJt195iyclOl48+WymD+/eWAX3ztDZrweerJD8nU4YN7isgZ4uWrdXmeCBZSYkJMmPKaE2s3v/kC22+B9O+XEWAikvLZEj/PjJI1QXZsGW3lB6qkHNnts4ncbCsUtflzjyxUpG5L1dvln59cmT0iEGa+B050iSfqb5UVtdKN7Uq26hMec6cPFrSUpNl/mcr1BjyfWo7BNPOKokAEQgTBC655BJNPJDQ9K677tLaKji6w3Tmxz/+sXNRKUyGY9lNOPDDHBAhruF3AhMpjBGCENrTp0+3PI87iQARiCwEEI4e2mpDEO0R5sOUjkeA5MqPOTA0eHYwCwS5qqmtV+QjxanRwVCg3UntkST7iw95HFlT81FZtX6bjBzaX4YNKtDk6lOlSQIp652bpTKxn5AhA/rIkIF9dD2xykcKZA6E6JhyIN9XXCrDBha0agPnlSizP9RhaJrMhY6qc5et3iSjhg+UMSMHOSN2bd6xV2nUusgVF87QZG+TMneEeePsWZOkoHe2T2236gx3EAEi0KkQQAS9O++8U2Bx8cEHHwgCWQwePFibAyK6mD+C5z3y8ODj5cCBA7oeBMWwgyBgBTRUV155pe6fkYsIWrtwi4JoBzzZByIQjgggyNr27dudXYffKMmVPWaS5MqPebCT5grdjlL/gWS5it7nsN5zPeT83dBwRKqUlghkan/xQRULQ5nkVdfpABQgRnFxMSo4RqqzfL7at3NPkVRUVguIGUgUNGOuUq/qrVe+VRlp1h8yMD/srTRnexRRK+jdS2nZeuq6EJCjrv6ILFi8CnE5lGlgs24H4mvbrn3hbyJABDofAtBWjRw5UubPn6/Nl6dNmyb9+/f3Cwg860FUEH0M0WERFOOaa64R5ASyw+IaBtO3b18d4hrELz4+Xkdl8xTJFoEuQMR27Nih/bGg5UMeSwoRIAJEgAgEFwGSKz/wtBO5ilJ+UNBQwXcJ5AQ+SxD8XVFZIylJp16apwiYoi0mMoZz+hfkSpKK1KdF1ZmYYEQajFK+VqfASUrsrghTqiJFJdLY2KR9pazM/soqqiRema0kK7NAKwEhHK5MEg+rPn66ZJXMmjpW0ns6iFivrDQpOOk7hnONiIK+tm3VHvcRASLQuRD473//K88884xeeMJz8rXXXpOZM2f6FWEMBOr222/XOXrwt918tUD24F+GENjQVCF/FyIijh49WgYMGNBqwpHD6IYbbtD7od3LycnRpJPkqhVU3EEEiAARCBgBr9ECA24hgiqwG7mCiZ7WPu0rdmqw9hWVyKHyShnUL0+b2cXEIChFnT5eW9egfZogCFCR2D1BE6Vc5bMFbVWOIjfd1T4rgYkf2oPGqVRpmfrm57QqhjYQUCNb1eNpdRcfPKNGDFR97C0LlqyWcqUNg59YdU291pahL3lKu9UjxREu2Ze2W3WGO4gAEeh0CGzevFnuu+8+qa2tlZtvvll++MMf6sS7iJ4HHyV/BNovBHCyo5ndyy+/rPNYIaT8n/70J0Eo7E2bNmlfLCPZvXmsU6dO1aHokSsLGjg8gylEgAgQASIQGgS8aq4QdcjQfKSntzYDC0237FmrQa7s8rLNVERkyviR8sWqTbJu4w6JUgQIkfYmjxshvbIcc4VAEJ99sVb2FZXqFUvjpYoofxPHDNPHdihzP2iJYIY3eexwJ6lxnQWY+iFQRaw6N/Uk8TGXaVBBKapr65x+Wq7nm38Dw9HK5+qEImSfqiAbUyeeponim+98Kt0V8Wtqblbmg1lyxoSR+jRvbXtqi8eIABGIfASQVBfECj4ICOoAQoXnzMaNG3VyUwR7QFh25LUKZ0F6FERAbFbPyNtuu02+853vCBzZEdjiP//5j46SCL8z83sKmipsht9wOI+ffScCRIAI2B0Br+TqnHPOsfsY2q1/hjbGIFnt1rCHhuC3lJ+brbRS9Sp/VIWs3bjdGXYdpyEc+1UXz5IGpaFKUlopw3wQx0BYLr/gTK3RAsmBeaAxxrkXzWzVKgJZIOLgwL69W7RhFISJIs5PSe7e6lzsQKLgK0z14uU/ftRQvUEQ9RBRA48ok5fuKhFynCkBsbe2LRvkTiJABDoFAngmG3mfcnNzdZ6r7GxHegoEfrjiiivk448/lscff1wTEyw0haMcOnRIh5QvLCyU888/X5su4pkLEz+QR0RIfOyxx7R54Ne+9rVwHCL7TASIABEIewTC8w3TQbDHqLxLEORMsZPAbA55rbD1UFu9sr8/pnJQGUQKJMVMVMx9hyYrOcmaDJnL7Vamh+s27ZRuKjx7bi9rDWZudoYyLUy3JF6+4hUfH6ecs+NaFPelbV/rZzkiQAQiDwEk0wW5AmmCn9SkSZOcgxw7dqz84he/0CaCTz75pNbsXH755WEHAjRVII2LFi3SflVImozkyRAsVH3rW9+SVatWae0ciBbKIOgFhQgQgchEAAFshg0b5hwcgvlQ7IEAyZUf8xCr8i9B7EauzENAUIhQCEK+Txo7QgWfSHEGmnBtxxF6Pfi2/L607doX/iYCRKBzIAAzQJgD1tTUaIJx/fXXtxo4TOaQ/wrkCn5J+CCBKV04yRtvvKGTI+OD6qGHHtIREc2C/dDKwfdqzZo18sADD+jxeoogGE7jb+++1jc06qi1iLwLM3oEcGqLrxrcKuAXnagiNCI6rquUH67WUXhhwh8MgXUJLFmOqeBWhiA4FXysjSBRwWjHqo5GhRciEPfN72UZ8MrqHOwDBghyZeTRtCoH33FYxyAPJlwizFY4VuXbY1+DioyMhQ1EWTYEeULhyw68jXQ0iKKMYGNwq2jLNeRuLEgvAX9Kiv0Q8EquPvzwQ6fPFWy2TzvtNPuNop16ZFfNVXsM39CMtUdbrm10ZNuufeFvIkAE7IXAoEGDZMOGDR47hcS7f/jDH/QWrnLttdcKNk9SUFAg8MmiBIYACNHyNZulsOigiqgYLyBaicoXeOYZo1WUXv+1A0hzYqROWaZ8pGGSP6Bvnu4kPsQrqxyBpgLrteNsfPC/v2CZTmkSd9LaBkRkwuhhluQuGG0adYCMbt25T3qpAFVW0YTdtQVyCVJmRa5Q55IVG7TbQ6bCDXPRrKyHzpw8SgfC6ig5qkjUomXrZKjKB9pH5eI0pOjAQeWegRydEzUGGBeuJbg/+GIl1FHjYbvBRcArudq/f7/TCRYvqM4sBrmCeQaFCBABIkAEiAARiEwEYIMxoG+uDhoFbcRHny1Xye336uBLCAxyWBEikLCeKiWK4auM39CwILBUj5RErdGApuK0YQNU9N4opU06rqLi1km8Mq8/okhVjDJjRfCpzIxTOSXd1Q2/wuOqXQjIGAI/wY/ZSroqP7zxo4dqn2uzoH8YC45X1TgIXWpKslPDgrIgZzW19bp+aFoMgW92ndLAwPUA/TfEGPNx5YoQfTIljLlN1Fet6gM5NdcH1wWtiTJpfczn4W/UvW7zTh1J+JLzVOoAVQc0c6s3bNOEa/bMSbovR48dk1gVlAtYG2M0fqMeqz5YYaEDdp0kpDgP9YKlWmn8apR2EAQrTVnzWInqumzbVSir12/TQcbgH2/UiWsHOT8N7I259bVtq/a4z14IeCVX9upux/amM2uuOhZ5tk4EiAARaF8EiouLZefOnTp8OfJIlZWVaX8nLDLCJA9h0CmdAwF8qEPrAEIEkrFARbjF3zAJ66I+6GdNG6sDRi3+cp0cVKlQEBwKJnKTVPTdnKwMWfTFGmXK1lMRgVgpKimTkkOHZcuOvSolySDto7xTRew9/6zJbuvuqbRl23fvVx/q25WZZ7xuEyRuyvgRMqDAoQHzZSZAct7/5AuniWONGktvlfZkqorKC2KyVvlVb9y6WxOoZhU9eMSQfjJQpXVZsW6rbN+1X4+xtr5BRxqGGSNIwbJVm7XZI3JbasKizoOABK1XxAj1gbQAt2GDCvSY61QdnyxeqYkeCCakm8LGVYAxtIfDh/TVxAoCUzu0DY1Q6aEKPS/A/ezp41Qfumti+NGilXLW1DHKDz3JbR9AjoAFyBnmEXlDkcbm7GnjtP86iNNHi1ZogorcnK5ysEzNsxqXlYbuK8XIoMHbrsjVtEmn62BdkBKlfVu0bK0eM4gbzp8xZbQmn0sVWfS1baMvCHCzePFiZ9eQkgERvikdjwDJlR9zQHLlB1gsSgSIABEIYwReffVVHX3PiA67e/duQeCMjIwMefvtt1sEzbD7MJH7Cnm+kHwYH2SNjY06AfHevXt10At+kFnPIAiS9gdSGhZ85I8c1l82b9+r05Gcp8gQtFGLv1yvgz0hdyPySM6eOVGnKgG50GoPk/RXRGhPYYnkZKdr4gIBaYKAmLire+YZY3QZEIuZ6mMcH//Q6OzaU2xJrvDhDgIIDRUkXpmngXxA4PszVJEc5Jksr6iShYr4gWRhrDtUX85V/c9SPk3oD8ZQWlYh+/aXyvmzJkm6MsvbubdI1mzYoYNXgaAUl5bJhWdPkZ6pybr/KxURgxwqP6zKFmvSiGMVyqfqM9VWvspjuWvfAa0Zu1ARIMinn6/WZMZVkB4GY3E1p4O2C6QI7bseM9fhtg+KMMFUElgMUWZ9Qwb20e18okjZ/gOHNL7lh6vUfYKUMA5iZK4X55UcLNc5OQ2/KvNxjBXatq8pzA1ihbGsUlqskUP7a5KJ9jBukES0jwjJvrRtbgf+/xUVFc5dtKpyvYI67jfJlR/YGwEteAH7ARqLEgEiQATCEIE77rhDsEWCbNu2TS677DI5ePCgczhz587VK/aPPPKI3HPPPZEwzKCOAbQIWiYQDwS0QF7GgcpP6mOlcQFBgDYLgo9vaGfwsY9gCwuXrJGC/Gyt8YDGyUGyvHcN5eB7ZFW3cTY++hEoAQLtWJEpaIW5BWhGYIqGXJEQ5IzGXEPbFRcXowNTQRD9N7pLtCY2CCiButMVEXKcE6W0akpDpvzFsB+aHUiW0sCBUEAT5TgWr8kIBAG1oJ2DoL76+iOyfO1m9StKm1LWqd/Q0mCcwMfQWuUpDEE63QlM7MwCzRDIH/zYPIm7PqDvGA+wyFBEEoK+9OuTq/N+DlTEc7fqT5Yy1zSbMhptIUBFvTJ3hO+clWBuEKF547Y9mpDi2mhQ5yCXJ8jU/uKDGIHGD0TRn7at2uM++yFAcuXHnFBz5QdYLEoEiAARIAK2QADh6EtLS23Rl3DphPa5KnD4XBkR3qCxgODD3hB8JEPwkXzOzAlSpDQf+4sPybyPlsoEZT6HvJD+iFXd5vNBlHwR9Bkmh63FhZKcrE//o8blSmQc57uwm9aVnix26nycgWAgQwcUOLU7UYqU9VCmevBFMot5zOb9wDROEVZoBPN6ZTgP6XyYymQQpM7Rb3XoZBeRs9MYhLs+pPVIkSadUidKmVieahFpZjYrc819RaVySJn9wazTKrpfmdL4xSvzYJhCWgn6fObk0cpkcqPS1q3Vpn8QaMv6q2sK5EuLmqPEhG76T1/bdpzI/9sdAas7z+597rD+xcc7boj6+voO6wMbJgJEgAgQASJABNofAZAVaCtgvgUzLwRlgLkgglfAfBTf9X3zc7SfDbQgZeVVrTqJoA86xLuLeKrbtWwofiMwAwJWgDhAoEmDTxS0b9A4lStNFOSAMocDGYI5HoJ54FilMpuEFJeWa/NCCLRjwAcmlDCfw4YQ6iBMGkOlvUHUP2jN8LcVq4PGp19BjmxRGiCjDdS5Yctu7esETRmCTRw/cVxHEYQAc299QJ+sBHXmKnPH5Wu26H4aGj5zWYz9gBpntmrbCGRiVRc0eDDnRH8/W7pGB/uABhDRIXOVDxbwyFF1dD+pifSlbat2uM+eCHjVXCHTu7GqkJbWcWEv7QCfkaCtttYRJchqRcMO/WQfiAARIAJEgAgQgeAjAH+ZhUvXypvvfKo1Mt2UBmOm8h2Cyd38hcu1dgK6IUQGPPOkxsLoBcr3U+RryfL12mRs3OlDWkSic1e3v6PQ/kOLVzk1V9HKJHCKCloBouROMtJStS8QgjggeATqgB8ZTCGhbflAhXcH2QGpnDxuuI5UiN8w75v38ReKJHTTPl6GuSSIFPzKELgCxAEECNHwzlIBI4YOLNA+YW8oDLEvRmHmjvAgmASCZLyjNIFos0FpraD5ma5CsYMAoT2YP85X0RwRcCM2tqszB5anPljhgG+6ApWja4sKRtGvT45llEC0X11bp/2kvAnGDYKFsS5buUlGKzy/UKH4YXoIUqixVNoxRBL0pW1v7fG4fRCIUsTJR32vfTrdUT2Bxuqll17SzV933XWSoJICUogAESACRMA7Ao8++qgOEAFB8svKykrvJ7EEEbAhAvhsQtS8r5R2J0lFqDOCGkB7Vas0OVqzo/Zbm+V5HpC7uj2fFbyj0FbVq7EhCIY5TDq0QQhpDgLjGprcSJJrTpxr9AgkrU75OMUobRGCNhiL0vDBgu8T6rKKuOc6Imi44K+1RQXNgM8WSJprqHiYaKJ/rgvf7vrg2gZ+w89uxdot8rUzxzsjFJrLQWsJH7uzVIRIc+h0q7qs9un5VeOG+SJIoln75a1t1/oQ0RRBdgyZNWuWDBgwwLUYf3cAAl41Vx3QJ9s2CTIFp1D9UFDaK5Ir204VO0YEiAARIAJEICQI4OMd5MlV8KGMMOaBiLu6A6nTn3OhCYq10HCBaJnJlrlORP5zJwjWYJV4Gd9SRiAMd+ea94OEwUwPgTr27i9RZoBHWpArq8ATxvnu+mCuHwRszYbtKix+cYvQ7659y83O0JES20KcUZeeX2VS2Za2XfuCRaqpU6c6dyOSKcUeCJBc+TEP+qZITpaqqiqpqamRrCxHJB4/qmBRIkAEiAARIAJEgAgQgTYgALPLAcpUMdgC00mYOMIE0pP5pENL6WNUER876WvbrtV1795dhg0b5rqbv22AgFdy9corr2hNDQT5MKZMmWKDbndcF5A4EuQKmisKESACRIAIEAEiQASIQHgjAE1aVkbPDhlER7bdIQPuBI16JVfwMzLIFRIQdnYBuYKQXHX2K4HjJwJEgAgQASJABPxBAD5H77zzjvTs2VNGjRqlwrUHZkbpT9ssSwTaCwGv5Kq9OhIu7RgRA2EWSCECRIAIEAEiQASIABHwDYHy8nKdcw0byBWl7QgwoEXbsQv1mSRXfiIckZormH0am1KNq6gdju3AAZHlyx0IjR+vstzlnkJLRUWS1atFdu4USVUZzidPFklxZH33E1IWJwJEgAgQASJABDoBAjt27NCj7NWrF7VWnWC+O+sQSa78nPmUkwSirq5OJQJskjiV4yKsBaTq3ntFfvc7B8FS0Y7kiSdEDh8W+d//FRW5wzE8FchDfvQjkXvuEdm+3fH30qWiMifqLOOSkyPy2GMiV17pIGZhDQo7TwSIABEgAkSACAQTAbiY7Nq1S1fJkOHBRJZ12Q0Bkis/ZwShL7uq0KLHVNjOsrIyycsLftQaP7sU3OJIe/bMMyLbtolKnX6qbpAsladGOZuJzJ8vsnXrqYzqOEflW5A77xTp109kwoTg9om1EQEiQASIABEgAmGNQFFRkRw5ckSntOmHbwUKEYhQBJT9F8UfBPBQMHIJgFxFnECTtXGjqDTnImPGiIo379BMYaDNzSL/938OYoV8CjiuQoE6paRE5N//jjhIOCAiQASIABEgAkQgMATWrVunKygoKAh/q5/AoODZEY6AV80VMj4bwqguDiQyMzOlRBGJQ4cOReblAd+ql18WmT5dZNUqkYsvFoH/FQQmgJMmibz6qkh+vsjzz4v8z/+INDY6NFkbNkQmJhwVESACRIAIEAEi0CYEDh48qL+bIAxk0SYIeVIYIeCVXFF123o2Qa4gIFcIK4rkwhEjGMuFF4qccYZjSCBQvXufIlfKJFK+9S0HsUKJsWNFxVR1HId5IKMoRsylwIEQASJABIgAEQgGAmvWrNHV9FbfE+np6cGoknUQAdsi4JVc2bbnHdgxwywQtsPIAxZRGj1EChw6VASBLSAwD4yPP4U28nwNHHjqd0zMKbNB7EWACwoRIAJEgAgQASJABBQCh1WArMLCQo0FtVbBuyTwLTpnzhxnhUaqoOC1wJraioBXcmVOHAx/oxh8THdy6a78jBISEqShoUFrryKKXGFu1dhaiFkzB82VmWyRTHXyu4HDJwJEgAgQASLgHoG1a9fqg1nKhxsh2CnBQSBWLX4DU4r9EPBKrl544QWVAkkFOVAyUGksZs6cab9RtHOPYAaIFYN9+/bpiIE0nWznCfDQHK5VEN5Vylds5MiRyi1MmTVSiAARIAJEgAgQgXZHoEa5CuxEPkwlo0ePbvf22SAR6AgEvJKrjuhUOLQJvyuQq4gNahEOk3CyjwiLf0AF3MADHHNyXGnTQLJofhBGk8iuEgEiQASIQMQhYEQI7Kl8s+FvRQkeAkdVupxapMc5KbCqCvvcq8GDp0NrIrlqI/yGKhYRcHCB01yyjUC28TSYq+7fv1/lM96uIxDBZBXzAIFmcdCgQZKLqIcUIkAEiAARIAJEoN0RwIf/NuTMVILFzogK/tXuaLZuEIv78+bNcx5AdG8mZ26NU0fsIblqI+ogVyBU+KCH1qRPnz5trImn+YpAXV2d1kyBUFVUVGhCBa0VBNoqQ6JVMI7hw4f7Wi3LEQEiQASIABEgAkFEAJGUP//8c21F0qNHD7pPBBFbVmV/BEiu2jhH+IDPy8uTPXv26Cg4JFdtBNLLaVVVVbJr1y5t8odVMDywsUEMX0DXKjA3iOII7Rb+ttq6qsAc2A+CxtU0VwT5mwgQASJABIhA2xHAexvWJZBp06bpdy2FCHQWBEiuAphpBEsAuYI2ZerUqeH5kY4H3m9+49issEhJEVmwwOqIYx80REVF7o8HeOS9994TaKz8EZCq+fPn+3wKHvogW/jXfqqe6AAAIABJREFU2EC4rP42yJi7Y96Oe6rXfC60ot26dVOR8GOd/+I4hQgQASJABIiAnRFobGyUpUuX6i4OValdGCHQzrPFvoUCAZKrAFA1nDMRkh1makyMFwCYbk79+te/rs0uEcoVvlXutFXm00GUQExgKmje3DSh62xubnZ32Db7QbjgrOpKuvAb+103pAgAOaNmzjZTyI4QASJABCIegS+++EJAsJCyZuLEiRE/Xg6QCLgi4JVczZ0713kOgza0hA8PDoRkRzh2mAaSXLleXoH/BjFAYApsMAvcsGGDbN26VVds+Fu5toKoRJdcckmL3TAlBIlyJVz4jXqMY/jXKIu/jc28z/W4p2Ou9fl6LsgeNHBmXzL492HzR5OHexYkK0klf8a/5r+xL17lLCP5cr2C+JsIEAEiQATagkCRsmTZsWOHPhUWPVjgoxCBzoaAV3KVArMwilsEYBpokKsxY8a4LccDgSMAMjBlyhSZMGGC9sGCNgtaQ1eSVV5erkmR2YwOBMLwvQq8J+1XA8YGktWWDb0EGausrNSblQAj4JqamippaWl6AznFPpIuK8S4jwgQASJABKwQwPtm0aJF+lDfvn2loKDAqhj3EYGIR8AruYp4BAIcIMgVEtYiJOaRI0e0JsCOUt/QqD7QlelblEhcbIwkxHdr08czNC+79hVLotLaZWf2bDXU8sPVUlFZLYP7hy55L8z+hgwZIoMHDxaEwgfJwmoZBKQKJAr7I8HOG2PFhvwV/ghwQFAPaPug6cJm/G38a2jlqqurBdvevXudTUDjBZJlkC3jX2qv/ZkFliUCRIAIdA4E8G0Ac0C8a6CtOuOMMzrHwDtwlPjGufHGG509wLcPxR4IeCVX8HPBTQOBGRxCalJOIQBTQOACDQoi4yC/kt0E87d8zWYpLDqozMLiBUQrMSFeZp4xWlJ7JPvd3arqOsXRovR1sWzVJslI6yED+ubpehobm6Sy6lRSO78r9+MEaFays7Nl9uzZmkhs2rRJb1g9e/fdd+U73/mOH7VFVlFDIwUNlJVg7rAYgBchiNXhw4e13yD+xbUMDEFQsZkF939OTo4208SDHf5eFCJABIgAEejcCODda5jsT548WX8XUUKLgBFYK7StsPa2IOCVXCFBGVa4IQMHDpSZM2e2pZ2IPQcf+NBe4aGC0KN2JFcAXymsFAHKlSnjR0rz0WPy0WfLZdO2vTJ14ml6fg8rQoQP7p49krTmB4LfVTV1SuN1VHqkJEq3OEdwhNOGDZDoLlFyTPkrVavj8d3i5IgiVTFKw9IrK10yM1Kd8+2u7mb18R6tTNIajjSprVGTvNgYr5ej2+sImh2YC44dO1abDMI3C/2naZs1ZMAFLz9smZmZLQqBdJnJFkgXzAoxlwiNj23z5s36HGi0QLRAuEB0aV9vjTf3EgEiQAQiFQH4nBvRAZFjElYlFCLQmRFo+9esD6hh9Ru+IohiFsnmRCBUIFfQXEETgKABdhaQmOSk7poQ1dY1yILPV+m/9SqI+uieNW2sJHVPkMVfrpOD5ZXq73hpVCaFk8YOl5ysDFn0xRrJTO+pSFWsFJWUScmhw7Jlx14ZNWKQImZdZOeeIjn/rMlu6+6RnCSfLFql6wTrO37cEUTi3BkTdL8CERBDPNj5cG87ijBtNYKIGLUYxKq0tFRHbywuLtb3NogXtvXr12siiwAvxrkgWwwf3/Z54JlEgAgQAbsjgIW4Tz75RHcTuT+htaK0DwKwMsH72JCsrCztL03peARCSq7WrFkjH374oZxzzjlBDceJSGrIL4UNwQvg9A9CAwdKrJq0t6kSLujk5GSpqanRUXJGjx7d8TNr0QOQGfhEHa6q0SaCI4f1l83b9yptQ4ycp8gQtFGLv1wv6zbtVERpoFRW18rsmRMlNSVJaS1gGuowDzWq7l+gkigXlkhOdrqMGNJP796+25E0EFojd3WfOXm0qukrhVl3mTF5lK57/mcrpLi0LGByZTFs7goCAiBJ8MHCNmzYMK0VxEsVJAsPd5gPYzEFvofYcO+DpPXv318GDBigSRe1iEGYCFZBBIgAEbAJArBy+OCDD/SzHybjZ599NhfU2nFuYFGywJSHdNasWSRX7Yi/p6ZCSq48NdzWY8id8MYbb8ju3bv1xxpIDTRjWFGHze/q1at1GG58zLWXoB8IsLB8+XLZtm2bjBo1ynYfkqBF0DLVKE0VAlqMHjlIBio/qY8Xr5T83CynSV7vnEzZuHW3NvXrppxSFy5ZIwX52dInL1uZDCafJFnekQVhQmALq7pxNjDLSk/VJohdunwl3ePjtPkhJTwQwPwZ0QVPO81hWoqFDpAtbLgf8eLduHGj3nCfgmRho99meMwxe0kEiAARcIcA0oTMnz9fW+tgQRu+zzQLd4cW93c2BMKOXGGC8EEO3xr42Bj+IrjBoSUDwQKTv/TSS9v1Roc/GsgVtFf4sLRbpDrtc1Xg8LkyNAgwx4NAC2EINEoQ+FedM3OCFB04JPuLD8m8j5bKhDHDFCHr7Szryx9WdRvnwQTRKepvo21f6mUZeyEAzRbuRWzQ3GIRBJpl+L9Bq4X7Agsf2BAEBiQLWi1/oyDaa9TsDREgAkSg8yEAYgVTQAQ8wrMf1klYQKMQASLgQCCo5MpIyApNUqgEKyNz5sxp9VEGs8AzzzzTuXIOdSnM9dpL8JGIwBZw7IT2ym7kygoH+Ech0t9+RaAGqdDpCDABc0EEr8BcgnP1zc+Rgt69JHpFtJSVV7UiV9Fdox0h3l0a8FS3VV+4L7IQwErm0KFD9YaFDwR7AdGCfxY0XNiWLVum/bOg+YKtPs0GI+sacB0NfFMvu+wyvZuk2hUd/iYC4YEATAChsYKFAmT69Ok6mBGFCBCBUwh4JVfQEhkfPe6c07F6AW0RPqDwUY7Ew3BqNKIMBhNw9MHdixmRz3AMH3Bwtm9vQRAFkCuYLCLZbTioyIcNKpCFS9fKm+98qlagopTGKk5mTh2jowTOX7hc5VhS86/+Q2TAM6e09CVD+X6KfC1Zvl42btsj404fogKXnLqk3NXd3vPC9joWASx8nH766XrDogeeE/BNRL4tw4wQvlwwp+3Xrx9t9jt2ukLWOsy1sVGIABEITwRgkfD+++9LWVmZ/i7EgrZdIySHJ8LsdaQgEKXMtlpGKfBzZHBef/311/VHEzQ3CMkMR3eYBMG3AsfPPffcoAa0cNdFtPXyyy/rw9ddd502P2pPAbF86aWXtEkUVnPghxUOgkugtr5BvlJ+UkmJ3TXJgmA8tfVHtNlgstoPbZS/4q5uf+th+chCANcF7lf4Y4FsGQLTEmiy8MJG8mQKESACRIAIdDwCyCWJ1DxIxYFFbgSvKCgo6PiOdeIeYHESc2IIAlrA5J7S8QgE9PUCzRRMe0CskI17xowZzlXntWvX6hUOV8FqNcgYzIJ8EWN1ZOLEiR6Loy9oE74dI0eO7BCneWj54HuFHEsIzR4u5AoYgzy5CsbTIzmwsPLu6nZti787FwK4LmC2i238+PE6lDvuGdy/n3/+uaxatUrfx4hMGA4a4M41exwtESACnQkBEKr33ntPm3gjrQ4WzLGQTulYBLAAafZ144Jkx86HufWAyFV1dbXs3btXh2ceM2ZMC3MefBQhuIR5VRoNY/Kx2pGaeirRrCc48BHmS1kQGnyQQVsGk7yOushgGoi+YFUegS1oi+xpdnmMCIh+OUydOlU/Q6DJwnMDkQYRIAYLJniWgGghtDuFCBABIkAE2g8BpNr4+OOPtUUOfGnPP//8drcKar/RhldLWJy8+uqrw6vTnaS3XskVPnYMAXGB47khWM3ARxDIkmviMqxuYGXDlVzhA+mss84KKrzw3/joo480ocKKSnsGsnAdCIimEdgCuX7OO+881yL8TQSIgAUC8JlEBFD4Xm3evFkvUuD5AoKF39BwIUCGO99Piyq5iwgQASJABNqAAKyB/p+984CPotr++EknJARCD71IFRQpglKkiAoixQ6C2OvzPZ/P7rOg/vUVO/pUVBSwKwqIDQELICJIUUB6LyEhvW6ySf7nd3dnMzvZTXZnNslucg6fJbszd869853Z2XvuOfdcDFijHwPB3NkLL7xQzakXEQJCoHICVRpXCPvTElMg5E1vXGExX8zLwWiGMdMXPsOQMm6vvDn+78Xcri+++EK1A198eI5qW9A5RGKLw4cPq/DHmp77VdvnL/ULASsEEAaI71CfPn1o165dyrhCOMqaNWtUJs7hw4fX6Dp2Vs5FjhUCQkAIhBoBTN9AkjIkK4Og34dpHxgAExECQqBqAlUaV5WpgKcIo8gwsjwJUnYaJZBzrmDALFmyRNWPBexOPfVUY3W18hmhgEjFjvV90DHExE8RISAE/COA5wtCApHcAutjYV4WBis+//xztR2erOpc9sG/1kppISAEhEDoE0C2459++kn1qzA4jmgCJBmq7oHy0CdX82eAqTmYq6wJ1o6Uwfyavw6earRkXGGuBEaZkdAC4Tv6FOnwJGHUw5iMMFBzrpAlZfHixZSfn09jx45VaZ6D6cuPhVRhXOFBhfBJhFSKCAEh4D8BPDPwAw/POZJd4HuFMEF4rYcMGaKyIwXTd9//M5QjhIAQEAK1SwCD4YhU+vPPP1VDMNUDUziwMLxIcBJARMeWLVtcjWvWrJkYV0FyqSwZV4i9hYcGBgTmPSGUR5MjR46oZBdGCcScKxhtixYtUpnF8OXHRPhg61xhcVSMIGCkHd4ruNRFhIAQME8AiW0mTJigFiNeu3atGtD5/vvvVaggEmLIAIZ5tnKkEBAC9ZMABsDxTF23bp0arIZgwArPVMnUWj/vCTlr6wQsGVf44iE0B3OLsGI31reCUYFFfNevX2+9dR40oEOFFO8wWmClo07UrRekEIcnqzZHXGDswXuFRBswPAcMGFAh6YeH05NNQkAIVEIA3yt4sJA0Bs8YeLCQzerTTz9VgzvGrKWVqJJdQkAICIF6TQCLAf/888+uuVUIsz7rrLPUMzbYBqzr9YWSkw85ApaMK5wtYjyRmhMGzqpVqxQAzMPC/Cd4bn788ceAQrHb7WrEGgIjDi+jIFMhOl+1aVyhTciiiNF0hAVivgjWAhMRAkLAOgF0AjCyivlYCBXEYAvmZWH5A3izJW27dcaiQQgIgbpJAH0oDE7p5+tgHuvAgQNVgjIRISAErBEIY5dwWWUqMK9JK9K+fXvlgfEkNptNjSDjL4wqeJVk5IOU1wqhS/CmXXHFFSqdqYgQEAKBI4Bsphi8wLpYEMz9xDzM2h5cCdwZiiYhIASEgHUCmFcFbz/Sq2uJyDC1A2uDos8mEloEkHvgyy+/dDV69OjRKqRTpPYJVGlc1X4TQ7sF6Ph98sknhKwu8PIFeo2v0KYjrRcCgSOgX+wS3nN4tnr27Bm4CkSTEBACQiAECWABYCzOjnVLMQAOwSAUQgA7d+4sA+EheE3RZDGugvfCiXFVA9cGKeO/+eYbVdPEiRMJqdpFhIAQCDwBZE/CPEfMJYDAuMKoLDIOiggBISAE6hMBJKiAVx/eKkypgCCkum/fviq9ujwXQ/tuQM6BDRs2uE4C1xWeSJHaJ+CzcQUXMtY+wMXUC0Jv9JnwkHHm4MGDHs8M7kpMONcE87QwH8mTIPwQnh5N4P3xFsEIV6iW2x8ZBDVDxpPeKVOmEOZkQZCIA1nHPAkWy0NmMk0w4oMHlCfBzYyFTTXBYqcYUdALOn14uEHvtGnT1Lw0yFdffaUWSPUkgwcPpo4dO6pdSG2/cOFCT8XUtvPOO8+VLQ3XaPny5V7LXnrppa76kc7aW/IRpNrH+mGaIOshFnX1JFhkEJ1YTXCvYP6LJ8HisIjv1gSLQGvz6IzloVNbuBr3ILJEepNx48a5koakpKTQDz/84LEo2IOBJsiUhPk6nqRp06Zu65Rhxfq9e/d6Kqrm2CFluCZYhBFzgTwJEq7oF7zG2k2e1oXDsSNGjHAZ5PixXLp0qSeVahvuWW2hR6Qs1+ZBGg9AMprJkye7NiP2Hj/CnqRFixY0atQo1y6E33nKBIoC/nzH8SzQhzAgKYW2YLmxHf58xy+66CL1g6OlFEZILkZpte+cptuf7zgGRHAdNMEkcGRE9SS4rri+miABD9b38yS4X3DfQHDuYOBNEOqIjIkQLH8BI9Kb6L/juFZayKSxPNIt43ujCdL6IvuiJ/HnO445t/p1B3HPapnIjLr9+Y7jeYTnEgQGNEKuPYk/33EwBVtN8CzAM8GTGL/jqF8z5I3l0XnVe07x7PK2JiR+P7ROkT/fcTxj8az1JMbvOK6rPm2z/hj8fuI7pkll33H8LuunB+A+xP3oSfz5juMZg2cNBN8XfG+8CZ5dWiY7fA/xffQkmHuJ54Em8N7g5UmsfMfR50Dfw5P48x3Hmpj4zYFU9R2/5JJL1HQDiPE7jmcJvFX6+w3POzyX0A/BdAVPYvyO4/cDvyOeBL/h+C3XpLLvODxkmFYCqep3XP8dx+8nfkc9ifE7jt9l/D57Esx9Rx9Jk8q+4+hzoe+lSaC+44ikaNOmjVKL/g76Pd5E/zte2XccfVn0aUWCj0CVw7nooOBLjrA23OjGTrBx4nheXp5Xg8n444qHkTfjSnNda8i8PbyxXxuRwXsYId50Yr/eQMOX3FtZY0cXDypvZdFB0UtVDPAj16tXL3UIGHh7KOsfjGi3t/qhxx8G+rZWxsDtpPgDrr23NmidPu0YGIzeyhrvIdxbxntD06O/DvjB8KYT5fUdc/DwVtbYyca95q2scWQP7fRW1ngO6CB4K4v7SS8oZ7znzDDQ39/Q561+Y4rdyu5v4wTnqu5v/XlVxsDY0cR33NsAiv7+ruo+wPVFZxUDP+h44png6TtmrL8yBsa5kv7c36gb97gn8ec7jvPQpKrnnL6uyr7jRt7V9R3HfWj8fmht9IeBr99x43zfyhhoHVStPZV9x3Hv66Wy+9v4GwYGxntO06X/7lf1rNczCNR33LgYd6C+454YeBtA8ec3zFcGRt7+fMcrY+DpN8zbd9wTA7ebSPehOr7j+C5oyX9wr2MtK2+/C8blLCp7zhl/w3D+xu+Hp/sb27zVj316BpX9jhu/45X9jht/8yv7jhsX4a3sO+6JgfF6awz8+Q3z9TmnOQq83U+yvfYIVGlcwbvjbZS69pod2jXDU9SlSxflnhcRAkKgegjAg4ROkDevTfXUKlqFgBAQAjVDAIY4Br29RZSgFRj81QZza6ZVUosQEAJVGlcIFcBIB1KeG0c5gc/oscDCwt6ydGnhHBp2ZKcxega0fVpok/a5VatWHuvHfr31Dn3e6kdZ/WgHRuS9lTXWj7Aib2V9ZQB+GJ3HaAfc0nCVY5TE6BnQzlm/He32Vj/K6zlWxUDTj7+VMTB65PDZWxtw3fWCETDjqKG2Hyz1AgbGESBtv94AxeiTt/pRXj8CDc+Mt7LGUSx4X72VNY7kVcbAeH8jvMPTdwZtNTJA/d48V/4w0J8bjvN2XkbPlT/3N87Tm17jPQMGRs+Adm2NXm98x72Nauu/49DnrX7o1n/HUQ73F7xH2v0ILxS+38b6sd2bXuN3HPeFt7JGLxeec94GUmr7O25sa2UM/PmOG/Ui3Ms42q/dB/4w0N9LuCe8XYOa+o7jvvB2zxp/Q9BWb89Ef77jvj7njKPalX3HtVA07Zr48zuOY428vX3HwcAbL39+x319zhl/WytjYHzWV8bAeH9X9h03Pme83bNg5uvvOBgivBFGlX6qBp59OGfUqekytrWy3zAjA3z25okx/obhO27cpt0H+vvbn75MoL7jxmdXZb9hxrK4v73ds8bvOBh4+47rf3Or6svo7+/K+jLe+s8ad/lbewR8nnNVe02sWzVjbgtClfCAwbwIY6etbp2tnI0QCA4C+HHEHDxtLg0GNjD5V0QICAEhEAoE8AxDRlRMK8BcaX2HH3N5ML8PcwKlwx0KV1PaWNcJiHFVw1cYngwkL4ArH5NHMZncGDtcw02S6oRAvSAgBla9uMxykkKgzhCAFwQJOzA1A1mH9V4ReE0Q+oyXMWqizgCQExECIUpAjKtauHAnTpwgLM4MwcR7iYeuhYsgVdZLAjCwfvzxR1e2LPFg1cvbQE5aCAQtASSFQMZlGFTwVOk9VAgX69Chg/JSYXDWWzhm0J6cNEwI1BMClRpXcD2/9dZbXrM81RNG1XKaeGjCewWvVffu3b3OyaiWykWpEKjHBOA9RqIeLWMVUmBrKaDrMRY5dSEgBGqBAJ5HmJOEuVCYH2Wco4W5uMjaB6MLL2/zeGuh6VJlEBGAJ/P6669Xi0KL1D4Br8YVEi9gTQR0QkSEgBAQAkJACAgBISAErBOAx6lbt25qId9+/fq51unUNGPgFetKYu1BzBPVpye3XrtoqKsE4NXEWnbGxCR19XyD+by8ZgvE+lZiWAXzpZO2CQEhIASEgBAQAqFAAJ4FLKyNRDpYfNeYWQ9hgOgY43X06NFQOCVpY5ARwLw89N0R7i5SuwS8Glf6kZK2bdvSa6+9VrstraO179u3T6VTRXjgkCFDyJgGtI6etpyWEAgKApjPsHXrVjW3AaJl3AqKxkkjhIAQCFkCCN9DSB+WGcELySj0c6SwH2m2EQaIFzL+nX322SF7vtLw2iNwyy23uAxy8XLW3nXQ1+zVuNIXOu+882jChAnB0eI61gp07pYuXUrJyckqheoFF1wgqVTr2DWW0wluAni2YXkEbSFOhOogvEJECAgBIeAPARhQ8DrBg4DIn/z8fNfhMKywBhWeLXghIYVxvUF/6pKyQkAjMHbsWHrnnXcESBAR8Mm4CqL21rmm4IE7cuRIWrhwIWVlZakFm4cNG1bnzlNOSAgEKwF8B0eMGKFGl9EpWrlyJU2ZMkW8yMF6waRdQiBABOA9wiK8WATYjOB4JMbRjKnjx49XSDiBZDkwptq3b68S58jSK2ZIyzFCILQIiHEVBNcLa1QgHAApordv3+4a2QqCpkkThEC9IAADa/To0fTZZ59RdnY2LVu2jCZPnkxRUVH14vzlJIVAfSMAwwgeayzKe+ONN/ps9CDsSvNOwahCJj+9wBsFQ0p7GbP/1TfOcr5CoD4SEOMqSK460rFra1tg5Pziiy+WhQGD5NpIM+oHAXSKEAK9aNEiQrZUDHaMGTPG505X/aAkZykEQp8ADCtEicCwQjh+Vd4kzaDCHGkkntAv5gsaTZs2dQ2KtmzZUtafCv1bRM5ACFgiIMaVJXyBOxgPd4QmIUQBI+fffvutjJwHDq9oEgI+EUAnCWG6y5cvJ3SkEMaDJSlEhIAQqDsEfv31V5VVDeJt3SjNoNq7d68a+NQbVBEREcozpYX7GTP/1R1SciZCQAiYISDGlRlq1XQMJrvqR85/+OEHOvfcc6scVaum5ohaIVAvCXTp0kWtPYN1ZtatW6fmY2DyuYgQEAKhTwCG1bZt28hut6uTgXFls9nUQr4wqI4cOaIGVjwZVDCm8HzAXwkZDv17Qc5ACFQXATGuqousSb0YOR81ahR99913tH//fpUiGqnwRYSAEKg5AgMHDiQs5ImO1ooVK1SYbqNGjWquAVKTEBACASewYcMGtfSCZlihAnih4MVCYgpjyB/2iUEV8MsgCoVAnScgxlUQXuLOnTsTOndIdIEMghg9D4W1C+B5Q6bDxMTEIKQqTRICvhPQJ7jAhHUkuJg0aZIsk+A7QikpBIKKwMaNG+n33393M6zQQKxFBW+WJppB1bVrVxX6Jx6qoLqM0hghEBIExLgK0svUv39/QlpXJLcIJfn6669p2rRpodRkaasQ8EhAC9NdvHgxpaWl0apVq9R8rKomv3tUJhuFgBCoNQKbNm1SYb56j5WxMQj/RTiwhPwZychnISAE/CUQ7u8BUr7mCCCxRagJRvlDwcsWalylvbVDoHnz5irRDGT37t2uSfC10xqpVQgIAX8JwKiC16oywwo6ESWC0F/xVPlLWMoLASFgJCCeKyORIP0MT9YZZ5wRpK0j+uSTT1SWQxEhUNcIdOvWjVJTU9VcDaRvRqiQzL+qa1dZzqcuEtiyZQutX7/ea0ZA/TnD+Fq6dCmdf/75Ms+5Lt4Mck5CoAYJiHFVg7CtVIU4cLysiq3YRsczkynPlk8xUTGU1LgVxTWIs6rW53U9ykpLqYg7qnaePMzxVRTFoRhRnMSjroZalRYXkS0jmUqZd1hUNMU0aUURAeBt+YI5FaRmFdGBEwVks5dS80bR1Ll1LN8X4tA28j3zzDPp8OHDanQbC4+OHz++zt6zxnOXz3WPADLkYQHcvLy8kDo5LI2Aly/yxx9/EBJYeEu1rteBOZb4fcX8qy+//JIuuOACFR4oIgSEgBAwQ0CMKzPUQvSYzHxOjrFnPWUX5LjO4E82sAZ0PoPaJCZV+1mV8g9XLk8oLuROqkvYwGp4yikU17MnhQXAeKz2k/CjAnteFmXt3kAlOt75zLtR1zMoJrG1H5qqp+jmfdm0cks6FdnLXBW0b96AJgxuQY0byqNBTx0LjZ5zzjm0ZMkSOnr0qFp8tCffsyJCIBQJIIEDvDqhJjCCsFxJVYbP9u3bae3atcpgwne3lAf1IDC0sFg40q43bNhQveLj413vMc8yNjZWkjKF2o0h7RUCQUZAelBBdkGqqzn4cdl9fI8yrJrFN6XTOvShvSf20aG0I7Tz2G61DZ6s6pSiEyeokDumYfzj1qhvX4KxlcfrjRTwivfRrVpRNM9vqSsCD13+8b3KsIqMT6T4jn2o4MR+sp08QvlHd1EU8w5nT1ZtSWYuZ8jalU32kjIa2C2BTklqSMs2pdGRtEL6fX8ODevdRDwzhovTunVr6tOnjwoPRMcN4YGyeGht3cFSr1kCMDDg1QlFwe8YDKeqjCt4twYNGkRNmjRRxpL2wnyquholEYrXU9osBOoqATGu6uqUjgoTAAAgAElEQVSVNZxXQXEhpeWmUzh7irq07MwhYM0ojP+dyEphgyubcgpzqtW4wg96UUoK8RAiRfMPXwyv3VXGCzbaeB2vYl5PCK+6ZFyVMu/inHQV+hjbqjNFJzBvfl+UmUJ2Nrjwio5qVmt3X3JmEWXl2SmBPVT9uyZQ00ZR1LdjPP24NYMOphTQIDa4GkRbD0OttROsporRYcPiojk5OSp7IOZnSGetmmCL2mojoHlyUEGnTp2CPokDQhix0C+kqsQUKONP+GC1QRbFQkAI1FsCYlzVk0uPuVZF9iJ1tgdPHqJknndVUlZKJWzslPLfgqLCaiUBQ6qkoEDVYefEF9m//abel+TnO/6GWOx/VbBKmXepk3dh6mE2qk5QWWmJMi7LmHdpkYNFVXqqa39WXjFf+zKyFZfSD3+kU0R4GOUU2GELUl5hCRXydjGuKtLHyDeyB2JhYayDIyIEQp3A6NGjg379Nizui7XmRISAEBACoUBAjKtQuEoBaCMMKMyswQtGFj47tpWpOHT9SGYAqquoAjHvWtw7G1qlhU5jjt9DYHxpgpA69PJD2SMAA8pBm/938sY2po3Af2Vg6QWJL2BwIdlFWETFryWYhPF8g0AJwgEhbF8pYwoezcIiR5tK+A830U0QRoiy8HAZpdRZGDrqg7Rlr+vUqVODfrS/PlwLOUchIASEgBAQAsFGoGIvLthaKO0JCIHI8EjVgY4IC6dT2/VSCSxyODTtxx1rqIi9LJj4i88bD2ymrPxsapHQgs7sOoA9GoEJDYNhoCWsiOG5K/E85wo9+CxOk1vEiyWHsUfAlpxMOTzJGoZXOM/LiuvVixp07BiSRlYY8w5j1mwRUVyHXiqBBUIBM7f/zB4tG29254qMgnmHtlHjHkMoqlEiFSTvp9ISNmjY6CpMOaC8XpENG6tkGFFxjd3uiUKex5V3eIfylMV36M1hiJ2qvGeQERC2UOO4SJpyVkuKj42kLTzX6pvfTlJURBhnfyw3lGA8rfw9XXm5pp6TxMZ5Ka3YnE5dkmJpw+5sOsbztGAI9+4QR6NPb0YN6kG2QVkLp8pbTAqEGAGE2yHc1aogYURRkSNKwoouJJ3QQgGxfqIm0J2RkeGzar0enw/yUFBLguFhV61t+vDDD2nfvn2W60cmVAwaIWGIFUF2RiwZYzWz8Z49e1RSESzsbEWQrOTaa6+VpTOsQJRjTREQ48oUttA7qAEnq4iNjqXMvEzK4FdSk9aUwdkD4cWKioyiuJg4ioyIoo7NO3Cii/2c6MDuUwpbn0kglTwv0Eg878rO6azLOJkFXiX4MeeOeSTvi+CJx415Tks4Z3DK5mxWBTy3JSYpicL4RzbUJJx5hzNvO7Muzs2gaE7BjuyBMIDCmTM8VPBe2dKPc7ikezrkMmZfzPPjYpq3VwZow6QuVFKYS1m71quEGEbjCroatOxI+ZyYRIUe+iCJ8VHKiMrOt1M6e6ViYyLo6MlC5bFKYIMrNjpcebS2H85V5RBCqEkmz9UqKCrheXtRNLhHY2rXrKVKjrFxTzYbWPHUqWWsDy2QIkJACAQLAUQvIMwVc5uCRaI4y18xG3yQ008/nW677Tb1fvXq1XTJJZf43Ey9Hp8P8lIQoYljx471srdmN+dzSD086INO601NGsebr5yf7ct/Xk99e3SlVi0sGDP8E/Hd6l9p5U+/UFLHXubbw0fu+WM1JbZoRy3bdrakZ9v6FSrx0JQpUyzpkYOFgL8ExLjyl1iIlkcmwNa8phWMqz2cJRBGVTLPAyrhzngSd/wbNYhn4yqS2jVtS4fTjgb8LOHZgMeqkH+8i9PTKWfzZg6Xs1MJj0jCmIpu2ZIiExJUvZiHhTC4iDgOkeMf2FAUGFcOgyqTvVD7+FyL1bwrdkdRFPOOZN6FKYco9+A2LteSDaxclzFbwmtilbKBFdkwgSKiG6jTh2HGVigboBV/RKM4GyG8ZAXJe31G1aZpDLVsEk1HTtqUFyqJP/95JI89lUQ92jbkmoiWb+bsgWxwdWoVS8fSbdSysSO74XF+D+MMIYLNEqKV4QVvVmxMOMU3CIyn0+cTkYJCQAhYJqCte/XE8/+ijl2tdWivnngFzbjpWho74QJL7brxkun0LBtUo9kTksHG325n+PEgXgJh0xtv+Kx72B130D9nzKCJZ5/t8zGeCl7xxBMqmU2wiJbY49VH/0btk1paalars6fQiw/dQb27drSkp/3o6XTl316gTj0HWdLzyPTeNP7qh6hn/1GW9Lx8z/ku76clRXKwEPCTQGj2XP08SSkO51AYdU86hRMVFHJCi8PKwEK2wFaNW1Lf9qcqw6q6JYpTrcf37k15O3aoLIEQGFaNOL21y7DixBbZmzYpowplQ3XtK/BumNSVw/oKCQktYGDBOIpu3ILDBHvzifOClTlp7MHidVY69VUerPwjOxST4txMiohpyKnaHR477Ms58AfFsneqQfN2ZGMjLXffFjV/rlHn0znksJU6zh+Bp2oMh/B9u/EkJWcU0QnOHhgdGUaDujemU9n7lGcr4e026tEujkb2TaT8tSUqbTsMqaMcBti9DRu+fI52nqC1ensm7TqaT2PPaErN2diqL4IOKda8OsFLDPiyUGlVXBBKg9CcljzQICIEaoNAi1a8SG9L3xbprax9iU0Trevh50sbDgtrw78bYcgUyBEPkBgOIW/DIWO+Cp5TSbxQPfRYkXiOrBARAkJACPhCoPp71L60QsrUCIHoyGga2KW/MqaQmj2GPyNUUBN4sfJsecqbBcH7ePawBGzeFf/IxXbuTA145fsSZAfkz8o75YzzdmUR5M/xp56q2oBOa6gmtsA6Vgk8Ryq+w6kqWUUY846IcfBW58XhgQgBhFerlLM1wlhCqCCMrhj2bkEKUg4q71aDZm2UYVXKZaPimqi5VxB4txBqCG+XSkzifA/jrCqBt2rmmDY8x86uFhJGWnZtvlQkz6+KinSEBhZwogsku4h0hhEW2EqV1wtzsFZsSaO9xwtoRJ9E5c2CByuaj6sPksWdva+++iqgp/obZ9GcOXOmJMsIKFVRJgSEgBAQAkKg5giIcVVzrIOmJoQIelowOJfn9fzECS4KOcEFBO+H9zibmnBnPpACb5TmqdLrRbgg5mNBMjmuHnO0mnAoB+ZihbLAyDIuGAyDsQHPqUKoYMbWn5SnClKGFO6cxCIynpmzsQSvFbINFpw4oF4NOFlFQpd+ygOmST57xXL3/64+5h/ZSXae49Wkl28hMGhHk7iKGQDjOLyvb6d4WsXrXiEMEFOuEuMjlTcrPjZCvdJzimlfcoGam/X1hpPK+Jo4uAV1bxvnaltdfnOS12YLtCBrJybri/cq0GRFnxAQAkJACAiBmiEgxlXNcA6JWhpzNrqL+o+vtbbGdupEeNUXQVbApqePVt4rLQSwiL1WmEMVznOtMI+qSc8hVeJo2LoL4RVIgdE1qFtjtbAw3iO7IDxjv3HSilOSOGSRtyEE8C8TOgSy2pDVNWbMGGrTpo3p9u/cuZN+5SQukECEGJpuiBwoBISAEBACQkAIWCIgxpUlfDV/8N333EMvvfQid26thV4VI7yMswRaETtn+9NSUt//wAOUxJn9IAnscapq3Sx0INFBL9Lp8LctqKMdz1H5kzumSP9bW5KZmUm9evZgj0Om6RDGQFwP6Ijg0EMrUsJJRsLZs2glFBPX9rFHH6UHH3zASlNC6thY9q7iZVasHGu2TjlOCAgBISAEhIAQCDwBMa4Cz7RaNW7c+BtdNv1KGn2B+XSw9932dxpw1pl0+Yypptt6xzU30+0TptDU0aOVjp3cIXcEE3I61meeIV9Mv7Nvv52evukmOofT7JqRYl54eMRf/6rCqFq18j+pg5k6PR1znNfpSkk9SWs+mO1pt0/bPvhyJb298CtaNvcZn8p7KjT73c9p6ZqtdOOj73na7dO2Lxc8RRknDtP0u1/1qbynQmu/XUAbN2/xtEu2CQEhIATqPAGkbH/vvfdo3LhxdOWVV1Y437lz59JPP/1EN9xwAw0bNsxtfwn/rj311FN04MABeuihh6hLl8BGJVRojGwQAkIg4ATEuAo40upX2CqpNbXt0M50RbGcoa8pZ3OyogMLKrbhDExdnKFQ+9PSyMY/CpAu7MGCV6oqieasT+1btHDpqKq8cb/dWZ9xe218jottQF3amw8La9OiKTVgplZ0tGjamGJi46h5kvlUynEcqliYm2VJR5Nm7MEstL6wZW1cx2qpE5nOOKMg4X5FxjKs9yYiBIRA9RNgL3pAxA89W7dupYsuukgtpDx//ny1EK5+baxPP/2Urr/+etUsvN+2bRt17FieAv2xxx6jJ598Uu1fvny5WiS40kV5OQkSh4pYP008nwKhx3pLRIMQCHkCYlyF/CWUExACQiAoCcCg4pFpWrmS0z4WcPp99uc+/zwRr7sjIgSCkUBUfgFF5+Q6muY0KMJchoXTUNHsFW2/diI6AyS8sNC6HtZXymHjYfwi52LCqio2AMJYv/qLQTzUq9Wt++tqN2/DmopKj76c9t5XPT4aHvv371eGlSa7du1yM64wv1KTPM6ae+TIETfjagcvVaIJFnUu4GdHfHzF9Q21MhEZ2RwObi3EX+lKz6KIkxmuus28CeOct5H5udRArcuoE929EVbB3i3fUH6vcSbcwjyKyc/x3owqBnA5H2/59fauRfYIgWohEBLG1bfffkvr1693m+jdmVN6X3bZZQQPijc5xmsp3XffferVh9dSCibBQ/Uenj+FlcODZcX3YOIjbRECIU8AHitkFOzVi4g7XNo6PSF/XnICdZZAg4wsahiX7jw/R6fXFYNgMGDKO8LOEroOdBQbaA3TuKPu2qbT5Yce4t/JiJwcitBFKYTx+0je5hKDPs3YUq3ifWqJCl6sHnqUoLzzGH1n3s3w0pXT9IT5aFzh93z8+PFqmYaBAwfStGnTXE3FG4QCvv/++7R9+3a64ooraPDgwW77//nPf/J4zEpK5+y5jz/+eKWGFQ4MT8/mcRvri7eHsZEWnpbp1ha/P3Ba2bjsk9Q4PVl3qLs15c7cWIOzLHvjGuZkUEIGD1BpUqUxZdTFbJzLylTcI1uEQPUSCHrjCkkL8JBat24dTZw40TXRvlI3uZMZRo/gUs/Pz69eiia047yw2juSIYgIASFQBwnwem60di0Rh8zyw4v4IVYHT1JOqS4RiOGlMGLjytfIK/cyaJ1eLx1lbbPTaIlhD1gsGweamNIDXTCu+Pdbeag4jBwC4ypC80IZDTUU8GRssfcHetyMKpTz4vnSDCpVoabPR+OqQYMGtGTJEkpOTlZLKmhJn5QuFswP3rRpE6WmpqokUOHOdR61/afzHGR4rHLYGGzdurW22evf8Ez2XBl0eC1cyY7wLDZi2XtlRcLYKIrLdjeK4M1yicbSucHN0FLbHGVxv8TmZlJCls64MjRMeaYqlTA2rgIQLllpHbJTCHgmEPTGFZqNB+upvKgsPFBGo+rw4cPKSGnE8xi+++47ntLQnCZPnkxNmpSvzYTFPt98800eOM6iCRMmUI8ePRSNXB7NQkzzn3/+qR54iJNuwXOAIPCUNeS5SdC9ZcsWGjRoEI0aNcpVP5IofPnll8ql37dvXzr33HOVF83O4Qc//vijSquMB+OkSZN4flNTV32LFy8meNTOOussNaImIgSEgBAQAkIgGAjE5ORRA+6sQ/RhdZ7a5jVckAsjvNCyHv59LINRhBeMB51xFY4wW93vZ4W26gwn/M5qeioYXjixyvRoJ85lKhoCnqg4tqGf0pYz2XoTZLetbH9cXBzh5YtE8DWLCIDnKhwewsxKwvB8aQxzasjLiTTWe5z0fI0xgZ7Yox7e3kB5rlJVrWVVeK2ch1RoYTgvcyIiBGqDQEgYVwADowXGEUZ51Lo7bMhghGjNmjUqvA6jPQMGDKBFixbRal6AFsYUBKM/Dz/8MI0YMUKNJMEd//HHHxPCCufMmUN//PEHderUib744gt699131X4YWLNnz6YNGzYolz1Gn2677TaaNWsWTZ06VXnDrr76amrcuLEyuj744ANVFwysBx98kFatWqVC/aATGYMwqTUhIYFuvfVWlQFo5MiR9MgjjxBisUWqlwBGAG/ijISIWcc9oTe6kZXpH//4B23cuJGefvppGjp0qFtjPvnkE3rxxReVQQ7D3kp68uo9S9EuBISAELBOoAGH88U2cIbau8b+yr0JjhqcO5x/yv0H5YOFkewlis2CkcbbTOpRRhHPrcL8rTD9Uhu8PRwhtywew/r0GJxGkabHtUvXqfdVj94I01dR2+/Ds3MpvKwqL07VrQzLYj0NrRlXuB4I52uUlaIqrGCQ6o0pvUcLhQ37YvOyWY/DuDK23qfT5ULwpIkIgdogEBLGFR6y8PggdSkEnVzMt0KHGIJsPC+99JJKWQqj5t5773Vjeeedd6p0qPA2IcYZnemuXbvSXXfd5SoHw+2qq66iX375RXmwIPAuvfrqqxQZGalGkeDlwvEwlmBwLViwwG10CUYdwhdhbEE/5lXNmDGDvvnmG2XMwZiCsXXKKafQ77//TpdeeqlbO+VD4AnACIYnEQID65133nFVgmsL4wmCGHnEuGueUXgkYUjDAIMB369fP7rgggtcx8obISAEhEBdIxCdl88Dl7yAuavj625IaedbodPs3KE5JqILiyiGO/1W9RAbUeEcAugWOsf9gQgkuEBnHC8ttA9t0D7zW83cUEYaTxGAHr2oc9CHBVahx9s51/Y9EJ6dx+Fv1lsRxtceoYGWhI2Z2Ox0SojVQkvLDe4K/HTGlKPO8rK4jrF5mdQo00fPlRfbEiGkIkKgNgiEhHEFY+qSSy5RniZjWCCgteF04Fo4X2JiIn8vy7+k6FDDsIEgzA8vbQ4WjKUnnnhCGT2oIzs7my6++GJVFp+7d+/uWpwW+pFiFXOlkDoVHi2j237v3r0qxBCGn/ZjcPToURU2iDZBB9oKad++PXVij5lI9RLQ3y8wkvWi34f3es8U3us/G4+t3laLdiEgBIRAzROI5nC+mBhHtkBXBJeuz4sWlXeSDTt0zY20FVJMnkU9/JtZikXNkelP9+xGYgls0xtSqmou76WPTWUw0KBHnQD/r+/Ya0aW1v5K9OhOMWjehueyUcSJJCwLjDTntTerC/dGHIyiLCxmb2iT1/sItbnvhJ4YXhIEyTE8Cq5hJaJpk4QWlUCSXdVKICSMK38J6I0rYydZ03WC0yTDsIInCtl7EHaI98ZjjXVDH8IRYaDB0NKPqGHiau/evemFF15wZfhBeXjW4L1CHfCEQPC+2DCSZqxLPlsnAO/i7bxYMYzs55EGWyc333yzmjgMTybuBf21RDz8woULVXgowgIR8ikiBPwigEQWHHZKSK2MFyZXs4ed45IdKdpnzvRLnRQWAtVNYM+JZIo2JoBy9lQr9Gdd/eGKHfvD6Rm07+hx9+b6qaeUO9i7OdvmDv6tTsccamdyh3z2Qv2JZQ70DdIbSzrjCV3wEv7e7eGoBOhxHaMZVB4MK1ejDXrSOBIlmEQbHHxgyx/U3DkfzUz7NKfX//25mzocPGJGhToGlzefPVdP791OA3kheqPBpFdsnHrlXikb1Xxd5h3aSetPHnXortyW4jKeC+zPTFeRRyJCoKYJ1Nu7rpDjuG0ccoDkFphcigQUmzdvVskwKhM80IYPH67Cy6699lrqxN4n6IKhhHlfMLoQUoZEFhDM+YIRhoQcyA6ELEGY/4X69OtZVFan7DNPAJ7Czz//3KMCGFNaaKmnAshOiZeIEDBFAGvdcDIcfrCUH75nD/GkTeIYU1Mq5SAhUB0EMAjYmyM1Zvy6wbJ6PFef27NXvaxIJLfpSR74wgu/rbc5E1H9ynOnp86d67PqCNbzIked4GVF0Env1q2bFRUBPRaRM//5z39oz+7dZDX47TxO3JXE2U1LYFBakJvemUclkZx8pBAZmsuN7gpaq6jn7JhoajbufIpwJgMz26S/cqIzzHEXEQI1TSAkjCt4kz788EOVIEITrFulJZIwAw2eCXgjZvLocbt27ZQ3CpkGfRGsW4FEGDCSoAeL/D3zzDNK3/3336/mfMETAoFhBe/HkCFD1JwuvNDhR0IOZCgUEQJCoI4S4DTLPJpSR09OTqsuEYBxtZW9q/i9sirQpY8AMatPrweJoFasWKFUobP83//+12e1gWyPMW26z42opoJI5hVUwlM3RISAEOBFsIMdAh5mSDqgJR4wtheJKvDSBB4iJKWAdGKvEpIRaAKDBtkENXnyySdVJjkknkACCniwNJk3b57rPd4g0x9eEISYwWDCYn/wRqEebQV1zLeCtwPzr2CwdeDRIM0tjQQaMK6QWAPJN/T1uVUmH4SAEBACQkAI1CABGCGe5jTXYBO8VqVvF/oEwdpOrycgO4SAEKhXBILeuKruqwHjx6zA8+TJ+wQjDnOvPIm3YzyVlW1CQAgIASEgBISAEBACQkAIhA6Bem9chc6lKm9pelo6pZ5wrCNhpv2YI5bFKVet6CgqKqZUTl9/lCccQ4p14STYFl5FTLU6hpN6nGAvnqbD33PB8cEiBYU2OnrCS2YjHxqZmp5FNp6jY0VHBi8AWWwroMyTx3yo0XORwrwcshXkWdKRk3WSYp1L5Xiupe5tXbp0qUpcY1bSkPxCRAgIASEgBISAEAh5AmJchdglPK3vaSpEcv7rvk/oNZ4iwiq+XvQFfbN4qXGXz58RlvEsZz17jhfahWBRZC3N/BBecFnLiuhNIWLyo3iC8F3/+59bynNv5T1th442nEFKvzCwp3LVva01twFhof2n3GjpXCIjI2jAxTeZbi54RERE0n9uH25JRxjfH1Z1zJr1uOk2hMqBWiiw1t5AGUhGvaHCQ9opBISAEBACQkAIhMCcK7lI7gSQ5h2vYJOP2dDKzMxUzYJnrD7FxGNttQznuQfbdZH2VB8BLCR+2mmnUTJnLwvEBH58Z7D+nXH9vOo7A9EsBEit3xjs6ar3798vl0oICAEhEDIExHMVMpdKGioEhEAwEYAHGFlARYRAqBHQZ9DDsiChJMGWsS+U2ElbhYAQqBkCYlzVDGfLtSD7YCNesyFYRfNaBWv7pF1CQAgIASGAdXTDVBbbg7y2USiKlSRUoXi+0mYhIARCj4AYV0F8zfAjqEk6rzC/cuXKIG5tedP07Q6JBksjhYAQEAL1iMCYMWN4bevNlJubGzJnDY8VQnF79uwZMm2WhgoBIVA/CYhxFcTXHYkSkNbdZrMFcSvdm4ZRRQnbCJnLJQ0VAkKgHhLAHKuBAwfWwzOXUxYCQkAIVD8BMa6qn7HpGhISEtSCxJjMW6pLdW5aYTUfiEWTZVSxmiGLeiEgBISAEBACQkAICIGgJSDGVdBeGkfDkIkOLxEhIASEgBAQAkJACAgBISAEgpuAGFfBfX2kdUJACAgBISAEhIAQqEAgIyODTpw4UWG7vxuio6OpiBextyqYG960aVOraqigoEBF61hdlgJrBrZr185ye0SBEPCXgBhX/hKT8kJACAgBISAE6hiBv/zlL7RlyxbLZ3Xs+DFq0aIFLxIfZUlXakoKJTZpQlFRFvWkplJjDrGP5vnLVgQd/Rdnz6bu3btbUROwY4uLi6lt2zZsiBRa1hkREU4lJaWW9QRKQQTfOyX24oCoW7FiBY0ePTogukSJEPCVgBhXvpKSckJACAgBISAE6iABeAleeeUVmnTFxZTEHXbTUka0+vnV1LJtEvUZ2M+0Ghw4d/br1Pfss+mMbt0s6XlywwYa078/ndWrlyU9//3wQ1q1alXQGFfw7sCwWvvRK9Q+qaWlc2s34jJaNvcZ6n1KR0t6Oo+9mmbe9yZ16mktWcpj15xO0+9+iXr2t2YUvXzvOEphI11ECNQ0ATGuapq41CcEhIAQEAJCIAgJjJt0IXXs0tlSy157/mU68+zBNG7yBEt63n55Dl0yYgSNZsPIijz93ns0kY20ScOGWVFDC9mwKitj6zHIJIozP+JlVaKirOsJCwunCG4LPE9WBIvQRERGW9YTERFhpRlyrBAwTSDc9JFyoBAQAkJACAgBISAEhIAQEAJCQAi4CIhxJTeDEBACQkAICAEhIASEgBAQAkIgAASs+5ID0AhR4TuBjz/+mD744AMq439mBTHIWEML61KZleTjydSiWTOKtjDZ+MixY5TUqhVZcd23bd+eXnzpJQoLQyBB7QiyLN1+262UnpZmugFFPHn3ZGoatUlqbVpHQWEBZWTlUouWrUzryMvPo8L8AmrWvLlpHWHh4XTzDdfR+PHjTeuQA4WAEBACQkAICAEhEIoExLgKsav2+pzXKa+okPoNOMN0y5ctW0ZdunejYSOHm9ax9IulNLpfPxp8+ummdMA0/GzxYrpi1Cjq09lcjL+9pIRmvfwy/fPhh6llS2sTek2dhPOgffv20ZtvzaXH/3YdmTXxflq/hTZs2EyP/mWm6aZ8+eMvtGnHQRp75V2mdfy55VPKyUylkZNvNa/jt5X09rwFYlyZJigHCgEhIASEgBAQAqFKQIyrELtymFB79oihdN5F40y3/MvPllDf0/vQ5CsvMa3jo3nvqQxM11rwTvzfggVqovG5A81lFlLG1bx5tT7JGNekUVxDuvmKi0zzjIqMoM079tJNFnSczMyivak2Gjr+WtPtOH7wT0o7fsCSjtISO5UV7jPdhrp0oN1uo7S0XZSdfZhTSjek1q37sce4SV06RTkXISAEDARSOf37mjVraMCAAdSeoyuMggG5P/74g8455xxqwunmjbJp0yY6evQonX/++ZZT0Rt1y2chIASqn4AYV9XPWGoQAkKgHhLYuXMJLVlyA+Xnn+Szh682jBo2bE5jxjxNZ5xxLYeyypTXenhbyCnXcQIwrIZxZsJdu3ZRKw57X716NZ1yyimus26b9PsAACAASURBVP79999p5MiRhAWAzzjjDPrhhx9UmL4mixYtoksvvZTXnSqhiy++mD799NNaDXuv45dLTk8IVAuBGjOu8KBYuHAh7dy5s8KJYL7M2LFjafDgwRX2BWoD6p8/fz699dZbaqRo6dKlgVIteoSAEBACFQgUFmZR8+a9qHfvSyk2NpHDPl+nw4fX8Fo5/0cdOgzlfT0rHCMbhEBtEigrY69zSZGjCa4YZ8f8Xtc8X2c68jBXELQ2/7d8HnBJSTGVltjcTkVTZ9RTHktdUY9DgfMIrtfxzvmZFZaVlTq3Qbtjv1ZGHeuWOt2THue5ufSog1Q0hF4P3pdyGV/k559/VoYV5MSJE/TNN98QFmjWBMYTDCsIPFRYuHn48PIQffRT0F+BfPbZZ5STk+NmfLkUOd8UFudQQZG1BZKhyqb0ZBnV+/+Z7yEqwz1Ufj+4v8cu/T5UYfyMTZqeqoLtq9rv/ynIEULAKoEaM67Q0HCe6B7JayDgwfEhL8jXmefanM1hYTCuqjshwf79+9UiiQ899BANHTrUKjc5XggIASFQKYFTT72M+vadys89x2M2JqYxDzBNo8LCTMrNPSHGVaX0ZGdtECiz57BRxB1sV+fX0OnVPoY5DRVDp1g7rLQkj0rsmS49Yc5y2lEV+9LuhpX6xMpyi7MpvyxHoXAYUuz/hVEFBTCAnIeVcXvUVv6DutRmtNFZ1sbtySuGQYMyMMiURmdJbCvf4ijj1KfKOcqXljkMHrWpEkEoYOvWrSk5OZkaNWrkZjjhsDFjxtDTTz/Nz4FC1Qfq3bu3m7YJEybQ559/rrbB6IKOyqSgKJPybNa94DCs8mxxlVXlwz5mZU+jsuJjhrLOC+Xaqvvs0dBiY7Y4nfWcqFhnlbZUeYEy8u2aVaxEtggBawRqzLhCRji4uiF4qKxbt049OO69914ezT1MBw8eVKM4K1asUMZP3759afny5fTnn38q1/pFF11ELVq0UMevX7+ew2saqmMw6jNo0CAaxYkRUIfdblc6fvvtN+68NFcxy40bN1ajR3l5eWokae/evSoBwvHjxzlsZwllZWXRCF6s8Mwzz1QGoNaeuLg4V3tgFKJOHIs2IVZ6IM8Vgkt/A68AD68btuF4yI4dO1SdWPn+ggsucD1APek+66yz1DEiQkAI1B0CkZHl2TjRoUtN3cbPp0L2nHfkV6e6c6JyJnWGQKk9lzu08F44jQ1XFlbHZ2XDKHG+cfZjNePE1a0tKaDSIocxoyutHawMIzc95Xtc22H6FJXmU2EZtwmKlfJyQ0i1AcaTZmSpMrwNn7Wy6pAyspXksnHFnXU2lBzi0IM6XOeK41yfne+Ut8rxvtTHjnq7du1UKODXX3+t+hWnnXaas07HH/RvfvrpJ9UHmjx5MjXjrLt6ue666ygpKYkOHDhAM2bMqHLgOc+WQbmFvnnV3CoyfMi38aBPYXRlRXzYx6zsJ/keOm4o67pxeLv+PYp52sd6StOJSpJ5f7mx5LkB3veH+eht9KxXtgoB8wRqzLiqrImY+Hn33XdTnz59aMiQIVRcXExz5sxREz47depEX3zxBb377rv0/vvvKwNr9uzZLoMGRtJtt91Gs2bNoqlTp9JLnJb7PV6R/cILL1QGDuKbsR8GGVzx33//vTLAYHDhwdWtWzcO0elAM2fOpDvvvJNuvfVWNRFV3x6k2n711Vfp119/JRhCGEm6+uqrlVGHBzsehLfccgs999xzql64/eEhg8EHj9xll12m9sHQM+rW3P+V8ZF95gngXsK1i4+Pp2uvxTwX9wcxfgBhoN9www3KGNcLDOmPPvqIRo8ere5LESFghgAMqy1b5vN3/z8UE9OIB2EeVQaWiBAIOgJszFBpnmpWeZfX+U4ZH+WiPUpdW3mntr+kJJ89D44Qswp6Kpy0XisqdnzGb2sB6ymkfO5ea/4ors1pODna6H6saovesFKGkWZcOZbKcLSX/1f1aJ/YONHqdR6jzsZ5zjDKfPVcoV1du3Z1CwU0njL6Dnh5k3HjfE9Yla88V9Y9NAV8vfJsFruE4FUCz5XeuDJcX9dd4riC7gzKr30Ye1DD7CkVERl+wz0U0G2yzqWiftkiBKomYPGbVHUFvpaAsQPDqHv37uoQjPhoAs/SVVddRb/88ovyYEFg5KDTDI8SPEzwcl1++eXKY4Wyd93lno4aMc+7d++mf/3rX9SxY0d65JFH1CTTuXPnKo8UJpaifowkQfTtgQGEuVqYpPraa6+p/Wm8phE8cDDkoqOjyWazKcMNYY4o8+CDD6p2QF7mdOHvvPOOMrYgxnNVG0WqhQAM6zfffFPphqcSRq8mX331FSEEAz+yWD8M945mfOGegycSGZtiY2PVKCO8qSJCwB8CpaV2Wrv2efrxx8f5ORFH48bNJoQLigiBoCRQxvOkSgucJoe+hY5Or9s8K9gero4yLBpdJ5rn3JSyt6h8v6bLWcZV1Njx1pcro2KyUXG4zWEIOcfFoFM5qJz1lXGwiCsUULWC9+tag8+F3JZ8e4bSo3mv1PHqM9rg0qYzuhxtw+AIxB/jSjuLmvhbwJ6rvELnPDkLFRbY2LgqtKDAQYmIPVdk180Bq3CJ9RuMO7XPfD1KOKy0xINxVaGJ7gOmbrsxb0tECNQCgaAxrpCuFOF/msBYeuKJJ9TEUHR4s7OzVeYcCD7DCINRA4E3a+vWrSosEJ6jBx54QIXrweNwxRVXKM+SXhCqh8QaGDmCYQWB6x4eKoQNQoztQZ3wcsGYw/GoE4vw6ttwjBfFhdG1Z88eeuqpp+j5559XutB2tCE3N9ejbrVRpFoIwGDSRP8e2zZv3uz8IXW8hxGN6wtBvDwMK0hBQYEKBRXjSuEQ8ZFAcXG+Mqp++eUF9na3oYkT3+Q5FqN9PFqKCYFaIIBEBGWFFQKxtO6rZoJoLdO2G7u3ZaU2QohhBUVO71D5mRk719oeR02FHF5YFIbEGDCYHCYUPFcO5wXKOLaVtw/Hu+vEPoQF5haz58ronVKfNfPKGVrnNLhcRpfzmNIg7ajnc/hlns2yVcTJLOABs2qMME8150o/B8zbNQZ6b4YW9HBYqSfPVfnN4+Vd+d0oc668IJLN1U4gaIwrzFXS5ivBwIFhBcMI4VoI48N7La4bVIzhXRqpadOmKaNq5cqVKtMOwrqQpVAvOBZGETxPMJRQLwwrSFRUlPqrb492rLFO42ftOGQjvO+++9xirWHEaetZeNKt1SF/A0vg3//+N02aNEl5Nx999FE35TfeeKO6PxB+irBNzbBCIRjvd9xxhwpBPe+881we08C2TrTVZQLbty9kr9Vz/Iwp4edVBD+THubTfZjvswbsxZ7F4cjD6vLpy7mFIIGwsmIKJ62D7d4pxid0W42GVPlplpcv5fXdytgD5hBtu7dOtnO7cTd3vIu5PSVhxc5QQB1QNILLK/OK31c4VG1nw8tpKNnY0MtXc65wHI7CO+0vNpXPrVLbXUaXQzP2+zrnStfKGnnrmCvF4ZwWBeGFuYXuGR79V8nsSjDnyvM9VPFK6WowGFplpey5qtK48n43Ks0+JiHx/zzlCCFQOYGgMa70zYTRgzC7Hj16KCMIc53gZdBC9rydEgwlGGaYhwUjC96oa665hlJS3F3L8HAhAQUy8tx8881qrs2XX36p/rZt21Z1ts0KsgQh3hohjBMnTuQ5FjHKOIRHSzMezeqW4/wngBT/8Bx6MmjhfcR9hXlZmgdSqwE/zAgTfeaZZyrs878VckR9JFDCKa0dnbZSnu+5R70gUVFx7A3lydoiQiDICISHlbLxhHkqDqNCG0BEv1cZVq6+LPY7P2iWjVs/t1iFFxo7046APZy0dpCzHo2DczP+4FVcysZVuJZuHYWcVpVWl2qGc5tOq6NpMJgcBpYjoUUU63TMrXJUozOynB17V8igm3HlMMWCNSxw89ZkSkw035XTbJrft6dQSppjcFm7HP7+LeK5X3t3HCZ7Idb2M4p2zbXtxs/l5ctKy+jw3iPUINIx/8+1p/wGNCrXfS6/EbMyHdFClRSWXUKgWgiY/0ZWS3McSmHgnHvuuSrJBDLvIPzOmGzAU/UwYu655x5l2GipUDGnBl6Ibdu2uR0yffp0leQCmXuQoALHYg6Xp9XSPdXlbRs8VI8//jjdfvvtyrhDu2FYIZkC2iZS8wT0Hilj7ZoX07hd+2w0uryVk+1CwEigf//rCS8RIRDsBLTn4AP3fcy/h7E+NNfNknKV16JL3luwmb75ardOj+fylVUEXbPfWE0fLtrqoZiuY67vo3vofNs53Hvuh4do8XepbnrKHSXeO/n6A5JP5FeZFt1DQ6ttE5I0nXnmAPr6O0ydMJ+4AZzj4hrQih/sPAhpPusg9DRpEkarf0yjX9d6ut6+cdaAbVyfRX9sNhhXftJsmthMJUoTEQI1TaBWjCsYS8gAqMmVV15JeGmCzvCTTz5JN910k0qfDk+QvpM7b948N07I8IcXBFkFMfcJ3ioYWHhBML8Ki/tp0rRpU1qwYAEdOnRILdKH5BbwMkGM7YGnS18nvCAvvPCCSxfe6EPO4HFbtmyZSumOeVZIoIEHoSfdbkrkgxAQAkJACAiBGiYA4wqDksiQalUyMzPVordWIzWQVAi/m/j9tSL4fUefQwv5N6sLA6eYchAsAr7r1m0IluZIO4SAENARqBXjytcrgBTpZqRNmzaEly9ito6qdOPBB6NKRAgIASEgBIRAsBNAxly8RISAEBACQsAaAevLelurX44WAkJACAgBISAEhIAQEAJCQAjUCQJB7bmqE4QDfBKYHzbnxf/Rog/dMyD6U82RQ4dp0cef07rVv/hzmFvZzIxMepoXdX6HU+abEcRn2ziRxJ3/+x814+yKZgSx9BAtnb4ZHYE4BqErOXn5NGL6371msayqnuMcxpqVk0fnzHBfn62q4/T7Dx07TvkFhfTKvRf4c5hb2RPHDlJxkc2SjtTkI3QVJ5QREQJCQAgIASEgBIRAfSMgxlWIXfE35ryhMtxZkfz8fDW/zEosO+bCYXFdK3H1mI+mzUUzez5YGw0GZ20K1kRDcpT0dPMZ4JDpEutpIWW8WcE6XciyacXYROZEJHfBtTUrmL8xYMAAs4fLcUJACAgBISAEhIAQCFkCYlyF2KVDmnmsuyQSXAQGDhwYXA2S1ggBISAEhIAQEAJCQAjUOAGZc1XjyKVCISAEhIAQEAJCQAgIASEgBOoiATGu6uJVlXMSAkJACAgBISAEhIAQEAJCoMYJiHFV48ilQiEgBISAEBACQkAICAEhIATqIgExruriVZVzEgJCQAgIASEgBISAEBACQqDGCYhxVePIpUIhIASEgBAQAkJACAgBISAE6iIBMa7q4lWVcxICQkAICAEhIASEgBAQAkKgxgmIcVXjyKVCISAEhIAQEAJCQAgIASEgBOoiAVnnqi5eVTknISAEhIAQEAJ+EPjmm29o586dfhzhuWhycjJhPUYrC8xD84kTJ6hZs2YUGWmtm5KSkkJNmjSh6Ohozw32cSsWZ7/iiisoISHBxyOqt1hZWRlNvGgC7dq1y3JFWVlZ6rywALwVyStpQHnZ6RQV3cCKGsrNOkmJiU2oQQNrehLi4+mjjz6g7t27W2qPHCwE/CVg7anlb21SXggIASEgBISAEAgqAqWlpTRhwgRq36kjJTZNNN02dPg3b9hILVq1pHYd2pvWgwO3bf6dWjVtSh1at7akZ8P27dSscWPq3LatJT1rtmwhGFhXXXWVJT2BOjgnJ4eWfvkVPfqXa6htq2am1ZaWltEtjz5HV08cQ906mmfEl55ufuRZOuuCq6lTz0Gm24MDP3nlH9Sxz0jLej6f8yBt3LhRjCtLV0MONkNAjCsz1OQYISAEhIAQEAJ1iEBJSQnd/8RD1LFLZ0tnNW7IaJp67XQaN3mCJT2TR1xA/7npJhrdv78lPV2nTaPHZs6kScOGWdIz7v77qaCgwJKO6jj4olFnUfuklpZUw7gaf84Q6t21oyU9dzz1Gp129oWWjaJP/3cPde93DvXsP8pSe376/CVLx8vBQsAsAZlzZZacHCcEhIAQEAJCQAgIASEgBISAENAREM9ViN0OiK9evXq1pVanp6dTo0aNKCoqyrSe1NRUasohGxEREaZ1IBa+RYsWluK827RpQxdccIHpNgTiQITCLF68mMDVrGDUGMeDh1kpLi4mhIrgupiVwsJCNTqbmGg+NAhx+6NGjaJOnTqZbYYcJwSEgBAQAkJACAiBkCQgxlWIXba///3vtHHTRurAsfFm5ddf1lGz5s2p6yldzaqgX9euo44cC9+lXTtTOmCQ/PDbb9SzY0dKMmlQ2NkgWbVpE2VkZKgJy7UlBw4coClTptDIIQMojP+ZkX2Hj9DBo8k0ashAM4erY/7cu4+SUzOo94DhpnUc3L2VCvNyqEe/s0zrOHZgF00Yfx4tmD/PtA45UAgIASEgBISAEBACoUhAjKsQu2oFhQU09boZdN5F40y3/MbLZ9KwUcNp5q03mNYxddzFdOtFF9G148eb1tHh8svp4enT6dyB5gwKGFdtL72UbDab6TYE4kB4exrFNaSPnvunaXVvL/yKnn37E/rwuYdM63jq9Xfp/eWbacZ975jW8emr91La8QOWdKz64g0qKNxnug1yoBAQAkJACAgBISAEQpWAGFeheuWk3UJACAQ9gbT8NPrz5J+UXpBO8dHx1KdlH2oZZ23yedCftDRQCAgBQgbGytLRW90viIWAEAheApLQIkDXBg/KJ554gl5//XWlEd4MzEvS5NixYzRjxgzaunVrgGoUNUJACAQzgV+O/EK9X+lNw98eTpM+nERj5o+hri92pVk/zKKikqJgbrq0TQgIAZME0Be48cYb1ZzmiRMnqr6AXjAvdvTo0WrdrbvvvpsQIq8XhJl369aNYmNjae7cuSZbIYcJASFQmwTEcxUg+hihOvPMMymeF62DfPHFF+rB+OGHH1JjXmOjqKiI9u3bR/n5+QGqUdQIASEQzATgqZradyqd1uo05bWav2U+fb37a3pj4xt0Se9LlBdLRAgEK4Eycnb6XX8cb7Tt3vYbz8dbOX/1GPXiM3SgVaVlpc7WOrbw0k2OfWHuhosnHZXrcejD/1oN3nRo27/99lt688031Uf0A+bPn083cUp5Tf73v//R999/rz4+++yzdNlll9HgwYNd+x944AHas2eP+nzDDTeohYvj4uJc+41v8ksKKdduPUV8gT0weozt8/bZdV+oAr5dJ2+6ZLsQCDYCYlz5cEW28yKEMI769eunjKNVq1apRek6d+5MaWlpyhuFhyNWpceK4rm5uWobPFdLlixR23v06KFqwkroePDiLxZt1Lb70AwpIgSEQAgRgPH0wgUvuFpsL7XT8n3LKTwsXL1EhECwEciwZVB8YSOnyVLeOqMh5OoKO70uxv05xTl0sjC1op4K5Z11VNgO66iMsksKKKM0jws5jSjnX3h7ythwcv3DZ2cp9Rf7eJtmZOWV2iijJEdtw/5Sp6nk+FxRj2s/anAeU1xm9+lyNedkUciYqnmk8PuvF31G2MjIyAqZWfX7kagJHq7KJKUok8Jt1p8nqcVZlGBLq6wqH/aVUZ49g7LtJyp45PQGlOMq6NW5G1fYX1CSSTn2lErqrDp5VCmVVHK87BIC1UdAjCsf2P7GWe0WLlxI7733njKaZvKChFdeeSU999xz9M0339Ann3xCCxYsoDlz5hBSg2O0adu2bYRU48uWLaOOnBEPRhTCAR5++GEaMWIEJScn0/vvv08ff/wxde1qPmufD82v90V2795NMTEx1KFDhwosTp48SQjZ7NOnT4X4eBjUMKy7dOlCCQkJFY6VDUKgKgIpeSn09KqnaV/GPlp7ZC0lNkik+4beRz2aOQZbqjpe9guBmiSQxR3shraTXKWjs6sZCFrX19UFdnqEyve7d47z2LhKZePKIUZd+q51xX3a+aJUhj2XUsuyHYaTzoBC+2A4Of1TDoMJ3is2atQ2lOX9ymziN5kluZRcnF5eznmkQ48q5fxX7gVzbVP1lpGd9fsigwYNUt6qt99+Ww2gTp482e2wa6+9lo4ePUo//PAD/eUvf1EDtXr5z3/+o5I07d+/n/79739XuWRKii2TytwjD31pZoUyqTa+9oUNKmz3ZwP8e7klJymz+JjbYdp9Ur7R/X4BX/d9bKSVZFBWcbJrc5WZeNW1dxd4NEWEQG0QEOPKB+qnn366mkt15MgR2sSpv0899VRCXDRSgK9du1Z5tBAfrUlSUpJy5efl5dHLL7+swgJRHnLnnXcqwwzHoszGjRvFuPLhGpgt8sYbb6iQDMS/L1q0iMbrshvu2LGDzjnnHGUE33LLLfTqq6+6qsGaUZMmTVLGc8+ePenHH39UHkgRIeAPgYLiAvr+wPe04+QONc+qYVRDOpx9mGwlNmoY3tAfVVJWCFQ7gUz2gsQUOTwlWocXRgqkvANsNIi0ZpV3kLOLc9lz5fA6mNUDbVnstTpZmuus3aHJYepwe9Aw7k8jXE+ruYwtLu0f9qEM9mexcXWcjSuX4eXUqI51Gk/QAY8VRNvm0O0oYy/z3QsynbPg4uVJ4NXCICtengTRL9rcbU/7jdtSitLJbvPNq2Y8Vv/5ZFEGRdvMr1sJXeCWa09jo+g4PrnUl7/TNun2aTeYrjSuITxX8IBZkVI/rpmVeuRYIWAkIMaVkYiHz/B4wHOxefNm2rBhA13K6b/R6d6yZQthUd9x48ZV8Hp4UKPmYyGUENKwYUP1kjlYnkgFbtsrr7yilMFYgqGlN64+/fRTZVhBXnvtNZo9ezYhTAOCmHdcYwiMMMTIwxgWEQL+EOjYpCNtvmUzFfJ8hlfXv0oPrXyIXtvwGo3qNIrOP+V8f1RJ2WoggAEUhG6/9NJLNG3aNGrWrFk11BI6KnPsmdzBjiw3VpwdX535ok7GW2dZK5dXnO0MC3Scu+a58Kan3LPh0KwZSJkl+ZRRluc0mBwGnlsJ/uDQif/D1NwrjslzlNe1HZ6rE8pz5SitzdHS6ik3sLzs5+PsPoYF1vTVhufKVmjduEotyqKwQmvhhaCXx8ZVZnH5YLPzDnBh8XbvqPtKu2b8N8+e7jTSHIea8lxJWGBN345Sn5OAGFc+3AowrBA2hs42OuPDhg1T4YFLly6lgoIC6t27tw9a8Mznx4MH17VPB0shUwQuvvhiZQRDjOEZ5513Hj399NPKwEVWJ82wQtlOnTpR//79lWexNS+WPGTIEFP1y0FCAAQaRDagkZ1GUkJMgkrLnlZgdW6DcA0EAXgPYFzde++9dM8996hn++23364GYRBKXN8ky5ZNYUXhThOEz97QE3aYHrpOsKGAtj/HnqfCAo3lNZ7G7dpn/X50tHNKec6VMq7KDSsEfzk8TE4jylmLQ0f5XCfHZ4QPclgghxe6wgKd860QN4h/eu8U6tHPx0Kt2n5/PFc1ed/AuMoPwFqPJ9m4KrFZDaNzhAWGF+s9YO43UcVrraellS2j/NKqPFcVwwD1mmCMieeqJu9EqUtPQIwrH+4HZAJEwoo77riDBgwYoDre+IysPuh0IwzQKHDto9OOF8ICRWqHADpPQ4cOVdmWjAYSsjtiPh3mZMHQ0gvCPFesWKHCAWFktW/fvnZOQGoNSQIYGX/hlxdoS/IW6tuqr0pgsXjHYkrNS6WkRkky5ypIrupAXsAcAyswsCD4zv/6669qjSJ4qhFSjOdEfRkUy+Y5V1SkhcZpF0nzFTk+lxtGjs9h2vwr3TXNZc9VqhYW6Opba3oMf73uJ8rlyUTZVOAy4VDUYRJpHiunoefsZ7v2wQOCsEBn+UwOLXQYV44S2G70XsEI07S6jC6nAYbPxUHqBUnhJCQ5hdazEKeykVZYaG2JCHBCWGCZvdxIK/dKut9P+GQ0tPQlkBgjstgxwFGl1woHerC1Ssm6R09rk/wVAv4QEOPKR1rwXKHDfdppp6mOOuZh4QcXP7wwpPBjrBdMak1MTFTlkMwCCS9Eap4ArtGYMWO8Voz5VHh5EmRqQtiQiBAwQwChgB9t+4jm/z5fHc45AqlH8x40a+QsOiPpDDMq5ZhqIHD11VersF8kHIJof9955x366KOP1ODYzTffTNdcc43HpDjV0KRaU5ltz6ZSNq6MYXpagzQ7qLxTbDCUnAVzVbbAqAp6tONcepxhYA4zSGcwsR7VUee5iTlkcxlUUG9sg5YZUAsHVGWUYVXeNuW54jAzR/ifd+9Uhf3Q4jSw7MFqXKm5UlGW7xmEBebarKV0B6tc+0kOw9dn2NCumAdjynX9jftKKZ8TWoRVaht5sKZ0FJTnqtT3eXKWAYoCIaAjIMaVj7cDDKS9e/e6SsNoQoILTeDd0idEQCgZEijoZc2aNa6PCDkx7vexKVJMCAiBICcAT9WDwx+kvw3+m0pgkVeURy3jWlLbhLaSht157X755ReVebW2BQNjmkGlbwu2IykRXrNmzaKnnnpKhYcjbBDzbhs1alTbTQ94/fuW7KGopuUddX23WFVWvsHtoyva3bk/9VfOGJfMXjDDARX0Oc+gwnZs4OQUv6/cSSmHM1mNo0S5Uad1rPXby7fpm1nKevasOUrHDp7UmVuOijVjSmsn9OuPLf/MRsORQp/mVjtPqdr/YFAX/Y6dTx2hiGgLiShwwoxu9zNHKLKBtS5hGRvmqa9xPymmcsPHMxwdeR6rTp67w3J77DwXDYPcIkKgpglY+ybVdGulPiEgBIRACBGIi46jns09e0ZD6DSqpamYr4qEQKEgMLSQHhthxAgPv/XWW1UiI/yFZzwiwkLnNggAoJOO+aebt2y23JojQ49Qq9atKDLKWvfi+NDj1KJlC6+pyH0N1WwxtDUlNElQESZWJH5GPI0dO9aKioAei/WvMOCrH+Q1WwESPiGjrlU5ePCgdklGawAAIABJREFU8u76em281YdsyvhOWV0CBUnEEG0kIgRqmoC1p19Nt1bqEwJCQAgIASFQiwTgyYIg8kCLPsBi8k2bNq3FVlmv+v7777euRDTUKAHM/8YrWAQJYUSEgBAgEuMqxO6CiIhIWrb0Gzp04JDplqckn6D1a3+lYrv5eOSszCz6fPVqOpSqLRTpX3MQjmHj0bJ5335La3jBZTNitzsCsmt71Bj15+Tl02Mvv8PRFWbCIYh+27aT0pjprJfnmUGhjvlpwxbKSD1OX737tGkdB3f8RnnZ6ZZ07N+2joYOOtV0G+RAIRDsBLCMRklJiUqWg7lYEnoU7FdM2icEhIAQqDkCYlzVHOuA1PQAjy4uXrzYki5kx2rarCk1iDEfJoEU5614Ud1IC6EESBbRvl07CjcZUoObFyvYN2/e3BIPqwd37dqVHnvsMUpPxyKV5mTA0CRqd0pvimze1pwCPurskS2oV0YmZ680rjHiu8puzUdzhkueH9TSvI7+nUephbJFhEBdIoCwKSzXgLCn2267jaZOnUotWrSoS6co5yIEhIAQEAIBICDGVQAg1qSK0aNHE14iwUMAnqtHH300eBokLRECIUAAySE+++yzWm8p5okgJA5zqjwJ5urAsEJa9uuvv5569erlqZhsEwJCQAgIASGgCIhxJTeCEBACQkAI1DgBeH2mTJlS4/UaK/znP/9ZYSkNTIRH2PGECRNU0oqRI0cGVaY44znIZyEgBISAEAgeAmJcBc+1kJYIASEgBIRADRLAIu9z5szhdXmKVTY5zAXt16+fSreO0GesaSgiBISAEBACQsAfAmJc+UNLygoBISAEhECdIXDjjTdSKiflad++vfJQzZgxg9rxPFARISAEhIAQEAJmCYhxZZacHCcEhIAQEAIhTeDOO+9UXqqzzjrL8to8IQ1CGi8EhIAQEAIBIyDGVcBQiiIhIASEgBAIJQKDBg0KpeZKW4WAEBACQiAECISHQBuliUJACAgBISAEhIAQEAJCQAgIgaAnIMZV0F8iaaAQEAJCQAgIASEgBISAEBACoUBAjKtQuErSRiEgBISAEBACQkAICAEhIASCnoDMuQr6SyQNFAJCQAgIASFQvQQKCgro5MmTliuJiYnxuiCzP8qRGr+wsNCfQzyWDVR7YmNjqXnz5h7rqK2Nb731Fu3du9dy9VhIu0OHDpaTumzYsIHOOOMMioiIsNSm3bt3U9OmTalZs2aW9GC9uttuu42aNGliSY8cLAT8JSDGlb/EpLwQEAJCQAgIgTpEAOt7de7cmU6cOBE0ZxUVGUnFvJCzVQmUHrTjq6++onHjxlltUkCOxxptN9xwA40c3I+aJDQyrbO0tJSWrFhDg0/vTUktzRszuIe+W76aNm3dQ206n2q6PThw+/pl1LLtKdSqbVdLejb/vJR69uyp1qwTEQI1SUCMq5qkLXUJASEgBISAEAgyAugYw7D672svUqeunS217rKxE+mGO26h8yeOt6Rn+vhL6NW//53GDBhgSc8ZbIA8xeuZTRo61JKeSY88QkePHrWkI5AH252G5zP33krtk1paUg3j6l9330S9u3a0pOfr1Zvoklv/RZ16WsvC+cj03jT2yn9Qz/6jLLUn5cgOKioqsqRDDhYCZgiIcWWGWi0eg1GmlJQUSy2Ijo62/MAJhI5AhGskJCRQw4YNLfEIxMF5eXmUk5NjSVUgeATiukRFRVFxcbHpcwkLC6OWLVtaDjEx3QA5UAgIAVMEGiXEU3yjeFPH6g9qGNfQuh5+jjThsK7GcXGW2oPnUWP+jbCqJ5afiyJCQAgIAV8IiHHlC6UgKnP1zJn03rvvBlGLarcpkRw6kp2dTYiHry1JTU1VxoRIOYG/3fl3euH55wSJEBACQkAICAEhIATqFQExrkLsch87dpT+ev9dlkIubrx8Jg0bNZxm3nqD6bOfyiEb9116GV1nIf68wxVX0Fv33ktjTYZ92EtKqP3ll9e6cYVJ4A1jG9De794zzXPuwq/pubc/pq1L3zat46nX36UPlm+ivz+/3LSOha/eR2nJ++mmWR+b1rHqizfoyNEDpo+XA4WAEBACQkAICAEhEKoE6pVxlZubSx9++CEdP35cZbNp0aIFnXvuuWoib1WCrEUI+8IxtS1oe3i4+Sz6OFZ7mT2XcA61iOCXpXZY1BHO8wSCRSKcTM22JyLcwdIST25DWLi1eyOM2xEW5rg/zJ6LlXMwW2ewH1fI8yOS+fmDuS2J7GVtwpnQRISAEBACQkAICIG6R8B8Dz0EWcA4mjNnDu3Zs0e1fuXKlTRmzBj66aefqjybL774gq6++mrKysqqsqwUEAJCQAhoBIrYw3r/8uV0yksvqdcrv/4qcISAEBACQkAICIE6SqBeea5wDeH1mTBhAl122WWEVKb4++WXX9KwYcOUFwZerSVLligjasSIEXTmmWeqclu3biXMrcE+zK85//zz6dChQ/Tdd9+pLEv9+vVTXjAkFED5devWUfv27en7778nrNfRrVs3wpoLffr0UbcSElOgDNZx6N69ex29veS0hIAQ+JYHc+Zv2aK8ViJCQAjUfQKLFy+m+fPn04UXXkjXXXddhROePXs2/fDDD3TrrbeqfoNekAXwwQcfpAMHDtDjjz+uUomLCAEhEFoE6pXnynhp0Nkp4VFlJEWAbN++XRleMIgwj2YmJ494/fXXVTjgtm3bVJa+ZcuW0apVqygtLU09+LAdIYOPcJrWWbNmKX0o97e//Y2uvPJK2rVrlzKkfv/9d7r//vtdni8s2nfXXXcFVWpXIx/5LASEgDUCx/jZ8SR7xk/hBTH7tW5tTZkcLQSEgM8ESrlkSQAGNDQ9vg6NbN68mS655BL67LPP6Prrr6evv/7arc3vv/8+/fWvf1X70d/Yt2+f234YVv/973/pk08+oVGjRpGWct3biZdQGdn5PK28oBusrOjAsSJCQAg4CNQ7zxUeVB999BFhJXEYU8g0N23aNEUDD71TTjmF5s6dq9J7Y6XxlziMZ/LkyXQFJ19Auu2XX36ZGjdurMq/+eabrvto/Pjx9MADD1BycrLaBsMND1CEEkLg5VqwYAFt3LhRPTCXc5gQvFYDBw506ZA3QkAI1B0Cdh5UeeGXX+gQe8HnXHQRPc/vRYRAMBPI5d/HbCzD4Owna93l8m6z453Wj66w37kjn/XkWNLjoFTE+gr4ewQDB3Xhd1X91b94m2u/sww+Q7RyxQHQ46vxcOTIETXIqgk8UHrRf7bZbKrP0KVLF4/lsQ+Dt4h68SYpNjtFFJpfOkPTe5L1HLesp4xsJcVUUGJTasvvG0ct7p8Nn3Qf8bao1M56iijM24nrt3spVFqhBb4okzJCwDqBemdcYc2LJk2aKMMGD8C2bdtSax5Rhndp586dNGjQINe6SaeddppaD8rTqvV44MG1D0MsIyNDPfSRDhxJM7BeER6G+nC/du3a0fDhw+nzzz9XRhvmcE2aNIkaNTK/srr1y1/3NWzatEkZxrgeYN+xY0fXScNYhncRZZ5//nkVIqqXZ555hp577jk1uvjqq6+qkFIRIeArgeU8Ij2PR7Fv5gGUYR06iHHlKzgpV2sEMmzFFFvo7Bg7O7sVOshOA0rbbtyPxufZSyjN5li8tazM0fM1ljOGyXran85G2nE20rR9pQbjShlVRoNL91nbn8G/9Vb1wEDzRTBl4NJLL6VPP/1U/ebPmDHD7bBbbrmFFi5cqAZa4dkaMmSI235ExCA6BoYVfpcqM6xwIIwr4utmVVKL7BRnUQ8I5doLKbM439mccmaV0XOYzO5nkM8GWrZd0+Pf2XFaJnWA8R7zT4uUFgLmCdQ74wodZDz80JG+9tprVcf7rbfeon/84x9qvhSMJhhamH+lreyNRVWN8uOPPyoP2Lx589S8LIT94UGpfZmN2fjwGcbUvZx6HIYVDLKxY8ca1crnABO4+eabaffu3Uor2OOaafLKK6/Q0qVL1cerrrqKpkyZ4goRRajGPffco/a98cYbNI5TzmO/iBDwhUAeD8q8zIkrsPBoO17o+ku+B9N4LiZkJ4cUr2ZPNgwuESEQTAQy2SCKKqjc66D9xhk7y3rbI6/YzsaV5w6/dlxVelAuk42iE07jypN3Sq/L236UyQqAHl89V+gvfPzxx2o6AQZPMaCrl6YcIrx+/Xo1EJvAzwajYI7V4cOHCV6tOB8WUE5hziWWPU5EqUXFFGNRD4yk3JJCyrLncV/IeGa+GVo4Cnry2LjKYiPNi1PKXbmXQuK5Ml4D+VxTBOqdcaUHi7TqMIheeOEFupzXSxo8eLDybqBD3rx5c5XoAn/h3UJnG4kq8EJYIMIJ8eDs1KmT8oChLOZhVSZ9+/alpKQkeuyxx+jiiy+mDtK5qgxXQPYhqQh+yCB4rxf9Z1xjvWcKP3p44TrDMG7Tpk1A2iNK6gcBhATmc6fwIIcE3uw04LUzX8ADMansNf16+vT6AUPOMmQIpHNHPaywSHVu9VJuxDi2VrUfxlUm66qqnNOp5arKVavzTbrO44RNrpcH75S2zxUSqCsDI03zXHnTg+1Gz5gq69Tjz/wtGFSeDCftRPGbUtl+zAPX5oK7XQgPH1LY41TkxZD1UNzrppOsJ8KqHgaWV1LARhEbV8aadBuM94W+qFbMmufKoRHXU0QI1AaBem1cATg8Egjtg0fjxhtvVB3xoUOHKsMJ87MQDoYwQoQLJiYm0umnn049evRQ5V977TXl9kdZhBZWFeKHeVzwfqxdu1b9lfWAqv+Wf+edd9Q6ZgiteOihh9wqnDp1qho9RFjg3Xff7TbCCKMa8+Lg1cQ9AsNbRAj4SqABd46u4/DfUTz4AilmY+uDP/6gveyxPq9rV7qanyMiQiDYCGSyx7VUCws0GljOfmp5d9XxTvuMfqz2vpDv93T2hEAqdKS96XF6eLT+MIohLDCZX0oP76jMO4XyxhBBdK5xDMICrerx7IdTTatVgeeqwKLHCSeQyuGFpRb14Frn2G0UocICjXeKZ0yeQvewLZ/DC2GkaSF+no+ufKsYV5Xzkb3VR6BeGVfwGsGw0Qtc9CtWrHBtQtIJJJ+ASx/JLTB/CgLjadGiRW7HIgvQ3r17leve6IVas2aNx6uGdO4II4SRJlL9BGDwYu6UN4FB7U1gUOMlIgT8JRDDxtV0nrOpSRaHGyMUcB8bV8PZYz2VvdgiQiDYCKRzWKDNaVxpnWO98aRvr2Y06Y0hbT/mXGU6jSttm696tDgwlM9kwwphgca5Vdpn6EY5l9Hl9DIZP2c59aiyzjLKGHN+1vS4dOnKaHX5GhYIXTUp8FzlWvU4cYNPsrfRqgcM/PLsBRTGRpFe9Aa2dh94Y6QZyN49V15iAJ0K9XslLNAbZdle3QTqlXHlK0yjoeTtOMzR6tWrl7fdbtuRIejZZ59V3hCkWfUlltonxVJICAiBoCfQmNe6W8lLO4gIgWAmkMHGVYHLuCr3OmkGlNZ2rYNsNLC0/RWMK2eP1x89qAMep0jnnCtlDBkMI804Uvu0l7EMf64QFmgsw8cajS5jXQ7/WfBdPSS0sDpXCmcFz1VeADxXmCtlNxhXemoVPJm6neWGl2POVZiac1W5MVXZFSkt04JEKysl+4RA4AmIcRV4ph41woOCRYmxoKB4rTwiko1CQAgIASFQiwRSdu+lyJxc1QKX4aS1p7zn69zvMHb0zdWKZBw5SuE7HYmEjIdrXWWtrL5D7aaLDaBDPCiZxYOYEG/eKi1zgt5bhfLK8MKL9Rxlr3G+M3mE2u608jSDTHXBdds81ZWbmYlSQSPaHOFdHy+kiEpStVfZYOd57164mKISm1RZ3GsBGKychOPEwncpok07r8X0O7wZWjBsU75dRJlb1vmkx1uhvGNHyFNCMm/lZbsQCBQBMa4CRbIKPUj9bkz1XcUhslsICAEhIASEQLUTQAKGM3jJgD8WL66Q3c7fypGIIYNTiWcbQvDN6DnOIfsnvv/e30PdykfwuaWsXk2pXkL1fVXegJda6d27t6/Fq70col+Q8RZTE6zKgY6d1NQGq/PAN8TFU79+/XxOxuGt3bvbtSFM2UC/yYrEjz9frSsqIgRqmoAYVzVNPAD17eERwdZtkkxryuEMeEcOHaHff9tsWgeyJm7n0cA1W7ea1mHjcI9Ne/ZQLIdMmZFiLFIZJJKTl09rNppnsX3vIcq1qGPfoWOUn5NB+7aZX6w2M/UY5WSmWtJx/OAO6tLKMdocJJdHmiEEhEAlBGBcbXRmVa2kmOwKMgK33XZbkLVImiMEhAAIiHEVYvcB1uia8/oc2rbxd9Mtx2LH+zn84/VnXzatI7FJIv2wbRut2bXLlA64/VtxKvxPf/6ZPuf1gMwIdIzgbI3I7FebghG/MwcOoLufe8t0fHixvZgac1bKe56ba/pUiop4XZTYGFo2/2HTOrC2SiQH1FjRgY7a2Ksca4SZbogcKASEgBAQAkJACAiBECQgxlWIXbT77r2P8BIJHgIIz1i3fkPwNEhaIgSEgBAQAkJACAgBIVArBMJrpVapVAgIASEgBISAEBACQkAICAEhUMcIiHFVxy6onI4QEAJCQAgIASEgBISAEBACtUNAjKva4S61CgEhIASEgBAQAkJACAgBIVDHCIhxVccuqJyOEBACQkAICAEhIASEgBAQArVDQIyr2uEutQoBISAEhIAQEAJCQAgIASFQxwiIcVXHLqicjhAQAkJACAgBISAEhIAQEAK1Q0CMq9rhLrUKASEgBISAEBACQkAICAEhUMcIiHFVxy6onI4QEAJCQAgIASEgBISAEBACtUNAjKva4S61CgEhIASEgBAQAkJACAgBIVDHCETWsfOR0xECQkAICAEhIASEQJ0ncOzYMTp69Kjl8ywrK6OwsDDLetCWNm3aWNaVlZVF4eHh1KhRI0ttio+Pp549e1puj6VGyMH1koAYV/XysstJCwEhIASEgBAoJ3DNNdfQli1bLCNJSUmhxMREioqKsqQrIz2dErhzbFlPZibFNWxI0dHRltoTGxdHc954g3r37m1JT6AOLioqoo4dO5LdbqdoC6xLS0sJxlUJ/7WiBzqKuS2QiEhrrIm4PfZiioyypsdeXETLli2jsWPHBgq76BECPhEQ48onTFJICAgBISAEhEDdJIAO9rx58+jyq6dR2/ZtTZ9kGXeKX/i/Z6hrr240cMiZpvXgwFf+8wINHzmSBvboYUnPg2wQjR8yhIb17WtJzxMLFtDPP/8cNMZVYWGhMqw2LHyd2ie1tHRurc6eQt8veIF6d+1oSU/70dPp2gfnUqeegyzpeWR6b5p+/6vUs/9oS3pm33MepaWlWdIhBwsBMwTEuDJDrRaPmT17Nr3x5huWWpCdnU0xMTHqZVayMrMoPjbW9EgXRrkyeEQxgd3+kZHmbkPoaPf/7Z0HoFTF2b8HLr2IIAhKFRBBBcGOImDvNYmaaL5EE1OMaV+MyadJTNHkb0yPKaYYk6ixJGrsJhYQe8WCIiId6f1SL7D/95m9s5x72L57l3uX3yQrd8+eM2fmOXNm5i3zTt++7t8PPOBqamqKrUrJ161bt86dduqpbvmyJUW7H2zaVOfIZ9dduxRdno0bN7m1Gza7TiW4UmzYsM5t2bLFdexYvDsG7iVf/9pX3Cc+8Ymi66ILRUAEKk/gmJOOdf0H7lXSjRGuRh1ykDvh9JNLyue31//SnWpC0TEHHlhSPt/685/dCQcf7M4cM6akfP723/+WdL0uLpRA6W6KLVzpeRRaap0vAhAoblYrdjuMwD333uP2HNDXjR57ZNFl+On3r3P7HbC/O+nMU4vO49orv+vOOXKMO2306KLySNhV//PDH7rLzj7bHTZsWFF54IJw8Y9/7JYuXep69uxZVB7luGj27NnuyQkT3N9/fGXR2T0w4Tl372NPux9c9vGi87jlvv+6Sa9Pd+PP/7+i83jq339wq1ctcOPOvazoPCZPutfd/+DDEq6KJqgLRUAEREAEREAEmisBCVfN8MntO3w/d9iY4oQaqtvFrCMDBg4oKY+O5n8+avBgd8IhxZv/25qf+GjzXz/OtIrFpM1mYWkqqXPHDu6EMcWzmL9oiXvi+ddKyuPlKe+6V2cud8MOOrZoLFNefNSuTZSUx9IPZji3wT5KIiACIiACIiACIrCTEahK4erRRx91L730kn+URIsZbdaVQ0wIIPpMoWnRokXum9/8pvvSl77kRo0a5VasWOEX2JIv6YknnnB33nmn+/3vf19o1jpfBESgigmwtPsD+ySXeG+raHv7Eztr4b1RFcNS1URABERABESgSghU3fjOwtyHHnrIPWDrcBCmZs2a5c4991z3s5/9zPFboQkLzXHHHed23313vxbl8ssvd7/61a9S2fTp08cdc0xpiy4LLZPOFwERaPoE3rMiHmGfQbHPBfZ9TdMvvkooAiIgAiIgAiJQBIGqtFyxoH6//fZz3/jGN3ygg74W9ODuu+/2a0DYN+GRRx5xb7/9thsyZIg75ZRTXAcL00riGL8RKOGII45whx12mA+2gADV3oI3sLZm7ty5rq6uzt11111u4MCBfk8HPiERwSdd/gQreOGFF1y/fv3ck08+6djH4bTTTnP7lBgJqYhnrktEQAQqSKC73Yul9KGz3c/+Li1IdQULr1uJgAgUTID9nhjnmUPsvffe213PXOPVV191J554ouvRo8d2vz/zzDNuzpw57mxbk9yuXbvtftcBERCBpk2gKoWrOHIEI6xOtbW1XuCaMmWK79SwQP3zn/90f7RQrVOnTnWf/vSn3VFHHeW6devmiMrHdXR8V199tbv22mt92FOEq5UW5Q6ha+zYsf77jTfe6B5++GG3du1a98UvfjFt/oQD/fKXv+wFOa5buHChu+2227xL4aBB6LaVREAEqpHAQKvUjfYpLVhyNZJRnUSg+ggwto+xyIR4zTCXePrpp92wSNCmV155xY23EPPMRzhOePddd901BeL22293H/vYx7yS9+STT3YPPvhg0VFoq4+uaiQCzYNAVQpXdEpYme644w7HhoashzrnnHPc+++/7yZPnuz+bvtVYNmaMWOGdxmcOHGityRhobruuussDHXH1NOL7n5Oh4lFC2HoyiuTkeHuvffe1Lkvvvhixvz3339/f95XvvIVd/755/u1W+edd57XXkm4aryXhbDz3/nOd/waOYTk+IaUv/vd79xrr73mrrjiCjfYAnRE0/PPP+/+9Kc/+QHuQx/6UOMVUjlXNYHXrHb97MNmAez88x37HF3VNVblmiuBTS1q3MaWNRbSJpkSsUjWifrQ1uH3UM9wXvi9zrxHypEP99lqeYV/uR9/J+wYTv7h7+h5/pzwu/0brik1n831efkMsyQ8VBCsSMttI+THHnusgXCFsIRgRXrnnXfcm2++6ZW6IaFwZQ5DQmm7Zs0at8suu6R+j/+x3Dbabde6+G1VQn7Lalq7JW1Kt5JtbtnC1dWkD4Eeb08uFio92q62WD6b4/nEG14MRvyuOU6Po9R3ESgbgaoUrqDzwQcf+GATTKqvueYad/rpp3tLEZYoXPNIvXv39gIVQtdJJ53kfvnLX/r1U3wQxgiCUUiiQ82UP8IVZdlrr+QeIliw+OAuqNR4BHAFDQIwrFl7F9Ktt97qLr30Uv+VICg8P1xKSUuWLHEnnHCCH9huuukmh5sGgVGURCBfArSkPeyDQMXuZU/bZ6J9LrYPKpkD7KMkAk2JwAqbqLdvk5yoxyfC+QpW1Ke2FRP10vNZ0aaNW2RucV6QqheyooJU6ljkt/jvXLuyDPlszjMg1qGHHurnGLj1de3a1R17bMPorSjrfmxbiODpwrKAoHgN7QBFHmMWAhZjEEsZsqXFrdu5Fm0Ik1NaWtqqrVvcdptiuZjcaDO1bWvcqg7bppbZBJx4Gwv35Pg6y2d1+xxT1HohNFNZt5qApiQCO4JAjpa7I4pU+j2ZIDMRxl0vurlsG+tgce3jQ+LfTZs2+c106eQm2F5Fzz33nF8z9dGPftT94he/8BEC803Z8icPyhUm7/nmqfNKI4CQHVL0b45Fv+PKgeto2NAYoYoPiUGOqJFKIlAIgSF28vP2Cdtbv25/s7PcPPs8Zx8JV4XQ1LmVIIBw1drGw2RKTkzD5Dg+SUawIaX7fU1NK7fUhKttk+dt5+abD+chXC0w4SoIUVEhi3sHa1Tq96iQFf62fxGuSs0Ha1w+aY899vDKuMcff9wdbpsgx9dVo7TFKwL3QJS6CGDRdMEFF/h14ghnCFq55gyLzWq1tQwWp2UIV2XIZy3CVb1QlEl4or7xdhA1YiHIr2vT0vIJvWc+5G2OFct0a36PLL/MdZYIFECgKoWrTPXHFZC1T3RqRADEJW/evHnugAMO8OZ7hCy0TEceeaR777333PTp0xsIV3RyuAyyaS0T8ajgxj2z5Z+pTDreuARYT4cbJtq/66+/vsHNvvCFL3hhmnbw85//PCVYcRLBShCusXSdeuqp7owzzmjcgir3qiPAOB+dGqATxumG45uqrraqUDUQWN6mtWvpLU6ZBSfqmU2w4vdaW5O8xAtpxefDPZabULQwIlyltV7Vl8fHAo4IVynByw6vsu1TSs1nS56WK4qBRwxeE5kS1qq4xSp6Luuy802L27ZzdW1Lt1whyC5tlwzule+94+d5y1W7lm5lh9DzbZNusgla5BMXtta1ycNytd1VDUu0NeZ2GC+vvotAYxHYqYSr4cOHu0suucQHriC0OtYIAlCgScJF7KqrrvKd4vr16/0CUyIJRhOh3Ynec9lll/nzL7zwwga+0tnyR4hTqjyBESNG+CiQ6RJumUSRzJQIQMJHSQSKIfBnu+g2+7BRA8vV77fPLPsQGwxXQSURaGoEVprlytVbL8JkN/VvzHIT/z26fmaNCVdLS8yH/LE4LbTAUvztP1YcMxPaAAAgAElEQVSGuItg3DUw3e8rEa5y5INgFr82KqDlu+aq0s8Ut8ANZXALXNmqnVtWYj5YnGrbtXKtI26BgUdceIpbqqLcEMTWti3CchWDL8tVpVuj7hcIVJ1whQCExSFdwtKEtQKzOyZ3BCmi+ZDQMp111ln+OFECWRsVLFO4C4Z09NFH+2iA0cR1pGz5DxgwwLsKhISVLBoMo0GG+iICItDsCbDeaq59vmcfJm3ocIkL+gP7SLhq9o+3KiuwwlzM6sJaqfoaBitVqHAmoSpqmVhrwRG8W6BdVKhwFvLhupTlinyC8ENB6i1UUeEnLnhxGr+HNVfeclVCPnUFWK64d6XSIntmtWVw58O617HEfJJCUY1raW6B2YWpzHTC88/PcpU5H36Jt93sZ+tXESgfgaoTrvJBg1UqGvo0XNOlSxeH9anUlCn/UvPV9SIgAs2HwOlWVNZYLa7/dLJ/+9unsFUEzae+KmnzJ8Caqw31QhG1iU9OcwlW4fc19QEtShGsuBZXtbZRt8D6MqWzMPnypvvdBCxvAYsIV+E8/m0goNVfn+73pmq5WmKWqzUlWpxgt6qmjetgeZWS4EZAiy0xy1VoB6m8t3kLbi+E8Qzss84sVzUFrLmKZJm6zdaWpdRG14pA8QR2SuGqeFy6UgREQATyJ8DY3qv+k/9VOlMEdgwBhKtgBYmvkQkT5BA1MJQwamkKx2pb1VgEu+REveh8TChCuLJddDNGCuR+aa1Xdjy6PgurTOsS88k3WmCln9yM/zzhWvXtU/xtt/rVam7GExPcyiXLis/HAj8l1ta6ZY8/6FqvWxHLJ53okzwl3j44mkhsdcuffdKtbZEsWzGF4o61CxcUc6muEYGSCUi4Khlh5TOwLqykm3J9aTnUawhLKkUyjxKzaDKX54gIm7OcXB/2Nsl5cqYTvLq1xCdb4uUUrdQiZKqejouACDQOAYI1tTV3+IXjxrtWWfZUynn3+pd/+Ve/5mqv/VHO07OdkLBJ/5sf/7hr2717ttMa/Jau+9pqEYGnfP7zrp3td5hvSpfPRosoi3dLU0kEaRp3/PFu6q9v2M7CWFAZ7Zl13m03t+bmv7m1pbg+Wj4tLGjYujtutQWm9xRUhO1ONmG41f13u5pHH9jup0IODOzX140cObKQS3SuCJSFQAub0KXrR9ykSZNciFhz0UUX+b1+lHY8gfMs8t2dtjkya7aKTRs3bvSXliOPdmgWi0g0uo026JGKzWOLDb51Fk6f/UIITrGjEoFRevXq5doaC5ujFJU2bKxn0bY4ntw05NG6BL/5uk0bfPlLzePzl37B/fY3NxTFQheJgAhUnsC0adPczJkzS74x+wmybjlXCPFcNyKwFGMU66hLSeTDNinx6L6F5skYQ2j1+Eb0heaj80Wg3ASYo998880+W+buY8aMKfctlF+BBGS5KhDYjj79lr//3V1rmyKXktjLKez1VWw+DDB1dXXFXu6vK0c5djON244UrKhHz549/abDK1euLIlHU2HKJIStBopNTKoGWAAXJREQgeZDYMiQIY6PkgiIgAiIQGkEJFyVxq/iVzMBHzx4cMXvqxtmJ9DdXFf4KImACIiACIiACIiACOy8BEqzt++83FRzERABERABERABERABERABEWhAQMKVGoQIiIAIiIAIiIAIiIAIiIAIlIGAhKsyQFQWIiACIiACIiACIiACIiACIiDhSm1ABERABERABERABERABERABMpAQMJVGSAqCxEQAREQAREQAREQAREQARGQcKU2IAIiIAIiIAIiIAIiIAIiIAJlICDhqgwQlYUIiIAIiIAIiIAIiIAIiIAISLhSGxABERABERABERABERABERCBMhCQcFUGiMpCBERABERABERABERABERABCRcqQ2IgAiIgAiIgAiIgAiIgAiIQBkItCpDHspCBERABERABESgGRP417/+5aZOnVpyDebNm+f22GMPV1NTU1JeCxYscN27d3etW7cuKZ+FCxe6rl27urZt25aUT4cOHdwnP/lJn1dTSIlEwh09fpyb9u4016JF8SWybNyGDeuNTzvXsmXxGZFPXcsObs2qpa5tuw7FF8iuXL92tetovNu0aVNSPp07d3b3/fset++++5aUjy4WgUIJSLgqlNgOPv+ZZ55xDz/8cEmlYNDq1q1bSYMNA2ivXr1cq1bFN6HZs2e7fv362cBQfIe+5557uksvvbQkHqVevHXrVveLX/zCLV++vOisNm/e7BYtWuR69+5ddB4bN270ZWBiU2xau3at47P77rsXm4V/nmeffbY78MADi85DF4qACFSOAH3YRz7yETdk36Gu227dir4xE/7nJz3r9uzb2/Xfa0DR+XDhK8++4AZYXzbA+vhS0sRXX3V7mpC2t401paTHX3rJC3sf//jHS8mmbNeuWbPGTXxqkvvxFZ9zfXp2LzrfrVsT7sKvX+uuvuwct89efYrOB+HqgsuvcePPvtQNGHpw0flw4S0/+ZwbftQ5btB+o0vK584b/te98cYbEq5KoqiLiyFQ/My4mLvpmpIJfO/733ez5872g2Cx6ZH7HnR79untRhw4stgs3AP/+rcbOWiQGzlkSFF5MAjf8sgj7qgRI9ygIgWKOhNIrv3vf915553ndtttt6LKUY6L3n//ffe1r33NfeLsk4oWFF9/5z03eep0y+Pkoov03OS33PQ5C92hx55bdB5TX3vKrVuzwh049syi85j5zitu+vsz3D9uu7XoPHShCIhAZQnQJ3/1qstd/4F7lXTjkw8/xn34gvPcyWedVlI+Z409yX3PLEXHlKikGfSxj7n/s8+ZY8aUVJ6Tv/lNhwKrqaVjDhvl+u5RvDIs1Gf8YSPdvoP6l1S9Nu06un1GjTPh6pCS8mnRoqUbuO/hltf4kvLp2q1HSdfrYhEolkCTEK6YnOKSEO24Onbs6M4//3yHZSLf9MEHH7hvfOMb/rP//vvne1na82666SaHZeV73/vedr+/+eab7ic/+Yn761//6q0N37RO90tf+pIbNWrUdueW+8DmzXXu1HPOcCecXvwkfPJLr7ojxh7pPvH5TxddvKefmOjOP+YYd9EppxSdx+2PP+4+d/rp7riDi9Nybd6yxd1qwhVWnx2ZuH/njh3cj7/+2aKL8Zd/PeTmLVrqrrv8M0Xn8cMbb3G3PTbZnfGpHxSdx6bfXeGWLZhVUh6T7v+jq9swo+gy6EIREAEREAEREAERaK4EmkRAC/y8//CHP5jf7wbvZsanGH/tTZs2uRkzZrh169aV/DyWLFni5s+fnzYf8uc+JITA4447riQ3qrQ30UEREIGqIIDbzdSpS92DD05zEybMcosXr62KeqkSIiACIiACIiAC2xNoEpYrirXrrru6z3zmM65//4Zm6blz53oLUvv27d0TTzzhfz/jjDPcrFmz/Noj3MHOOecc16lTp1Ttli5d6n7/+997S9iZZ57pBgwYkPoNQe4Rc0fDx/ykk05K+eLy/emnn3bPPvusGzZsmKurq2tAa+bMme6+++5z7dq1c3379k39hiDYp08fXz7SS+aXzcJXyvz666+7Qw45xB199NEpYRErHflQXo6zdmn8+PEN7qUvIiAC1UFg2rRl7rLLHrK+a6bbssUWJVjq3buze/TRC91++5XuylMdlFQLERABERABEageAk3CchVwspB+5cqV/lNbW+sFIAI44B74ne98x61atcr96Ec/ch8z/+krrrjCIUT95je/8b+FtHr1anfVVVe59957z7344ovurLPOcm+//bb/+d5773Uf+tCH3PTp0x3CEgt4H330Uf/bX/7yF3fJJZf4gAB33HGHd/nDB5301ltv+QX6L7/8snv33XfdlVde6ctHWrZsmbv66qvdO++8Y5OnLe7Xv/61z/euu+7y9SDYwp133unPnTx5si8PQte0adN8vb761a/635REQASqi8Dy5evt/X/QC1bjxw9wf//72e7mm8+0935/U8aUFgGtukipNiIgAiIgAiJQPQSajOUKYQdLUnAHHGTBEv72t7950j169HA33HCD22uvvdzQoUPdD37wA3f33Xeb5nc/d9hhh7mf/exnqSeCgPOFL3zBfe5zn/Nuhp/61Kfc7bff7r785S97axaC0QUXXODPJ8+bb77ZjbCgCrfeeqv71re+5SMBIeRdeOGF/hwEPK4/4IADvOsi4VwR6MgrUxo9erT73e9+590bcRt87LHHfNCFf/zjH768v/3tb32I0T/96U9eGFMSARGoPgITJ85yzz031+29dzfrO053Awc2jRDO1UdaNRKBpkeAeQReLOmi4aK4ZXkB84N0iXkMyxyCR0y6c3RMBESg6RJoMpYrBKdJkyZ5ixIfBJIQzILQ0oRAJbHHBOGqEbjCdwSgkHbZZRcvLJFw4SPIBK6AWLmwWP3whz90B1sABT6/+tWvHEEwcD3EEjV8+HB/HR0a19EpkjfWKsJKh30yELS4T7rENUMsgh7CU8uWLX05CZlKPrgEUrawdwN7L7APg1LjEWAQwzqJy2e6hFXznnvu8YJ4PK1YscIHWsHFU0kECiHAOqvJkxdau9ps7slbzGJ+h/VH17hBg35pypkXbeK0pZDsdK4IiEAzIUCAI7xSgus/QlY0Ma4ceuih/vfPfvazfm4QTXi1sEUJgpmUr83koauYIhAj0GQsV4U8mbgmKLjvkUfQ+IT8mDQjFCHosK6LSIJB+OIcOjDWZvF7NFph+Jt7IQxFJ99olLhPphQvH+dxjHshaIVEpxtf25UpTx0vjgDRHkPERyJAXnTRRamMXnjhBb/ubf369e60005z999/f+o3tIrHWDREXDl79uzpnn/++QZr94orja7amQjgFohn8ezZK02Zs6c74YRBpjSaYX3QY6Ys6mDW7NIimu5MLFXXyhCgvXpv+KRHvP2T/KPeQz75G0XJ8HvqeJnyyVZryrTV/uPLXF8m02l4d/5QD77nSuF6FCIhnwZ51+dfv2QyV3ZemcfSAtLEiRO9B87nP//51HV4tbDEgIQ3DBsT4+0SEh40KH1JRCG++OKLM1q4OGft+q1uzdrM85FUxjn+WLd+S1nySXeb0H6SvzV8KA1+y+N5pctfx0SgqRFolsJVNoisuSJgxRjb04L1UwTBYL0U1i5cDZkkExADgQsNE2um2FAX69h//vMfb9EivDqWM9wOcVPEle+BBx5wn/70p12XLl18IA3uU0gin3HjxnlXQNZkMWG/7bbbCs6nkHvq3OQ6u8CBQCJR4eq/FsYdwYrE86U9hE2R58yZ4wUrEu0BQSwaGEVsRSAXgY4d25hSxZkFvrO76aYzza25qzv33LvcQw+954UsCVe5COr3ShNYsbzOdeyU3MspKC3D5Dc1Ca6fAId5cEq5GZkY167Z7JYuLjEfy6/WBIflqzd7oQcDD/9GhaekEJUUirb9njzHC1b24Zw1JjgsX7Mlaz6wbnifhvlsaWhgyvho8LhhvA8K2GgALC7CKhUSitv4hu3R3/kteMxkuuHiZXWmHG4YgCvTudmOL1m+2e3SqcR8DHbtqo1u1bJt1rqGgpWVINJOgvCeKlf9b1yzbs1Gt3p5feRn60ezpRYu/QkIzEoisCMINBnhCpe5gw46yFuQSPgi//GPfyyYCW52TIoPP/xwH1AC9z4CYGA1+r5twMt6LCxXuBkiWDHZ/vrXv+4DZCA84SJGGRCiQllYo4UGijw5zrXFuPOx7goXxbFjx/p8jjrqqJS7Y8EV1QV5EUDzx7o7BjFcMKLp3HPP9evnFi5caBHdLksJVpyDIH7qqada+OwHfUTJY489Nq/76SQRgEDLli2s3fSwNtXSf9q2ZYsJ/q3xAhe/K4lAUyOwctkmc1/dmLJQxQWsUN7tBa7kJDYcr11T54Wrbec1/D2ffJh4LzchbYEJfF6Isot8fvZJWazqjwerkz/Pf7ZZtDh3hQlWi1dtNQEtOZ33pUmTj7+u/j7b8kree/Nmf1XOxJyDIFZYrE6xfSDxiogm5hNs9cKcAosWY000EbSLchARmfXlQeGX6caLTShKuBKFIst86YrNrkP70vKBWe2q9W7l0uh2OA25cU4qxZBuE7ZsTVptRLiKV55ONEsKv0q4ygJJPzUqgSYhXDGJxQ85U8J/OSTO5RMSAgprtUhYFoK5HcsD7nus5QpBMvbZZx9vnQprrAjrHkK4Y5YnuiAdGlYuXAhDItw7nSVrwZikRzVLnDthwoTUuUQZjCY6z+ASwL2uu+46d/311/tTbrzxRj+xV2o8ArhU4PrHc+NZRRNr41hztWDBAh9+P5pat27tBW3836PtpPFKqpyrjQARAhGwpkxZ4r773QnWb3SxCRXbSrQ2YX1gtVVX9akCAstNuKpptb1QFKoWJsapCXL9H2GOHI6vMWvTkkWl5UNeWJsWITzYF+4Rt14l3QCTpeOc8J1ro99XmeVq8SqzXNXnk4hZwbxRqr4SXJvKh8NcY8fylK18Ydgehk+6xBIBogRnihTM2PPTn/403aVpj2G52ry5NKGIjLFctW5VWj6wWrtqQwPLVbTQ/N4gRb5Gf+E0LFerguUqbc23HUy3FINft+bry5kjf/0sAoUSaBLCVaGFzuf8qAAUPR9rVHwvrfA71jJcAdMlBLTBgwen+ynvYwRGINw7li/c0QjJHgStvDPRiQUTQMDOlAiQwiddYpDL1B7Sna9jIhAlgDB1ww2n2LqJhy1S6Jt+gtatW3vbOmKc7b+3j2CJQJMjsGL5JitTvTtfKF39hDjMi1Pz4yCM1Esl0XkzboEIV6TUpLnAfDh9peWzEMuV5ZPROmU/pv99m2C02tYkLV0d3AK3Wae4kG/cK1k8glhts275Y/63RGqfuqb20BYvs6A5m0oTiqjTErNctWhRWj7wql293rVpl3QLjLaJOLesgpZd2MAtMH5xju9B2JLlKgco/dxoBKpWuGo0YiVkjFDHYlaEKjoWohXG/bFLyF6XioAINDECRx7Zzyzil1hQi1UWernOh2Pv0EF7XDWxx6Ti1BNAuNqyZZvFKUhGYSIcJsvIHD7V/xH/vdYsV0uXlJYPWePOF3ULRAJKt7aKcnk5yP7wf4ePHcMtcJUJV0sQrkLBySfRIll8f2691StUqz7Drazlqc873zVX9VlU7B+Eq3XrSxOKKOxSy2dLqRYw47bW1lzV1CTdAqMCVIp9BjINhC1jvhbL1TLLJ7sHoM8t0ylbm+pDy8BAh6uHgISrCj9L/KvjPtYVLoJuJwIiUEECNTUttcdVBXnrVsUTWGEuZhs3mMWpXggJE+KwFmabcJK8R+r32Mx59eq6pOWqlHzsWtZctW+7bc1V3HqF4BSEH/5MuvNtE7CCe98aAmOYoMY0nCKFfKhF8rp6Ccpc9nyW/pPMh3PIZwv/aYJpkT2z1WtLF64Wr6hz60u0gMFtja252rq1Yfj5JOcYv8jXOFm+r1uzwbVuHV27VQ8/kyQVeTYhwIUsV02wwe4kRZJwtZM8aFVTBERABERABLIRWGFrrggkQAryUpj4piwL9Qfiv28zC2F1MMtVcAsM59ffON98yB/LVY1Fwku3BioqBDX8fZtgFIQkHy2wlpVV5vaXKr/9kfz/NmHK1zspgCXrlzyZv5uqEWSJuU22aV26cEVAi7VmXS8l8WxZc7V509ogn2/Lrp57sm1FvsRu6LmTjwlXJmLlLE622BZbNpceoj5nAXSCCKQhIOEqDZSmfKhd23burltudy8/+2LRxfxg3nz35H+ecPPnzC86j5UrVro/W0j6SRYQophEJ7yxrs792AKF3BYJCFJIXpvr9xoLmzIXcm05zyVU7pq169xFV17v9zMrJk2bOdsWFK90F1/1k2Iu99e88c57FqFrqbv955cWncfMqa/Y5Gp1SXnMmzHFnXT8+KLLoAtFQAR2DIH5c++3SJZdtt08CCLx4qQ7npRG/JlLF7/gVq6YW1w+XGV58b935z7mZi18w+cTsk/9W58731NT9fC3vz6Ztlr0indmTHCLVsyyA8n+2f8WKW/yezIf34VH8gynLVk2J2fkvvpbVuSf9u3bm2WntXt35nVluF8LN332L8qQj63d+qAc+dS4RXN+W5bysMZdSQQqTUDCVaWJl3g/og1GoxMWk924I4/y0RBLEUrGHjHGB+YIkRiLKccIC0nP/mLFCiTc85LLL88YkKKYMhVzDQEzbrnlFr+vWrHpOBMUCc/bq1evYrNwR5+6yW8/EN83pZAM168/2tYGrXNEyCw2tWhxqjvxxBOLvVzXiYAIVJgAgZ5YA/zWW2+VfOe5c3fz/XquEOK5bjR/fg/flyFAlJIWLNjd72XZrl27UrKxtZIHNql+DS7z5s3z0W5LTdF9uUrJiz0h2cOz1FRbW+uzCNGci82P6wcOVGTWYvnpuuIJSLgqnt0OuXL48OGOj1LTIYBwyN4lSiIgAiLQXAl88YtfbK5F32nLjfBZijJtpwWniotAIxNI7tjbyDdR9iIgAiIgAiIgAiIgAiIgAiJQ7QQkXFX7E1b9REAEREAEREAEREAEREAEKkJAwlVFMOsmIiACIiACIiACIiACIiAC1U5AwlW1P2HVTwREQAREQAREQAREQAREoCIEJFxVBLNuIgIiIAIiIAIiIAIiIAIiUO0EJFxV+xNW/URABERABERABERABERABCpCQMJVRTDrJiIgAiIgAiIgAiIgAiIgAtVOQMJVtT9h1U8EREAEREAEREAEREAERKAiBCRcVQSzbiICIiACIiACIiACIiACIlDtBCRcVfsTVv1EQAREQAREQAREQAREQAQqQkDCVUUw6yYiIAIiIAIiIAIiIAIiIALVTkDCVbU/YdVPBERABERABERABERABESgIgQkXFUEs24iAiIgAiIgAiIgAiIgAiJQ7QRaVXsFVb+mQaCubrObOn22e2/mPLdmzTrXqnWN22P33dwB+w12u3Xt0jQKmaMUmzdvca+88a7r2qWzGzKob4OzE4mEe/OdGW7Vmlp36Mhhrm3bNv536j35rff88VHD97G67pLjLvp5RxFYU7vOrV23wW6fcC1atHCtW7dyXTp3dDU1NWUr0oaNm9yLr73tevbo5vYZ1C9jvrSnt96dae/KWnewtac2VhYlEUhHYOvWrW75yjVu06Y6a7fOt9327dq6zp06upYt7UCZUlNuu6tr17q1a9c7e20aJHh07NDe7WLvcVNIq+19fmnyO27o3v1d7149SipSoXnx/OYvWOLWrF1n/UlrG3+7ua67Ns/xiL56U11d2rlDeB9qrO3H61drbWSNtZWOHa1N2PuhJAKNRUAjdmORVb4pAnTqE5551c1buMQNGzzAjdxvb7d+w0b3znuz3X2PPO2OGXOQ69+3V5MnxgD+/qz57ohD9k9b1mUrVrnFS1e4LTbZIW20yc7TL77hZs9d4I467AAJVmmpNY2DXjieOsO9asJzNLVt09orAEYNH+Jatyq9u9y8ZYubv3Cpa2P5krjv5CnvOQb9ww7cr4EQtWz5KrfUPkwWlEQgE4GNG+vck8+84hYtWeGFq2S7cl4JdMQhw91e/fbIdGlBx2m7H1jbbdsmqTjK1naXW1+4bPnqirRdr4iYOtO/u6H+oWItXAs3wt7fI40DQueOTowJcz9Y7PrsuXvJRck3r61bEzbWznIvvDrFbd6y1YSKDo4xmTF4yMC+7oiDh7v27duWXJ5KZbDF2uHTL7xhCszWfu4QT+F9QKg+6ejDUwqG+Tb/eHzSKyZst3PHHXVw/DJ9F4GyEih9tlDW4iizaiOQtOi87+aZxmz8kaPc4AF9UlUc2G9P95+JL7rnXnnLdTOLTmfr9AtN69Zv8ANFp44dMmr3N5n1CE0XnWq7eotSoffh/MU2eampaem6d9s15+WUaeJzr/nJyPgjD3TUNZqwaNWiQbSJCuVSahoEOplG86yTx7pdd+nk2wxWplffnObb5rC9B5RcyE424H/0rOMa5LNyVa1bYZaHqBDFRHD8EaNKvp8y2HkIDOy/p59MIkMgaNH/THrhdddll46uWxksFLTd8/Nsu+NGV77tRt/dneep564pghVKvr336uNGH7y/t2oicE17f457+qU3XN3mzV5IwZrVHNJq65eXr1ztDjGLfr5p9ryFpoB41SscqGsxc41876XzRAACEq7UDhqVwLr1G92M2R+4PXt1d/37NLROoS0bPmyQaZNe9sLXMHOVeM0msu/Pnu9OPmZ0SuhYumyle9SEsCNsYNirXkhZtmK1aa9e924OviGb29RI01AeaK53rVrVeBfEV15/1/Xr09NNNQsZWlc6YwYUrBDRiXLI/+ADhmZ01WLiO2/BYtd9t11dh/bZhSE0gi+8+rZbsnSlO27sIa5vREuJtvFlcwuZYi5fuBmS4HLU4Qd415W3zHry5jvv2yTpsAYuDW+8/b57e9pMd9Ixh/uJv1LjE2AAPtDaCm2TdrbPoP5eC7rE2iNteqMJ0LvaYD14r94N2gSTlVlzFtoEd7nXlnfdtbMbYJZZ2g3PHM01eXfv1sUtXLzcXEbXei3ydHOZxTpGO9ij527+eoT0Pnvs7oV6ElpbJgoLFi3z3zmP9hNcFxHa51o77dK5kxfWeJc2121xvffoYef1tPJrmW3jt5wdewfaXC9z+aJvfer5yW7pslVeuIq2HbzncMumXUbdXmvXrfftcNXqtdYWzXXb2lffPXv6PpV2PXd+su32sH6QNrhyda1bZ233vRlz/Tm0O/r6hYuX+bZL3xfyRxE2feZ8t3LVGu82jUVt9+5dU7Bwc0Mo3KOXtX17L8gf11zer3K4jvNuzJm/yITN5LsxY84H9e9GcmyKvhsoBbn/nA8WedduJuUIr9G+v2E/0MkNMsVhXFFGnaYZG95v6oqbcbrEebyruMwzLg7q39srHKMp37yi16Agen3KdH9vrOmmMhUAACAASURBVJhBuUg/ts/gfo7njav7nHmLjHMf36fNsWfco/uuDcaZ5TberrDnNmhA71T2KUbGNLjo8Xu4R5Q33hyz5izw18IRN/l+vXs1UIiG8ztZ39gz0i7ivBhXzSDpy5hPmmFcJzw72Vyxu5rC6sAGzwjF60xrB+TZwpj0sX6SNktboL3S91MW2kw0oTRlLO/Xe1v7zqcsOmfnISDhaud51jukplhn1loHTsedzq2KNUgMtEuWrXBDrbNnQrjFXBdY9xISfzEppTMnsS4GNxg68Y+ec7wfsHDXe+alN70Fa98hA7xmbpUN/MtXtHcfPv1o71+92SYHWAgY4BkIWcdCnjOt029pE5I9e3bPyIhBCBcthLds6xiYUOB6QMd7wvhD/eQkJMr08utT/cT8+HGH+EnxCrNaoFHDeodGDXcRBsPZNtgFf3HypH6s08GlQ6lyBJgY1thAS5tM2P9YV/fcy2954YjP9Fnz3BtvT3cnmjDMhJMJwgSzGPCMGZRp8zPNLZTnh8C80dYJPG/uOUwsaftM8BabEMXkA2UAkwYmKEwEcJulzfHca2ra+InPhGdfc7Msv927d/MQcGUkr/FmKeA9Wr9xo3v2xTf9BA3FBoI4E7u33p3hDhu1rxu5/95Nwj2qck9w570Twg6JPnVb21noeprgRZpibad/X2s7ZiGlL2UC/fATz/u+lokr/747fY5vMyik6NNeMEsu7Q3FAEI+AsZWezdes3WlCHV7WX4IdlPtOtpuLxPgeIc479EnX/ACGm33g0VLrZ97zx1+0H5eCORab217/jUvyDDppV8nj7enzTJl2+E+31IS7wbvbjuz3GywdwKlx3p7R3g3Dh01zI3af4gvB2V87qW3/H0RcLCIzTOFiH+HrRyMGyjByAtFCGvb+A0F2PHW5wfBAOXIoxNe9PwRbuaaENLK+gMUfdHEtROfm2zPoLXv82FDXuOOGJny9Mg3rzgf3NRZYzV830HbeW3452XKSurCs2SMrrWxFSvXYQfu20C44ncUgkG4om3Qj71tx1A40n6oBwrAE8Yd6oWRFG/7DQF8N6tbO/olu8dTz73uxo1u0UBYw20Pa6u32GcQrhhDUR6hLMhnLETopz4ITePq23lgxPzgMVPs4jnQy/rYOnsuvBMoXrHwMd1A2cuzwxIbxn3mM1iE6ZfjCuM4f33feQlIuNp5n31Fas4gycQUV4R0qcYmAGhIESDii5HTnc8xBjoELDo8BmISwhJappk2qUW4IqH1PGjEPqlzmKCiBaVjx1qFhpWJJ5NftGgMopkS2l8EsVzaMoRJ1s9wXybI0cRCWso3Yt/BKQscE+xRNnlhoEYz2bXLLl5zxuScRc8MWgyQaPoOOgDBTpaHTM+o3Md53mi6aWvD9u7iBXNcBJlgjD18pG9fTEgfsgkpi9SPNyslA/YHC5a6MYeOcPvts5cvEhOC2nXrkhp8E65CYnKDNZZABOR9ynGjUxOgoEiI1mmaWRQoD5OEoYP7+59w+Zlk6w/QjjNJDYlJ4ynHjvYCHJPFJ59+1Z+DtjqX5TV6T/3dPAkgCKGxR7hnohvaDq7ZIZAKFn0miUxAaTtMWhEETj/hyJTVhP67LtJmAw3aLoIR/Xautkv74/2g78Lllj4bJQRWtdfefM/64R5eWCNxHKGKvp33a4W5fz342HMWCGmu70+5b6ZEWVA+tIoEoGFCzJrJaPAIzuPdQHBCSHji6VeMwTxvmcbyhPLtXfNwGG1ra4cPHeQn1byP9OuMVXhN+H7AhJGx5nEAY8pJP/Dy5KkmXBzilSRYhFiziWCIEIaAy2R+6XKzvNQn+guEFKw5Rx463OcFr6eef90rW7Ausj4zn7zScWHcQHGYyduhg43L9AerzWJWSGJ8mvb+XHe0ubzvbeu2SFi2Hn78efeGeV7Q/4XEGHuKMUAII8G/a5dOXhgLllPmCHxHCbrH7pmVnFiTlth4SN+aK9AQlkc8DgZaf015eBYhcT8UnTz/D502PsUHZQJK2r5mkUJwQpFAPeEY5hqsmUVAHGz5ZlO0pm6mP3ZKAhKudsrHXrlKo/XH3M6AkS55S5VNPqMDYrrzwjEGOfyt0TwyKEYHWzpe1gWExKCEi0E07WHWqU6d2nsXDKxKaAnp/AcO2DPjwM090arhApZLW4ZGbXfTaDHAJIMh7J3qgNEgMrBgbWDwDgmL2oZNyQXGu3U1bZ4JgAh8uMbQyTPoMEHK5iqRjZl+y5/Ahg02AXrqJbNWIfBv9BMGJmb7mDCD9pbBGM0mEz8S2m/WMiDk4IJDWyfxN22eyRIDcKmRqXDpQvONe9QAsw6EhOYZDTuuPEGpwG9MCrpZ2UiUYQ9TJNDWmeBJuErhq6o/mEz++5FJViez2te7mmJp363bLmZZmubbTlTTPsDayBSzNCCw03aYhNO+CdxDu6ZvxUpTaqRK3gXcroYN6Z+axPL+8B7NmrvQuxAG4YrjTNbD+4VQQr+L4gklRU1NZuEK4Y3+OQSL4eFSp/haor3MFZL6kbDuhXdjk/XBKLNwX8OChBAaJs+wCOt0sCLBaV9TfgVvDO8ebAq+0A8gXFHn/Ybu5QUrEpZlXN+ZnIf0gT0zlCvDjH/Ii3+ZuPO+49nQwaw9+eSVyrT+D8YtykmflGl8pX4wCEGY4nmk+45ggsUdxQ2Wz5AQ4Pr17ukW1rszh+O45u9WLzxzDMYoqLB2IpgjdOFeCpf9TWjKFlwDwZQ6YRHNlRhX8XVpU98HR8+njXO/4UMHNhA8GW87TWnn3bV5V1grjQcBzwLhinu/b8I3gnmPDNa1XOXS7zsHAQlXO8dz3mG19EEk2iRdThgc45qe2tr1qbUr/rc0msm4Fp/vuHYQDj0+cEYtZAys8aHYd+zmz84gSIeO4EKAijC4pwOF8IWgg9Y/l7aMAf6QkUN9nV8yzRiDMpaqpPYzGSaZtS/xBeYIoQzQpB67dfW/TzcBEOEQ7Rva1xDePV0Zdaw8BFra2qae5rZEJCpceHrYpAALJ88VzTUTzei6Cp7vrqaFZcKBGwzuJbRLJrO40fCdSJgIYKU8vzob1GmHWFejbZ6/USissbJxTki086jioZXVC8vwVv6jVJUE2rdr49sqXSguXvyNQIVCJ5+2g9BOf/iQWYr8uj+7fpBZVJgwl2IxR2GxZesWryCKtkneI4QoLMOhj6cfDNEIeUgtWrT0fad3y83Rdnk3DzSPgUxWmnzeDRQi6zZscJ1j71m4NliwuFdUSRHvBxh5EFjiIeCJYIf1i0ReeDNQ/7vue2K7NolAhODFOJYrr+0u9uySgiXjLmui0iXyxVpIf5Fv8oyszChr/vD3f293WXJ937YIp9Q5+ty5oJ8JLm+Yi/UsU1gheM2xf0lRYS2esVdymlcAQi5BWnIl1qoiuE22vpiJwOiD9veCJAnLPmyxUvGJpyA4IWSzXOB9s9QhbDNnWLR0uWN9dtQSFr9e30VAwpXaQKMSYA0UFiIW8a9YtbrBwmSsVqxZYfBkwT2JAQXtUFSThkWKY6TkINbZu6/Q6eH3XGhissvElw9+/viXB61hurzYQ4a1Mvloy0IdyJM1Oi+aOwwd+4hhg20SnJxMdDQ3jOAylu5+DNxMjl4x4QytG5pHJjhKjU8A9qxPSDdBI6gEwklcQEmuEURL3tIL3/jrs36QNs9k4Flz+WR/txNtPUaxiXZP/sl7ISAFtUHCvyu8Q3FFQrH30nXNkwDKGYL2xBVY+bYdJq1nnDjGa+1pu3MtmMPDBACytUi4ABabgjU3vCchH96jRL3CLT75LvZepV6XYmXvVHLdb8O3it/z6QfCy8g4FU0IOmE5sb+XCZMImbgZx4Nh8DsCKdZzUra8MtU7uLKxTUi69UHJvf3WN1gbnC4vxrKQKBcf3NcPtXWc9meDhFIKJefa9ev98XT9Epb8fnY9wSSwYmEJ623CPO6CmRJKgoVLlvmxMK5UTXcN7e7AEUP8TwhYlPlw2+4CAYvfeE9Ya7f92NrCWwuTz7qFX0qAu+kic0fEOoxCYPtr0pVAx3ZmAlrAsTM//QrUnYGIBdFo3wjcwMCNBoqO8iXzT2fhM4JGj/rw5lgBNpp7xmxzFwlBKSZbgAdM/CHRqaM1fP6VKX7NCwm3KSw8uG7lSkS0Qphj0TCT6WybOVLWBeY+gHUgH21ZuDcdOB05biAvvvaOuQK+77WY+JgTFAENMYMl+TN44tcd1S6yAJc8uA4NHIumlXYsAQQutLyhzVEaniFuQlilOnbcFkUSjScWy5OPPdyvy+Aa1mqkSwziWxPZNfMI/7uYtpY1GsmNjpM58TfHWKfSupmEUk7HQMcaj0AhbYfJPhYvlENnnzzOW/kRsjKlfNouQgPWKAK3eOGiPvFOYAXZdZekxT7TPSp5HFZM8HFXQ/BIl3L2A1bfZJ1b+/Wy0Toj5KCoCwnXXZQjjAMo76IfFIdYlPLNK11ZCcbAPRhfcIWLJoRd3NP5N0ThxcLNmM34HBJ9HEEfQoIR4zSBHShbvNx4gYTopunKxDEEG9zf6b8Yh3H7xK0ym4WUZ0KQHtpnvgn3bqxMI01BQLAKv9eXKWoZzxEA8UaAUcM6WOCoeldO7sNSAr6jjEUYRLBSKPd8n8DOe54sVzvvs69YzXFNIVIa5ve7H5rgtfsIQ2ifDjVN6/BhA1PaVjpOglOwSB+NP5YsrDirIp07HRuR9ViMffu9jzmCYmyxDhNfbTRpuRIdOz7tLOTGFSauMYxez4Lu+eb+gLCTj7Yseq0XsOo1voRmx7ZwyAHDvHsW63qYZjCoMkFhnUF0I2Xcv9A0MsCj2Ytro3PVUb+XnwCDLJpkFkLTBmnXTE4QlFk/0qlDB78eECGfqI8IPAhjREpjspHO9YZnzzoRFogTtZKJEIN+3J0otFkGd+6P4E4iUAATFN4RtZHyP/NqyDFn2/GT2hbeerBl81ZTPHX3bRChnbVb7dqmD0a0re3O94F6WIeSru3yXrC+C1ds1qPiXrXUhAzaMe18Twu9Xo6EEMPG26zHjSYUH8GCk+s+cMD9mzWvjFdYoVHG4XXBe0xfnL0f6O8j1pLoz9n6g4k7480CW1uGojAqbBHMA8UiikL6CAIrMSYghOFVgYsx/PLJK13dGBMRLohg+/hTr7jDD97PuyqvNW+Qybbm6Z1ps93+ti4sRMrlfPotwvGzNo3ngwKUthHcNWFEQB2ilhKJj76INWwEUcFVEOEFN+hcCfd3+lCiFRK4I0SxzHTdAsu7vT3Lbhb0qZAE14MtGBRciVBJuz3ELFaMuUQDpC8noAvjOwGpsNoicBH9lRSWEjz78pt+PR8KB/JQEoFsBCRcZaOj38pGAN/nM086yu+rscYGbDowNFYk/OpDQiuGpp89qwjfipaQAXvc6JENykLHd7ZFngpuDazBwtUgaMxYoB1d4B+vCBqwsNdKto4yaSlYnzVMe7IOLXzkpHiiPkcddoD/hERd0Ayz3wuCJpPr+HocBmAmzWgvd89zP4/4vfW9vAQQwnl2hAu+6/4nvLCMewmTxWQkxxZ+gkEkMUIrY61FgGZwPtSeNxMJ1nPE0+CBffxECmUBwhguhUeb8iCe2G+IdQNoXwl5TOLdYALIb0oikIlApraD8qevaeKZeK40ywBWdkKFJ9tuwq9HxXUqU0q1XZtk03aH2IT12LEHNzidyTjRUwmmwrszwTwYcDNjck3kS9bklCPhPk4o+XhKbq58WPxwxu8IT0QrfNaEq1v/9R/PgvccDwuEq0z9wBDfDwxNKTnYIw/LyGMTX/If3MkQSqabMiYk+gbGjWds+4SHn3gBbZtnw7iAJQfhCn755JWpQigQTzz6UPf8y1Pc3Q9O9G56uGQiKLA+GAt7GDcRMOjLEMZuu+e/vo8jQu5gEyiIxhsSrv7HHHmQKUDfdP+4N3keecLmoBFDMxWlwXG8RuBJsCj+Tad8Chd4Jad5kCCotrO1hYUmeFJXEgIWvox8Twpc0/1m8dSV/pq5RXwNNuukCVKF8isIXYWWQefvXARaWOPaZqeP1H3SpElu7Nix/shFF13kbrrppp2LjGrbqAQQHtgslzVXaNbS+YM3RgEQxtg7hc6UyS4DWzYXBtwV0FjiChAiWDVGuUKeuGDgJshA9qqF8mXjxxA6uTHvq7zzJ5B0V13jXWfQ7MYnhzzD1dbOWPSN9RKtbrY1ffnfOXmmd000CxmJxeOVaJeFllHnN00CudoOk9jVZrHi36QVo1NZLaK4ktGnokzCHbApW1tDX1xnm3Dv0rnDdlE2c/UDtACmV1j/sKaxJi6bAIEyDTYEvMAFOO4pUUhemVofroEEkSJCJMIC24Ag+Mbd8Xj+hJf3/ZeVO/57yN8zsDDl1C+u4MxUhuhxLO+EPz/1+COyWhcZsx8xwZlw9cGFMZ/88zmHd4Ixl7p0tkjC8f6cPBbYWqtHbJ+20aaMYIuUppaYo998882+WMzdx4wZ09SKuNOVR5arne6RN40KM6gSAY9PpRKDE37TDCqENT/YNFfZBCvKxeQ57qLVmOXduLHOTbTd5Ons6cTRuio1LQK03bDBc7qSMRHB4pouKEa68ws9hjBVTCCXQu+j86uPQK62gzUh7EfUGLVn4ppu8toY9yo1T95jFHCZUq5+gOvwivD9AJ8cCatPNhf1QvLKdCu8O/iwITOC0zu2jQMu6FjUoh4ctIN8+hjPgCi39ZFuM903epxxmOiVKC3Zaw3LGq6X2VKN3Ye121gVy514J3ADTJdYB41CluivBLnoY6HalUQgHwISrvKhpHOqggCDB24wpUS+amwQaIvPOXVcY99G+YuACIiACOykBBAc8RjhU+mE6zTum1iDWOs1wqKz5rJgoszKptBqjDogBLIuDVdZIvyONZfw6D6ajXFP5Vk9BCRcVc+zVE1EQAREQAREQAREoMkSYH+ok4853K9xYv1UtjXPO7ISlAtr2b5sbGxBXXJ5uezIsureTY+AhKum90xUIhEQAREQAREQARGoOgIILdENmJtyBVn3Fl/71pTLq7I1HQLa56rpPAuVRAREQAREQAREQAREQAREoBkTkHDVjB+eii4CIiACIiACIiACIiACItB0CEi4ajrPQiURAREQAREQAREQAREQARFoxgQkXDXjh6eii4AIiIAIiIAIiIAIiIAINB0CEq6azrNQSURABERABERABERABERABJoxgbyiBRLvn4+SCIiACIiACIiACIiACIhA0yCg+XnTeA7RUuQlXN18882Oj5IIiIAIiIAIiIAIiIAIiIAIiEB6AhndAvv27WubptWkv0pHRUAEREAEREAEREAEREAEmgSBVq1aOebuSjueQEbL1YABA9wdd9zhrrnmGrdu3bodX1KVQAREQAREQAREQAREQAREoAGBDh06uG9/+9uuf//+ItMECLQwX00tpmoCD0JFEAEREAEREAEREAEREAERaN4EMroFNu9qqfQiIAIiIAIiIAIiIAIiIAIiUFkCEq4qy1t3EwEREAEREAEREAEREAERqFICEq6q9MGqWiIgAiIgAiIgAiIgAiIgApUlIOGqsrx1NxEQAREQAREQAREQAREQgSolIOGqSh+sqiUCIiACIiACIiACIiACIlBZAhKuKstbdxMBERABERABERABERABEahSAhKuqvTBqloiIAIiIAIiIAIiIAIiIAKVJSDhqrK8dTcREAEREAEREAEREAEREIEqJSDhqkofrKolAiIgAiIgAiIgAiIgAiJQWQISrirLW3cTAREQAREQAREQAREQARGoUgISrqr0wapaIiACIiACIiACIiACIiAClSUg4aqyvHU3ERABERABERABERABERCBKiUg4apKH6yqJQIiIAIiIAIiIAIiIAIiUFkCEq4qy1t3EwEREAEREAEREAEREAERqFICEq6q9MGqWiIgAiIgAiIgAiIgAiIgApUlIOGqsrx1NxEQAREQAREQAREQAREQgSolIOGqSh+sqiUCIiACIiACIiACIiACIlBZAhKuKstbdxMBERABERABERABERABEahSAhKuqvTBqloiIAIiIAIiIAIiIAIiIAKVJSDhqrK8dTcREAEREAEREAEREAEREIEqJSDhqkofrKolAiIgAiIgAiIgAiIgAiJQWQISrirLW3cTAREQAREQAREQAREQARGoUgISrqr0wapaIiACIiACIiACIiACIiAClSUg4aqyvHU3ERABERABERABERABERCBKiXQqkrrVfFqbd682S1ZssTxbz6pVatWrkePHo5/H330UffKK6+4iy66yO2xxx75XN6szlm3bp17/fXX3ahRo1y7du1KKvuWLVvc0qVL3aZNm7bLp23btm733Xff7nilDqxYscI99thjbtddd3XHH398pW7b7O9D+/jLX/7iOnXq5D760Y+6Nm3aNLs68e7fe++97u2333bdunVzH/rQh9y+++7boB60Xc6rq6trcLxly5a+H9htt938vztL2rBhg1u2bJnbunVrgyrX1NS4Ll26uI4dO1YMRaF9cFNps/CjLPkk2hl9U7m5zp8/3/3nP/9xRx11lBs8eHA+RSnpnKlTp7qnn37anXnmmX4MzZbg88gjj7h99tnHHXzwwf7UpvLsZs+e7Riz+FCmxn4Pinnfim1ftAn6uQEDBmR7PPpNBKqXQEKpLASsE0r85je/SRx66KGJFi1a+E+fPn0Shx12WOpjnXti0KBBidatWyd69eqVePXVVxOLFy9OHH744QmbUCR+9atflaUsTSWT9evXJ26++ebE/vvvnxg9enTChKKSi1ZbW5u49dZbEx//+McTJqgl7M1M2KQ8cckllyT++c9/lpx/MRlMnz498ZWvfCVhA33CJjCJq666KmET6WKy2imvefzxxxM26UvsueeeCRPCmx2Dl19+OXHyyScnHnroocQvf/nLROfOnRNDhgxJ0C6iac2aNYk///nPifHjx/t2Qh9hAlXikEMOSZgglthll10Se++9d+Kzn/2s7xuqPcHnO9/5ju8nYWGCpecwcuTIRPfu3RM9e/ZMnH766Ym77rorYRPDRsNRTB/cFNqsKfIS9913X+JjH/tYwibovi+kDR100EGpMYfxaL/99vNtkjHm5z//edk4mpCT+MQnPpHo0KGDf39h0php0qRJiVNPPdWPn7SZd999N+PtbHKf+OpXv5ro2rWrr/dNN92UOndHPzue2y233JK48sorE8wbKM/FF1+cMKHXP0PGtQMOOCBx4IEH+jHFFIap92Djxo0Z65zrh0Lft1La16JFizz/O+64Q2Nhrgej36uSgKvKWu3ASpnlwg80dJCZJvtPPPGE7zhffPHFBB3Yb3/7Wz9ATpkyZQeWvLy3ZnL4//7f/0ucdtppfnBDgCyHcBVKyaA0ZswYPyljYrt27dryVqDA3BCmvv71r/u6VrNwhcBMmy02mTZzu4kyk9svfOELif/7v/9LIIA0p7R69Wo/4Tv//PMT1I0PAhYTC9pouvTCCy/4SRPCxB/+8IfUKcuXL09897vf9coC+pC///3v6S4v+Fipz6zgGxZwAe8NAhbCplk9EjNmzPBXw/H+++/3whbvFHzh0xgpVx/c1NssE9mg1PvUpz6V9v1csGCB7yevv/76siKkjR9xxBEVEa4o+Pvvv+8VELmEq9CGLrzwQv+eRYWrHdnf0NZ+8pOfJL74xS826OvoR4455hg/np111lmJIETR9swi7t8N6vHpT386gYKx2FTM+1Zs+1q5cmXisssuS9x2223FFlfXiUCzJaA1V2U2SuIShJkfFww+6RLuE+PGjXO4CeEC8/nPf96ZNWY7N6J01zaXY7gAfuMb33Bf+9rXnGlTy15s05am8g3My36TAjLkWVMOGxwLuKp5nWoTNGeCo3flKibhMvvTn/7UPfvssw0ux7XnhhtucD/84Q+9a2BzSrgomeXKl5tnj1vfl770Jfezn/3Mt4d0CZc3+ghS+Je/TcvuTMB0H/7wh92qVas8K5iXkkp9ZqXcO59reW/MSuXZRftMOJpixrcLeP3rX/9yNknLJ8uCz8nWBzeHNoubH+5+JOqSrg8yTwn3P//zPxnHpIKh1V9gViTXvn37Yi8v+Drel3xdy2lP6fqTHdnfmBXWPfzww+6b3/xmg7LBkHZOou3zHMPfuD9+73vfc7A2S5B78sknC+YWLijmfSu2fVEfUzI5E2xLKnPRldWFIrADCaSf/e/AAjX3WzOwpRvcovWi8/zWt77lRowY0dyrm7P8dOa5eOTMJM0JUc6ZhNg0lzXqocaoZ6MWuIDMWRNgFga/1qHYdOedd7pf//rXea9LLPY+lbxu7ty5zqxtvo3n+/yzncd6M3Ml9pPgefPmuVmzZhVdnXI8s6JvXsCF2XiYS5szV2rfZp566qmKt53m0mazMQyP4owzznCf/OQnC3gyOrWcBMyN0V133XV+Xam5QDfIOtfzMzdBr6wxDw2/frmUlO1emd63bNdka18DBw50xx13nLv66qvdwoULSym2rhWBZkVg51k93UQeCwvazR3QmYtGSouIBQvtNxo5OtF4MndB98wzz/gFosOHD/cLc7HckJh0vPTSS96aQAe41157eQsYmm+Os4iV43Ryw4YNS2VtrgXOfNiduev5Rfa2XsTf++ijj06dM2fOHH8Ov3Nfzi33YmhuNm3aNDdx4kR3yimnuN69e8erX9R36k/Zzf3SB7mABdwZ1MyNy/OD3Ztvvumef/55H0yAZ2JrExrcjwHxgw8+cGPHjnXm6uiFCwY5OPXr1y/vsvGMuZ7nzMTZ1qA5W4u2nSbZ3KLcO++84wcknh1aSo6Z640z1x9/PpN5rD+UDQvhkUceuV0++dzPXE88I4KoDB061AdVgVHfvn3diSeemNIQM6Bfe+217m9/+5sbYAuUbY2AtzbQDrG2kGh/EyZMcOa28MdjtQAAHepJREFU468bP358SnnAQu0HHnjAXXHFFc5cRTwDApKYe4+ztUn+etojbdzW2zhba9OAK+XkN/iZj4BvizyP8A6Ek/OtT4PMM3yhzROcZObMmd5CirWZ+wZBnt8pD+2K95IF3A8++KD/nefav3//DDnnPgxvEtprtNXpUq7ylfrMwj1pR+bG6J8z7w5BO0j0BbaGwz8PEn0MyiLaDs+Ba8zVyZefdsL7VUxCERWse9wjOsnLxSB6v7feessLZzwr3iMsOby/wUIQ74Mr1WYpI/07QvoJJ5zg6HN5jygP/VF8El4MQ67hPScvBNVoKld/Q560BZ4JlhmC+8DZ1n+lDVCT79hCP/Haa6/5fol+l/4hW+J9ZSyh/dMHZUqZ+hvKT1+DZwltj2dBnvS/ISBGPM9s43M4l/Zk64994Ips5YrnHb6ba68fr2j/mSx3hbwPme6T7X3LdA3HM7UvfmMswwJt68zc5Zdfni0b/SYCVUNAlqsKP0omY0RWYiBi0o5Gh0kbkzcmrdHE5Bo3LFuP4iecdK7nnnuuF0BsEbwzH21n6xL8xMXWbjg0k3/605981CEmJEw+f/GLX/jjRGPjOIKE+eX7QfZzn/ucn/QyqP/v//6vM/9oP8hzX1v47L797W/7QZJj3PfYY4/1E/9yJgZBXAdsEb+35jGpKCUxuaceCJNEX7T1bc7Wa/hj1AmtoQWfcJMnT/buV7Dl+AUXXOA+85nPeMGFAd0CD/hnwoTx97//vfv+97/vhT/cOdD+MmlgsMgnMZHg/rfffrt/BkSvQrgyv3svVJA4Rv4IwLYuwrt/MLlCqPnBD37ghR2O8eFvysNxzvnjH//YoBi57kcdf/zjH/t7cT2R0iwgiLP1Cd79BC64qoZJPpMLyhmiWqE5RbBg8kxCu4+wY7757pxzzvHXMaBagBf/O+cxEUcw5/m+9957XsCi/T/33HP+OfG8bHG8t9ZEE5N08oIdWlXcZ2ir8GPiQyq0Pg1uEPvCO8bzJtoj5UM4p/58p41wLNyTSR/14plSd+qEgGprOrLdIutvvG9MTskTIS0+Gc63fKU+M9wJbf2XV7gwGaR9Un9beO8uvfRSLzwxiSUqogWX8f1EELQRqJgA4haMciDTZDAriPofKQf9D5M+BDqEoXwZkAXtjfcJq6ut0fR9Jt/pA2k3mfrgxm6zlM2CUfhJPAqS3/3ud/59Oemkkzx3+kPec6JPlpoQdnl/UACEVM7+JuSJUIJARRuhT6f/pO/l3QipkLGFusPD1iT79wDBJIxRcSY8yy9/+cu+LdJWEJyvueYa326jKVN/g6IqjIv0y/SJ8EcYoM9n7EM4iqZ8xud77rnHX0KfjGKCehQaEZi+gDkDCiyUWvR90VTI+9DgwjRf0r1vaU5rcChd+4qegEKO58E4UUrfmKsc+l0EmhSBZrtarIkW3CZcPhKgufckTHhJmBtU6sPCbQsJm7DJpF90TAQsFtea4OIXbdsaiwa1MktBwrR1CeuUUsdZkGyDh19Ez73ConkiDXKchfQ2oUidb5Nof5xgCxy3iW/CJkU+EheRpVhwapPdhAl5CRtEEmbx8Qtuzz777AQLUklcZ4KWL6NNvAsKHsG9qEOmgBYs2KXMLOI3l4m8IwvBDgamyfORA+EZEgvfCXZBVCkTphI20fQ/8a8Jsj4qk03YE2+88YY/zvksJiaylE0G/TGCAJjw4uvM4mkCD3CM50VkQpjaoNEguh0BPDgeDWhhk07PMvpsCexh1iYf4evGG2/09yOZZt2z4sNzDguXef7woV3Zep7Uc7HJjH+O0UiM+d4P7rRDs7QkiGIZIn0RUYroYpSB8oREgBLuz7kscA7JwgknTEhLmBCaIEIXydw//HlELWMhPYm6mBCfMD/8hE0UUtcTwIJ2TBRN6kLkvZAI8GIWNR89Lxoli7LA3qxDCVNW+NMLrU/qJrE/WPhOdC4i1IVE++c9JkgNi81hHNJf//pX386I9hVtg5ny5zhRzmhTtBWuJ1E/At3YZNK3OXiGukXzKqR8pTwzymOCh38vKI8Jlwmz2vq+iCABNvH1z5lIh7xPtiaqQZV5jmbdTb172XjAlnsQYdHcIFOn0rfxbvObCe++PKRCGNCGyDe6qN4URAlTkPi+M1sf3NhtlroQTc0UBr7t00fQx/AhcAH1pl+O9ufpOFJOEwR8XwgnxoIw7tCXEyzJFHK+34+mcvQ3BGIwwcO/A/SpprxLcIxoeET/pH9hjOH9pB75ji30JQTKoI+CR0gmLPngGdGAFuRtVnEflTYaQZC+h2i9cAwBLbL1N4wPjM/0y7RxE4j8bWk79L+MKWG85Xgh4zPBWYjYaIqJtM+TvoNxgmfIGBv6Eupj65b9tYxPJoRv188U8j5Q7kLft2LbV3hm1IWANNHxNfymf0WgWgnIctVIoq41GK8VRSPGh4Xv/IuGl99IWAKwOqG1j7q78BvWE6xSnBvdywMrE1YsNEy4tuAqQbIBxP8bT2jxoglrFi5LLDbFCsAiZ/YmQVv6ox/9yGvHsHLhakbCvQ6tIJYaLA9o/nAlKVeifCz+hwtuY+VYP0Ud0aKjMUfbjuaMhMsSLpNoHG3C4S2GJFhQP6wzoW5cy3OhPLBAG8sxnoUJUd5NBI06lr9sCQ0olh60jbDkw7PCxQQXJVzJKA+JZ8kz4flQ7uCCSdm4L6ywtIWFzzw36oS1h72/SPnej3qRJ/+ed955XqNPghXWGp45+7DkSpSJNoxmMixsp11TdjTW1DdbYsE5llg0stGEthaLHO2cBd3Rva+wpmBJpd5otdHclqM+3Av3FZu4eStHSOT9kY98xLcX+PIpR8KqQgALmBOQAC09bYz3D/fTuBtSucqXzzODN+60PFf6Jix3vAdwsCiG3upJP0Q7pa8iIE90vyUsVvCifeabaMNYVLEUYIHAomMRV731g3ui8S+UAW6o9C24LaFhJ/HeYIkgZeuDM5W7XG2W/HnnKQOssJzz/PlgreU5MW6E8SJTeaLHqS9u1mHcwUpMP0VfE0/l6G9CntQBjwDWC+JaTbsgQA3HsdBRHvqTfMcWXJCpO/101PJJ/x13HcdiTPvA8h/dZ4v2S18RHVszPTvqwbhB38qHoDSh7dJ30/aw/MGXVOj4jBUO1764y3P8mfD9v//9r3fTZgzjPcOjhX6CeuJtEh3rC30fovfL532Ll6+Q9hWuhT9zFcZX2qaSCOwMBLTmqpGeMq4xuI+ZNqrBHXDPYKCPpnQCBZNL3KuYEIQOnWvonOmoGCw5p9gUfLeDcBbywV0OFwZM+LjURRMTTgagMEkp9t7prosLgenOyfdYdDCNC60hqlv8OMIAk5ggpIR7cV68bDDDZQQ3GAQnJsnphFueDwwRWHFLim+Oy2SaiTWDLhOITOXm/vzOM4+2FdoYAg3PAyGmkPtRlnC/+H0Di3QTsvgzYB1HtD3TVmnjuKXBJQiO8eui36lT/HmwfgABg/rR3uPn44aIYIV7GhMMJlyl1scsmX7NGO5n8bV3CKIcx+2PyQ5CRrr3Nls947/RZnD7RIjCvQ4XQ94vs45td3+uLbR88fuF74U8s/BsMk0KEXwRgnERZPLHc6EtsiYQ19J070WmctEmuQ/PnOdJ38lkPTqZLpQB7xfCMmWkX4M3E25cYKOp0GdZjjbL5D3e7kOZeN9579Ntlp6JH8dpo7YVQIO2iaKESXk8xd/78Hu+/U00P64JypVwnHWpKKh4p3Anpy3kM7bQh6DAQMhhDXE0wT3+rFgbad4HDdZEhmvi53I83bNrcBP7EmUT3FwR0lHkkAoZnzk3jCu83+nKFL0/gj9u6bhA/uMf//BKCyJnwjKeCn0fovfO532L36+Q9hW9lv6U8ZWgFvDIxSB+X30XgeZGQMJVhZ8Y2l8m05kG1VAcOj4mAQwy+FvbZpqp9QYMuKzHKHaReLYqYw1gUo3/OlrDnS2FwTNXvfGdZ0LBs8wkXCFYoDXGKsOauPhEIdc98v2dwYpPIfcrRTBPVy4sfkwI4IEGmUktWvNiE4oFJiSUM52Qx4SZAZuJPBrRciQEOiYytIE4HyYDBODgvcUixzlxYbmYMpAv7zLWUKyjhGpG+856x7hQX2j5cpWnHM8MyxaCJutbsB5g0SVIDBMpLK6FJAKHsO4uWzCQQhkgSLLGytzsfNAeFAGsGcNKHtaIFVLGbOfuiDabrTzhN94T1kKWq76hv8l1b/o93lOsVryjCHn5jC20S6xcWL0QbLIl+l4CSvAexYW7bNeV+luh43NYv5qPsoG68Mx4p2CHQofxmK0I4oqmQt+HaJ+Vz/uWD6d82lfoy/IdX/O5r84RgaZMQG6BFX46aCtZwJ9Lc8PvLKwl4ABWJCauaM5wv8GFiEAXDD7lTgx+DFgIBUqZCTDoM1AyYck0YDLBZDBhcXwlFvJW+n7Qoa2wjwkRGInkZWsqvCUml/IgM9nkL7R/GCPsMIGIJzT7cGeyUK73gAkA5cbSmE5gC26aTOIyPfN4OfP9TtAZAnWQCLCSbk+ncpWvnM+M54RwRb9G8AAEKyx7KJHiVvF8WWQ7rxgGWAIoE8oirLyEw8ZSWO4+bke02Wysor9R3+AGne81pZ7Hu4mlhn+xQuU7tvCMUCCiqMll+aYtcx79LMJbpVKh43OwhBfi9YGCir3ucEnEMsyYH4S0UM9i3ofGYJSrfQULLHOXXHOfxiif8hSBShOQcFVp4gXcj06VNQhElMJdD2027kms0yFyWmMk3HKYYOJqkW69DOvIQjSzxrh/c8kTNxQGdgSJTBNtJv08L9xcWIOSLrGGjTDR5UiVvh9lxhJAVDiiV+LGVa6BE6EVrTcTp3R8goUJa2C5LLjkxSSQNo77UjzxPlA/1gJleubxa/L9Tn6sWQnRFq+88srt3IfLVb5yPzMLAuDXxeHyYwFavPsia7QaIxXKgHUyuKjiUsU6HvouIoDCgO/lTDuizRZafupvAS+2s8wWmk8+5yNIIAyw9ok1RPmOLSgvsKqgTMRVNlvivcFCRl+Mi3bc4pzt2lJ/y3d8ps9AUGJcZdwopIy42TLuo0wiOi3Rf6lrSIW+D6XWOdf1mdoXfSeCYKGREnPdT7+LQFMlIOGqzE8mrIXCipDvQuRwXvx8FvSiuSLgA+tLWGyP1Su+HoQqBPcJOrGQD504Ex6+59uhM/FgEGTyQVj3aEfOYEd5yq19oszsYxJdEJ/rsUT5RsuY67py/I6WlPVWuERlm0QymITACIT3RpCKJkJ5Y4mML9Autozlul+8HVIeJjFMDmjfUdcO1kXRLtBOB2tV0DpHnxHXUz6eVVwbHW2b4d4IOUzYmZjgGhtdd0h5eDdoL4SNDwE+MnFLV59056KwYI0PE6D4tgjUmckbbma4PYYUfdfS5ZnuGPVNdx3vNUEAsAAi4LGonvUqIRVavlKfWbqypzvGfXDnY+Jk0Q99W0DgyjeF9hRtL5muLZQBLmYWyTC1zoN1QGxkTZuJhv0PzyPaVirRZrO1zWy/xfnk078zFmAVpQ2XSwkSL0f0O2shEWxZL4RLbb5jC+0Il3isx3htRPsL+g/aC2yoM8+IPpbxj4l91BWZc0LbivJJ199kqwe/pXsWhYzPWA1Dm0v3rKhXOB7//ZO2dpsP5+AZQJCXkAp9H7iukPct3CdepnS8MrUv7oeSAyVYVCmM4M2a2UpaHNOVW8dEoDEISLgqM1VcmBgMmITmuyM5E0c6b9zHoh0sA+G///1vv6cR/tdorViYfffdd/tBK5oYvJicYdVi7QP7abFnERN4BlK+szcRHR0fyodmMd6xEZ2I6Fx05Ow7RSQ5NJ3sqcQgycDHXib5Jiaq3Cc+KQ/Xw4qF76zVwO0hn06ca+mYyRtuuNxh4QiJyT35klcYSKL345r4ZJ3rOU5Z42VgMXY0ch6MCVTBHihoZElcA0vyiAqJCAisPcESglUC1y/2s2HizCJzXJXCWojg3hIdaMmb79SJukSfV3iG3Du4XRRyPyYvlJd8QiKvIKBHmSJQMznAlQohg+hXcOAY7QuXMNolG7UiIDCYwgErBm2PyQ/rBcgTwZT3hIkTz4Gy8zwpR5QdEeMQZBC8oxMK1jzhiojLbHRdYCH1SVU48gfBTmjzWMwQEqIWM5QNCJJY6aIThKCJhlm+Qj51hwOsw75ZoRhYWFgjhLYfzrST0I8UWr5Sn1loy5QTATpbYvKIoIuAzfrQaIS3bNeRd1AA0bZz3adQBuTP/kLRCKeUjXyiESHT9cGVaLPRdz7afhgLeB94N6LvZzqWcKMdkrgu3ufxnbZLX44lKLgHlqO/4Xnz/lPGUAbKQT/KOlPeJda3oVjJd2zBAk/kRCxS7OvHOzlr1izfz7MfGH0Q7QTLI+MbfQQR/YhEx3o6lFj0JwjV9NOhDSB8kTL1N3Ci3LT76LOAE/1StJ/l70LGZ9ZVIjCiLIly8gWyRHlxR+be1C3qlkx7JSBSCBZj26q4CfV7/BXzPhTyvlG2YttXqBv1ZfxjHAz79sGX8RP3Yfo4JRGoOgL2MiuVgYB1WInvfve7CQsV6/eq4MNeHLYQNbWfUvw27CnENewHwvk2sUqYlcrvpURirx3y4DdreA0+7C3D3lMmRPhz+Zd9tDjO+TZhT7Dvkglafo8T9othLxpb1J2w9R1+XxLT+vn9UdivwzrzVPHYp4R9sdgHK9SFstm6L79fST6JurFviw0oPg/zvff7Q7H/CfmHZAOX3wODsphbVNo9QKL341r2cbEJnN9LDC42+Pg9QtgzivtSdpv0+z1W2IOFerNnCftWmVXOl4f9TMya5PfOMaE1Ye4V/jh74piV0O9lZFYlfw9zA/P7/FjYer8HiQmXfn8iG4x90UwDnjDhN/WsbP1JwsLa++Mk9trhephTXpto+HKxJ0xI7P1kgpHnwDM0gTPBPkUmWPhnRzn4jXpzrmlN/Z4pnMtxnqkJO55frvvZYOkZUk7qzD5VsIMFjGxS44+z15JF/vNFpK42yfF1oPzcjzZv2umETW48a46zf5cN/H7PNMrFflkWftnnYa6mKf7sa8V5HDOtrN9bhjxojzyv0M7YE4x90GjDJpwmTLjxLM1tLrXfVDH1CdzT/Qt37kGbhzEf9myCRXjmtCf2kKO9wIq9dygn71c4J563TeD9NbQnrqEt0B7ZDy+6pxXPMOyrxXm8Q4EheeZTPs4r5Zmxz5opAvzzowwWZMP3JyakxKuV+m4ht/2+Qux9lk+y9Vm+nZvrrGfB8+d63iXaVbaULwP2dqJPZg8m2jx7AvGemQLA75+Uqw9urDZL3dizafz48an2Y5PNhE2+ffsPbQT+9OthTIgy4R2xjW39/nGhb4EhbZG2awo3vx+cKd38PfiYQsL39eXsb0xo8XtSsT8cezbSnuFta4a3e46FjC0mFKfeL+rFOMkzNMuu3zeRsZL3kMRzNOWf50A9zbXQ3599sujbGVvMSpKxv6E/pdxcF/o39v6jLzWh1OfLh/6ffflIhYzPnM9+WfS5pqjx14fE82b/vDCe0RfSRhkro30JbZ7nyrvCO8PeXqFd5PM+FPq+ldK+ovVj/z767+jegdQL3owRZvVuwENfRKAaCLSgElUnMVZJhbAGoDFH44hWiw8aND5oYtHK4W4W3Q8HrRSafSKOsQAfrROuEywsLjShQcPNAg04GifyaYxEGakPVqByBScoRzkJKoAbJgv20ZgSuYk1VNmimWW7L9pXng3+95lCW2e7vtDfyn0/tLW0BzS8PKvQHviO1hgrVnBxRAMML75H10RRfzTPuI2lc2/NVEfaCPmRuDca28ZOWN+wWBKYActwY7X/YuuRT/nK8czyLR+BIuijiHyINaMSKRcD2mZItF0sAiYQ53QljZa9ObXZSjDPdA8sS/Q5PPtc73e+YwvPL7gAkyfrsbg2U/+JhQR3TyxmuG3z7PAMwFW13KnQ8RnrFF4aWPAb6x3J9T6Um0Gu/Hh+BObCkwSPjeg8hHkM4wZ9awgWlCs//S4CzYWAhKsm+qRY88Fmmrg/pYvyxKSJtVi4Q4QNf5toVZptsaLCFW5iTW1y3WzBquBVR4BJLOHOce1lLxwlEahmAsWOzwifuIbjKrkzvCe4YuI+iRI43T5d1dxGVLedm0Bl1Is7N+OCa48/MjvZsx4juu4lmhFafLTE7FivJAIiIAKVJsD+QkQVxWJBwB2sugTjUBKBaiZQyviM1wLrp4mqyVreak6slUUpSRAsCVbV/KRVt3QEtIlwOio7+Jj5jPvISmwoSnhr88f2i4ExnSNQsdAdK4qt1yrbxpA7uMpN8va4EGEhJFgB7g2yXDXJx6RC7QACuB8R+AYBi/cCFywCmuQbyGIHFFm3FIGyECh1fEYhioWXvStxO8dNtdoSgYxwm8RqpfDr1fZ0VZ98CMgtMB9KO+AcJvMIV7gFouEiGhN7WhB1iA37CAFOBCal8hPANx7LIdGuiMqIUIuAS1QqIiZWaj1J+WumHEWgPARYQ4EGnv6J9ZjXXnutj2amJAI7AwGNzzvDU1YdRaB4AhKuimenK0VABERABERABERABERABEQgRUBrrtQYREAEREAEREAEREAEREAERKAMBCRclQGishABERABERABERABERABERABCVdqAyIgAiIgAiIgAiIgAiIgAiJQBgISrsoAUVmIgAiIgAiIgAiIgAiIgAiIgIQrtQEREAEREAEREAEREAEREAERKAMBCVdlgKgsREAEREAEREAEREAEREAEREDCldqACIiACIiACIiACIiACIiACJSBgISrMkBUFiIgAiIgAiIgAiIgAiIgAiIg4UptQAREQAREQAREQAREQAREQATKQEDCVRkgKgsREAEREAEREAEREAEREAERkHClNiACIiACIiACIiACIiACIiACZSAg4aoMEJWFCIiACIiACIiACIiACIiACEi4UhsQAREQAREQAREQAREQAREQgTIQkHBVBojKQgREQAREQAREQAREQAREQAQkXKkNiIAIiIAIiIAIiIAIiIAIiEAZCEi4KgNEZSECIiACIiACIiACIiACIiACEq7UBkRABERABERABERABERABESgDAQkXJUBorIQAREQAREQAREQAREQAREQAQlXagMiIAIiIAIiIAIiIAIiIAIiUAYCEq7KAFFZiIAIiIAIiIAIiIAIiIAIiICEK7UBERABERABERABERABERABESgDAQlXZYCoLERABERABERABERABERABERAwpXagAiIgAiIgAiIgAiIgAiIgAiUgYCEqzJAVBYiIAIiIAIiIAIiIAIiIAIiIOFKbUAEREAEREAEREAEREAEREAEykBAwlUZICoLERABERABERABERABERABEZBwpTYgAiIgAiIgAiIgAiIgAiIgAmUgIOGqDBCVhQiIgAiIgAiIgAiIgAiIgAhIuFIbEAEREAEREAEREAEREAEREIEyEJBwVQaIykIEREAEREAEREAEREAEREAEJFypDYiACIiACIiACIiACIiACIhAGQhIuCoDRGUhAiIgAiIgAiIgAiIgAiIgAhKu1AZEQAREQAREQAREQAREQAREoAwEJFyVAaKyEAEREAEREAEREAEREAEREAEJV2oDIiACIiACIiACIiACIiACIlAGAhKuygBRWYiACIiACIiACIiACIiACIiAhCu1AREQAREQAREQAREQAREQAREoAwEJV2WAqCxEQAREQAREQAREQAREQAREQMKV2oAIiIAIiIAIiIAIiIAIiIAIlIGAhKsyQFQWIiACIiACIiACIiACIiACIiDhSm1ABERABERABERABERABERABMpAQMJVGSAqCxEQAREQAREQAREQAREQARGQcKU2IAIiIAIiIAIiIAIiIAIiIAJlICDhqgwQlYUIiIAIiIAIiIAIiIAIiIAISLhSGxABERABERABERABERABERCBMhCQcFUGiMpCBERABERABERABERABERABCRcqQ2IgAiIgAiIgAiIgAiIgAiIQBkItCpDHj6Lt99+2/3lL39xU6ZMcW3btnUjR450F198sevbt2+DW2zevNnde++9btasWWlvXVNT49q3b+969erlRowY4QYOHJj2vHwPTp061T388MNuy5Yt213SokULX9bu3bv7ew0dOtS1bJmUN7Ndt11G9Qd69uzpzjnnHNexY8dMp+i4CIiACIiACIiACIiACIhAlRL4/142S/z7efasAAAAAElFTkSuQmCC;" parent="1" vertex="1">
          <mxGeometry x="-280" y="800" width="1070.81" height="650" as="geometry" />
        </mxCell>
        <mxCell id="3Jo4Y_HwqX4nvUN1Vcto-2" style="edgeStyle=orthogonalEdgeStyle;rounded=0;orthogonalLoop=1;jettySize=auto;html=1;exitX=0.5;exitY=1;exitDx=0;exitDy=0;" parent="1" source="e4bR5QUqeG97lNsjzucb-5" target="e4bR5QUqeG97lNsjzucb-17" edge="1">
          <mxGeometry relative="1" as="geometry" />
        </mxCell>
        <mxCell id="e4bR5QUqeG97lNsjzucb-5" value="&lt;font style=&quot;font-size: 21px;&quot;&gt;&lt;b&gt;Key&amp;nbsp;&lt;/b&gt;&lt;/font&gt;" style="rounded=0;whiteSpace=wrap;html=1;fillColor=#e1d5e7;strokeColor=#9673a6;" parent="1" vertex="1">
          <mxGeometry x="-150" y="-230" width="120" height="60" as="geometry" />
        </mxCell>
        <mxCell id="3Jo4Y_HwqX4nvUN1Vcto-3" style="edgeStyle=orthogonalEdgeStyle;rounded=0;orthogonalLoop=1;jettySize=auto;html=1;exitX=0.5;exitY=1;exitDx=0;exitDy=0;" parent="1" source="e4bR5QUqeG97lNsjzucb-6" edge="1">
          <mxGeometry relative="1" as="geometry">
            <mxPoint x="140.16666666666697" y="-99.99999999999977" as="targetPoint" />
          </mxGeometry>
        </mxCell>
        <mxCell id="e4bR5QUqeG97lNsjzucb-6" value="&lt;font style=&quot;font-size: 19px;&quot;&gt;&lt;b&gt;Query&amp;nbsp;&lt;/b&gt;&lt;/font&gt;" style="rounded=0;whiteSpace=wrap;html=1;fillColor=#f8cecc;strokeColor=#b85450;" parent="1" vertex="1">
          <mxGeometry x="80" y="-230" width="120" height="60" as="geometry" />
        </mxCell>
        <mxCell id="3Jo4Y_HwqX4nvUN1Vcto-4" style="edgeStyle=orthogonalEdgeStyle;rounded=0;orthogonalLoop=1;jettySize=auto;html=1;exitX=0.5;exitY=1;exitDx=0;exitDy=0;entryX=0.5;entryY=0;entryDx=0;entryDy=0;" parent="1" source="e4bR5QUqeG97lNsjzucb-7" target="e4bR5QUqeG97lNsjzucb-17" edge="1">
          <mxGeometry relative="1" as="geometry" />
        </mxCell>
        <mxCell id="e4bR5QUqeG97lNsjzucb-7" value="&lt;font style=&quot;font-size: 21px;&quot;&gt;&lt;b&gt;Value&lt;/b&gt;&lt;/font&gt;" style="rounded=0;whiteSpace=wrap;html=1;fillColor=#f5f5f5;fontColor=#333333;strokeColor=#666666;" parent="1" vertex="1">
          <mxGeometry x="300" y="-230" width="120" height="60" as="geometry" />
        </mxCell>
        <mxCell id="e4bR5QUqeG97lNsjzucb-8" value="&lt;b&gt;Dims X &lt;/b&gt;&lt;b style=&quot;border-color: var(--border-color);&quot;&gt;HeadSize&lt;/b&gt;&lt;b&gt;&amp;nbsp;&lt;/b&gt;" style="text;html=1;align=center;verticalAlign=middle;resizable=0;points=[];autosize=1;strokeColor=none;fillColor=none;" parent="1" vertex="1">
          <mxGeometry x="-150" y="-260" width="120" height="30" as="geometry" />
        </mxCell>
        <mxCell id="e4bR5QUqeG97lNsjzucb-9" value="&lt;b&gt;Dims X&amp;nbsp;&lt;/b&gt;&lt;b style=&quot;border-color: var(--border-color);&quot;&gt;HeadSize&lt;/b&gt;&lt;b&gt;&amp;nbsp;&lt;/b&gt;" style="text;html=1;align=center;verticalAlign=middle;resizable=0;points=[];autosize=1;strokeColor=none;fillColor=none;" parent="1" vertex="1">
          <mxGeometry x="80" y="-260" width="120" height="30" as="geometry" />
        </mxCell>
        <mxCell id="e4bR5QUqeG97lNsjzucb-10" value="&lt;b&gt;Dims X&amp;nbsp;&lt;/b&gt;&lt;b style=&quot;border-color: var(--border-color);&quot;&gt;HeadSize&lt;/b&gt;&lt;b&gt;&amp;nbsp;&lt;/b&gt;" style="text;html=1;align=center;verticalAlign=middle;resizable=0;points=[];autosize=1;strokeColor=none;fillColor=none;" parent="1" vertex="1">
          <mxGeometry x="300" y="-260" width="120" height="30" as="geometry" />
        </mxCell>
        <mxCell id="e4bR5QUqeG97lNsjzucb-11" value="Can be any Operation ( i.e FF Layer (&lt;b style=&quot;border-color: var(--border-color);&quot;&gt;B X&amp;nbsp;&lt;/b&gt;&lt;b style=&quot;border-color: var(--border-color);&quot;&gt;SeqLen X&amp;nbsp;&lt;/b&gt;&lt;b style=&quot;border-color: var(--border-color);&quot;&gt;ModelDims&lt;/b&gt;&lt;br&gt;&lt;span style=&quot;border-color: var(--border-color);&quot;&gt;,&lt;b&gt;&amp;nbsp;HeadSize&lt;/b&gt;&lt;/span&gt;) )" style="rounded=1;whiteSpace=wrap;html=1;fillColor=#dae8fc;strokeColor=#6c8ebf;" parent="1" vertex="1">
          <mxGeometry x="-140" y="-323.21" width="570" height="60" as="geometry" />
        </mxCell>
        <mxCell id="e4bR5QUqeG97lNsjzucb-14" style="edgeStyle=orthogonalEdgeStyle;rounded=0;orthogonalLoop=1;jettySize=auto;html=1;entryX=0.5;entryY=0;entryDx=0;entryDy=0;" parent="1" source="e4bR5QUqeG97lNsjzucb-13" target="e4bR5QUqeG97lNsjzucb-11" edge="1">
          <mxGeometry relative="1" as="geometry" />
        </mxCell>
        <mxCell id="e4bR5QUqeG97lNsjzucb-13" value="" style="shape=image;verticalLabelPosition=bottom;labelBackgroundColor=default;verticalAlign=top;aspect=fixed;imageAspect=0;image=data:image/png,iVBORw0KGgoAAAANSUhEUgAAAHUAAACPCAYAAADEDZTDAAAABHNCSVQICAgIfAhkiAAAFAFJREFUeF7tXQ9UVNXW/5kCQ2qMgjqYS5qef/GZYmGCvu+TaaEFlQlSn9jLJaj9QV364PHSeFqJvhcOtAyp9IF+r4J6JnzLR6IvA0sNelKgfq9GHsSgmTMJOMMHOsOfvN++8ycHnBkQLnDnzj1ruZx77j777L1/Z+9z7uXcs4cwVCAWQVngLkFpIypjsoAIqgAHggiqCKoALSBAlURPFUEVoAUEqJLoqSKoArSAAFUSPVUEVYAWEKBKoqeKoArQAgJUSfRUEVQBWkCAKomeKoIqQAsIUCXRUwUI6jBX0OmLL75AcXExGhsbMWvWrEER+fvvv4enpyeee+45TJ48eVBk6GmnQ/i8ncVoNGLLli1oamrCzZs3TUadMWNGT3XjlE6tVuP69esmWSZOnIhdu3Zxyp9LZrwFtb6+HsnJyRgzZgw2b97Mpc594sUCyw60KVOmICUlpU+8+qsxb+fU/Px8tLW18QpQFoThw4dj9+7dqKioQEFBQX/h0ie+vAX1s88+w6OPPton5fqz8ezZs3HmzJn+7KLXvHkJqsFggFarxeOPP25fsQ771QNZy8pWXV09kF32uC9egupc+iYcipuGxZkXnZPd8d0mlB8+jvPXe9bQw8MDfN0y7YKg+uAJ5T/wflxAz6zfU6qOc/h4WxbONPW0AX/pXBBUoCp/B/5Sxlr/Igq3rcRTEQux8D8X45mN2Si3gPLv3GSsjFpM9Qvx1Jo/4pCq1YxC7SEkv3yIWprL+f0bsOOYpVHHBWSvewbPxK5Ftoq/oHUnmUu8fOiqxE9VJ3F+OIHUcRXnP7uImX8+iKSpehzf9gzWZ8zCV68F42L539H0m4M4uMIHF4/vwPrl6+FVvA9PXK/CmXIJnmXnZdJe/+9TKO/Qm7sYFoCY5DQsGw9Ix3Xt1XWuXdJTO5vXC1K/sfAZOwXLlgRDX10FawT18pVh7NgABK9Ixbopx3Hoc4u3OsTHGz4TAxBA/3y8HBLx/oYAQLWxsUQK7w4jbofOB5LhAPuGylSIRshFWKB2QarVaDDXNH6KTysDMPcBH2B8AMb9dB7nr3aF1Rtew/X46aeu9a537ZJzak/NfC7jKcz721ig8SoCVu7D6plsyxgkxR/C2kXzkD1egqZLBjzwR2+aXx9AzH9J8fTyeTh+rwQPbDiMt5bQIHDBwst3v+zLh/DwcBQWFvbapMc3TkP2nJN4L5LCroTmXAq/ncr1Jly93govH7pnO382XcXVDh+M9XU+qV6+fBnbtm3j5atCQXsqC6KX71jYhWc4AdcVaLYBgUy+7dKFt6AOGTKkT4YNV15AeD9q197ejr7K2CcFnTTm5ULJ29ubHkXG4pNPPnEieje3+hFQtmd2auDrH8t5CSprNHZOPXbsWDfIDd7tc+fO4eGHHx48AZz0zFtQly1bBi8vL+zcudOJ+AN/i/0j+caNG/Hggw9i6dKlAy9AD3rk5erXKre4naUHCNoh4TWoVnnZjWclJSVoaGjo9cYzdn729/c3eVhvinXj2cqVKzFp0qTesBiwNi4BKhfWWLRoEeRyOfbu3csFO17z6Oc1In90v//++xEUFMQfgfpREt4ulPpRZ8GzdhtQ2f26V6/e9hZfkAC7Dag+PvRakF5ouENxG1DdAUyrjiKoAkRbBFUEVYAWEKBKoqcKEFS3eflw5coV08dN7lDcxlPHjx9v+vzQHYrbgOoOYFp1FEEVINoiqCKoArSAAFUSPVUEVYAWEKBKbuOp7BlM7K56dyhuA6qvry8mTJjgDpiKGaSEiLLbeKoQwXOkkwiqI8u4cL0IqguD50h0EVRHlnHhehFUFwbPkegiqDaWMertHPBBh39Yz/9wZMRb9UTbYodH9w05pRBBZc1Zl4MVIaGIjApFYNAK5FxgK/UoSn4Ec0IUUATdjzkvFUDrxPTqD1cjdGYoFGGBuP83KSixHM2EszsQOjkQocQ/9DfEu8bKRIuyzHWIVoTike1lTjj34hZ7iLM7lOeff5559913Havabr5Vm6FggjZXmC401bWMgf1hKGYSpikYZbXj5swPtUytiVjH5C+XM1Hv6czEJYlMyPriLg11TPGmECZk0xFLGyd8e3HLbTy1qqoKp06dcjzshxmhv1yGojID5gTLTXSySXJI2B8teuiGySD3Yy+0yFu7AulnKcxeLsC62B2oZE9PmyCH3ERshEYvgf8E0wWMeg2FZC0qL9uE5cu5SD8xB0mx/tDXaakFt8Vt9ihNnTrV+QdSNQVI2bAHJRo5EiebATGjokLW2lQYf5ePKClbI0Pslkis/q0CoR2jEJ2Zj6BfrKhH2XYKsRNSURRm4SGPRIRfKZTPpULll4Dc9xIgryxFBQHtn5cLSV0JSqUpKNofRZw5Kr3wbpds0m34tWhloHAZFL6HqWWv22uZ7JggJiKjwhyGrZr/kM/ELwhhguZFMcpKU8ylYmAqMiKYoOXZTK0llFvJzf/rmNylcia2wMAY8qIY+Zoj5ur2UiZxWgSTrelM3Zcrtwm/PfUByUjysGa9KSSqMleT1ymRuynIHIZNTCj8vp6L6W+WoOLDaKh2ppvCr/GrVCQUhiJnfzzkDuKfhHVeopVMnw5pjQpqlp1RR0syCbxtgkNPZXVE56B7R+TCrDcWroPiTTX8RxihrjZAkVGA6WTyrMIKqOtTEBFi1ntOchH2LKXwuy/fYohYZB80/6wsKoKKUEoIO2Kq8A5PRfHrgciLi0JOgz8kOgJxTCJynyD0JOuQMi0K0YsqIG9WwRiXYwnt3NjXbb4kf+GFF0xzKoVh+5bTa6GmxxD/CTJIOB3q7AJMA53EnxZand3RqFVDT/UyKYduStpxKr59a7lIrZRWt6aFENdFAimtjO2xlsjk3C2ObMQW51SuMeQBPxFUHoDAtQgiqFxblAf8RFB5AALXIrgNqOzBWuJuQq6HzyDz8/PzE3cTDjIGYvd9sIDbhN8+2Mjlmoqguhxk3Qssgtq9jVyOQgTV5SDrXmAR1O5t5HIUbvNCXzydxeXGZvcCi6ezdG8jkYLHFhDnVB6D01vRRFB7azketxNB5TE4vRXNLUH9/PPPe2svl2gneFBfffVVsCBaz9BnfwsdVMHvJmQBDAsLMyUZYpMNsUmHaKO0S3hcb4UU/MuHhQsXgv1n9U42ka3Qi+A9lQXQ6q3sb6F7Katjv3nqiRMnUFNTg9bWVnh6eg66c7Bn/bJvlfbt2zfosrCvLEePHo3Q0FA89NBDnMvDuaeePHkSqTvoK7GONtz4uY2GDa3F+pi1mHOtB5thx036puYmfEaMxDjfMUh9fTvYtGVcFU5BZQHd9WY6NDeuUW5vbj8l4Eph3vFpuIEJo8bita2v9jrjZFedOH2keWNXmghoVwt3d+13Ny43/oQDf/3v7ih7fJ8zUL/88ku03LguemiPTW9D6OeNM//8J2e56DgD9eLFi2gdwn4n339FPncZlswY0X8dDBbnu+6Cx90SzvYlc7r6HTJ0qBOzjMDUsBX47fxAyO/xRKvuEk5/egD7v9HabzNUhuBHAtFaVoLzzSyJJ6bOX4El35/G4W9b7Ldx4dq7CFiuCqegOhbKE8HP7kLa3Gv4+NABHNQAfhMmwe+mE3DumoQly5ag9lsrqI65i3c6W2BgQJU9ibhHPHF452t4u5oec9hSffYXSUaGrMfuZXPh59GGH789hLT9R82fzg+diKfW7caC9haczvsTrlALedg25IbRc6/+WxzN24cPqs0DwzdoFf6wdAGmjWyD+kwu3vjwNK5IF+Cl1TGYf+9ojGyvxNs7M3DMer6RgEfCgIDqOWUGpunP4J06C6BdDNr8r4+xXXUADR6zsXFLIl4MOYVk9ryon7U4fSgThxvb0KBtQzBVXTl/ACmfaOGnSETamhiUbz6AqjHLkPriXFTtfQXbtZOwMWk9Nl46i+QfJ2P+lGs4uPU1nKbw3eYGgLKm5S6QOxv5Hp7wam9DKz1zW4vvf/wO76xaQKamcnME5HOfRIxiInCDQrOvdTHEglmDqrpLaLQcNtTaeInOYbiE8pJTdIbCJEzzAHyDHsYsoxZtExWImTsRrc2emDZlkpn3z81oaLyGRq0WpqnZDcrAgEoGbfCdCPndtyzqJQ3ALNlIYGggXtq2Ay/O8ELb/5EnmyTqwWvFGzRILOsyLxo0+JmasW3pX8O5j/HBWQLZDQC0p+KAhN+2C0dxrHEX4mMX4Px+muvabUTxCMBUmRaHdx3AB/WeUPwqBubzxlrQ2j6avJYA+9E5PA3f16DhsdH48WQeDtfb8L7PnsrCrxsQUPFzDbJ3Z8L3pfXIzXoeDfo2ePnK0PqvVjpH6CyOli3DH3bk4LH6NoyUjUDDJQKx/TscO92CtE05CKa4qT6chBIHeLR9Swujk5ux9c9/w7P6Fnh5aPHB9ldgOQ3HQSvhVnP27jcvLw+Zf92Hdh+a5JwUTzYMU9RtbtTiSvMtD/QcTl45kp5f6egb6/zJsvGkU1P8hrbgSqOTxx9rf5LRGE+e3Uq8bXk4EYc3t0Y2MUj/UxrmzJnTZ5kGxlNtxGyjhU5V4+1yt12/hiv0lrFraSOQ2UeZHhUj8fixR5SCJhqYhZKgTcg/5URQ+YdJnyUSQe2zCfnHQASVf5j0WSJOF0o3DbSavcm+BRDLnVqgtZW7baucghr4q6kICbGco3qnWrk5fWFhIWcW4BTUmTNnYu3atZwJ506Mvv76a87UFedUzkzJH0YiqPzBgjNJhAWqUYWCQhVnxukNI1VhAVRc5yS5Q0EGHFRVZiQCI9LNOxvsCnsnabg6M1BlpqNilPlvPNY7+ppKqCzboIx1lSg7XWb6p9I6trxRW4mijwtQdFptkzNGD9WJAhQcrYS26/46Nu/MBfNf4OWjKpCeObgDa8BBNWrUUOsIOHuAdpQhafIoRB5wsBnNXhtr3YV0pNfHImWBZRP55SIkPRmJhLeKfkn0U5qRgNS/l6K0rLRz8p9OfPUo/TAfqhYdKjOiEf0Om5PCiJIN0Ug5oaM/KqUiKi7vVoqwDjVy4igd2JYiylpBOQ8WpCC2nmS54EzY/r3H6erXoaikeMHWJGSd0MBAGZXMB8qTobaToQrIG0YFIXpzOl4JM9DnGkZUvL0CkUcVSMyLgCouATkUzySTFUjKUCLqPju9EP+sNA2iMhItqUa0yNmQjlFbj0D5kPVLAUpQ0OKPiOREJNikJtd+VQbD7BBKO0K5174yIGSBHIpNqVCwUPqV4cgpdoAZUVYpRcT/xCN2hD9KwkuhIW+VUdapyl0pqAyLRegJq1wSAjiK8sRlQf02JRYaGAt3MsqAeKr2/XWIf0eD6WvXIfKX7EwSBIbHIyVNiXhZGVK35sActCilVnAUomLI0BI5QlelQJmWgEB1FpLesp/ozng8HaXBSYiwZh/QHkFBuQ6lGTQ4otYhh03hxcaGYRrkxkVixVabea8+F+vidiB9bTz2mBLFsEWNvA2RCE3WIH4t+9w9HbH0pJb19GqiTYeBaE1Zo86mQ1kfj9Qn/K0Nzf9LI5AUVIr043bjUWfafrgaEFDV/0u5V34djcRVsYj49SizGuRdJe8RUAR0OnmwUU9JdyxzlX9wNOIp7Za8oRT5mSlY/dIOHKkzQkc09oqE9hMHlueg0mrDBi10BHJuXj6OvO6PnC05FC6liNpHofdTAtEjC/E7K02sZI8lIqJlD1LrQpEUY52P5YhNy0XuFmq7lQ21NGeeMJIHJyAqTA71hzQoqC5nZwlGBRlRekIFXcN3qCAZTcVYiZzyQKywpgazJ3Q/1g0IqDJ/GVBTiiJaTBiti4wLeVAeUEOxn4yxUwGJqd4bbIoWjZrytVAu04uFWUgvnw5l5XfIWWovCYjFMpIQJMYZoMw0AwWZDP71alCgp11sMoyiBKiGX4woRdC86dBrTXcpfCahcjnlXtukoWhRcmuul0gx/QkF/Ku/g8ZYgSLVdEQ/FgTFmkRENtOcTBNo4NJYBBk10Ghprm0m6C1/x6/MVMIQl4iQwfpGrC85xWzb5ubmMunp6fbZ6YqZ1HAZQzqyLzgZKZtLzVDBpIZRnUTCSEeAkcxOZSraDUzpzhBGOozoJCGM8h/ZTNR9EkYyQmqik9+WstK2O0pf+ft4Rqli6+j3ZgWjiIlnYsMVTHwBJVKrz2cSl8Yy8auiGMW8CEZZbs3R1kXk9gpGuTyKiV0Ty0RRPrfY/WzWNzO/kJgEJmG5ggl5MZ/plJrthz1MREwuUVFRKZn43xebf9u3ht3aNWvWMN98843de3dayX5ZzUlxCqqlB4NOw2h0XYzZrGN09uqab4ll0BGNzbVDgWnw7Nlvzn3K0hjqqT/bdgYdo/lBwxjsJtiz4UqDi6XrKpZJ/noHg8HSvGL/HqbYkjrVoZx2bnAJKqdrs2vX6LtUJ0VC+40oEHcuI6S3Z1fqUieRSm0S6HVlYHMtVSBh1a1rCYXeTv1RSJXZrHwdchomIbrbJIVd+bswCVqV4JCtsxttbc53TDpr2/UeZ3NqQEAAamtru/IXr3tgAZ1Oh7q6Otx77709oO6ehDNQ58+fj46ODrz//vvd9ypSdLJAWloaWPuNGzeOE8twBiorTUJCgilF9EcffcSJcO7A5I033oBGo8HTTz/Nmbqc7fu1SsSe+6BUKnHPPfdALpebRh8fTmfhzGIcMGJPZ2lsbISRHrWG0CEnL7/8Mn8P8rDVl29H7rAnnbEnnrEnnw12cbkjdwbbYI76X7RokSly7N271xGJYOo5faThs1XYc4q8vLz4LCJnsnG6UOJMqn5gxJ54xp6+5g6F84USX42mUqmwePFiXLp0ia8icibX/wN2pbxaZNm1FwAAAABJRU5ErkJggg==;" parent="1" vertex="1">
          <mxGeometry x="86.5" y="-570" width="117" height="143" as="geometry" />
        </mxCell>
        <mxCell id="e4bR5QUqeG97lNsjzucb-15" value="&lt;b&gt;B X SeqLen&lt;br&gt;&lt;/b&gt;" style="text;html=1;align=center;verticalAlign=middle;resizable=0;points=[];autosize=1;strokeColor=none;fillColor=none;" parent="1" vertex="1">
          <mxGeometry y="-550" width="90" height="30" as="geometry" />
        </mxCell>
        <mxCell id="e4bR5QUqeG97lNsjzucb-16" value="" style="shape=image;verticalLabelPosition=bottom;labelBackgroundColor=default;verticalAlign=top;aspect=fixed;imageAspect=0;image=data:image/png,iVBORw0KGgoAAAANSUhEUgAAAXgAAAF5CAYAAACVwTEDAAAABHNCSVQICAgIfAhkiAAAIABJREFUeF7sfQ1clFX2/9dCHQprSNydKStms9axlxU2K0i3GH/uLtib8LdNWGt10s3GbAu0X4JWNtpvDXJTyF2TbDV01xbccsXKdagsqHQZS2M0zbG0ZloxpiSZlOR/zsOLgAOCDPN67ufzCNznvpz7vY/f5z7nnntOnwZKCKL03XffYc+ePfjkk0/a/OS8H374AZdffjmuuOIK5eeQIUOUn3yp1eogGmWjqN9++y0+/PBDfPTRRy0/+ffBgwfjmmuuaXP95Cc/CbrxeRL40KFD2L59O6xWKyorK/Gf//wHhw8fxnXXXYcbbrgBiYmJynzqdDpP1SVPEFAQ2LdvH6666iqUlZXh+uuvDztUHn30UbjdbvQJVIL/+uuvsWvXrjbX7t27sXfvXvz0pz/F0KFDlZ/NF/8dHR0dtBPJLy4mNL6Y3PiqqqpCXFyccg0fPrzlp0qlCtpxthf8s88+U0h869at+OCDD1BRUaHM7ciRI/GLX/wCN998M2JiYtpXk78FgU4RSE9Ph16vx5w5czotF6o3Dx48iCuvvNL/BH/06FF8/PHHCpnx1fy70+nEsGHD2lw8Ybx6C4W0Y8cOhdS2bdvW8vPaa6/FiBEjwD/54lV6KKbXXnsN5eXleOedd/D222/jxhtvxOjRo/HLX/5SWaVLEgR6gsBbb72FyZMn49NPP+1JM0Ff99Zbb/UtwX/xxRdgYmM1A/9s/p3fNFdffXWb69JLLw16gJsH8P333+O9995TVqfNP6OiohQya76Y2EM1HThwQCFyi8WCTZs24bzzzgM/fOPGjVNUL5IEAW8iMH78eOXLz2QyebPZoGvrxRdf7D2C//LLL1tUDaxuYL0q61Jbqxv4dyb2UEv19fXK6nTLli0tF+sDWe0watQo5eePfvSjUBt2m/H897//VcicV+vr16/Hz3/+c/zmN7/BxIkTERkZGdJjl8H5DwHem+NFE6t4wz1VV1d7h+B5c5PVDa0vXq03qxya1Q6xsbEhi/nOnTuVFSpfvLHDG71JSUktVyjpzTubRFY5rVu3Dn//+9+h0WgwZcoU3HPPPZ1VkXuCgNcQePLJJ8HE9uyzz3qtzWBu6Iw2WXlDkHWofLHagX+ySiUhIUGxcuCfvPkZ6olXqK+//rqySv3mm2/wq1/9quViNUQ4pc8//xyFhYVYvHgxMjIysHDhQpxzzjnhBIGMNQAQiI+PV55B/kqWhK6v4N99913w5kXzxeqVm266SbnY2uHcc88NCzw3btyIV155Ba+++iouuugi3HbbbYo+ma1cwim9+eab4Ovxxx9XXnJZWVmKtQt/vUgSBPyBAG+qMrE7HA5/dB+QfUZ0JBV/5vAK9Y033lAuNkEcM2YM/vCHP2DDhg2IiOiwakdNBm0+qx3Wrl2rXD/+8Y9x5513Kpull1xySdCOqaeC8ybWE088oRD8888/D95zeeyxx3rarNQXBM4YAV58GgyGM64fihXbsDSbJv7rX/9quVjlwKtTs9msrFbDLa1cuRJ82Ww2RY/MK9VwUD11dZ6Z0HmfgRP/zmQvSRDwFwLvv/++oiKWdBKBCNanFxcXo6SkRCH21NRU3HXXXcpqtV+/fmGHFb/keEXKF5tvTps2DWlpaWGHQ1cGzKt43jjfv39/V4pLGUGgVxFga71Jkyb1ah/B1ngf2gxsYNO9CRMmKNdZZ50VbGPwirxsq71kyRLlYlO+Bx54IKBNONkcbNWqVWAbe3bJ4K/EVkN8wphfhP5KfLr5ggsuUPSvsrnmr1nwf7+8D8jmueGyH9gVxPt89dVXDaFuk90ZEPwF88c//lGx+rjvvvswa9YsXHjhhZ1V8fu9zMxMxaUBm6KyiWpdXZ3fZfKnAGxXz3tCvD9y2WWXha1K0Z9z4O++2eUFn4jmI/qSTiIQEc7kzitg1h2zJRCviINh0zQ7O1uxZOKDY0zukk4iwHPI5pq///3vkZubq/i0kRQeCPC8h9Lpd2/NWviYwrRCjC2EHn74YfDhJLbdbt4o9BaovdUO75OwSoSdc0nyjACv5Pr376/sK/HLUFJ4IMB7Z4H+5e2PmQg7hTsfymK7ff5yYTVHsJA7Pxz//ve/FbWMpM4RYDtoNuWVL5zOcQqlu7xoE6+jp85oWBE82/Oz6ecjjzyifMIHW+LNRPaXHvApQoeUB0wwaPwj6ZEjR5SO2TZfUnggYLfbw9Lq73SzGzYEz6cub7/9dsXyJFh9o5w4cQIdxmdRGZC9Mhfp7Q1qNCkwrzQjtTOX6poEGKcY0CaExnATli8zIa6d63lVUiaWP5MOXWfKvQg9Uh82+o3gT/fQy/3QQ4DVcoMGDQq9gfVwRGFB8Bzdhf2jsPvMO+64o4eQBWh1TRzGTshE3rxUnIxdpYJhdi6yJ6QiMbZjuVX6DGQ/nApNKzJXxaUgY4oZ5kmtaJ+IO3OBGcbxBug7I/iOu5I7gkCvIMDWcGIeeSq0YUHw999/v2LXzu5qQzYN1kLttKFmVA5MzW5xYo3IHAdY90dDrWX2JsJfsBlVe/Zh345yFD2UQDlNaXAaCjaRAzlLLlIoU6uJhnunA/oZmTA0FVKPy4ExygZblBZaJnha5RetNDWRvQoJc4qxvPULIWTBloEFGgK1tbVC8B4mJeQJPj8/Xxn2//7v/3oYfuhkqQZpEX2wBDmrAOOMFIW4E+4n8l2fg8I9KmgVFY0blcumwzBiGBJnWKCbbYYptgkDpwW5D5lgmlGAcjegGaSGo8yMAkcKMieQMp1W78YZCbA+UwCrm14Y1J4qWo+EEXqom1bzWn0i4ge30+mEDsQykgBGgFfwHERHUlsEQv5Dmw8xsclcyCcKKq464oBlMRFwRSaMw9VIHO9CQXIpHPPciI7REgR2uFU6pE1JhW6AGnVuWok3E3J9Dew7KRYskTuv9KPVtII/aEXhIgtMc6cj4aAaRnUJjC/bkTFb3fTCCHlUZYBBgoCs4D1PVEiv4IuKivCzn/0sLMLCqdW0cq6tgdtZhIKNWmSuMSOhIh+Fu2jd7qqDiggdQzOxoSwfqVo3HDXE5PR6b73ebh1nidurqamBa2MBViMdhYvT4FhWgAo35dWqoI5urOmmNiQ+k+f/XJLrOwRkBe8Z65AmePbdznE/wyGxO2e3m5ffblrFF8KudqHkuRK4KKeG8tW0Ilfr4zGsmtQ4s/JQsKQY1upGZNw1LrjU2labrLSCj+IXBrVXb0X+MiuiIzagYJVdab/OHYlIel+4yTTNFROPhFhPCKugEm2NJ2AkrxcQ4BB9fJpVUlsEQprgP/zwQyUWaDgkNRFyHRMyp115GK2NR9Y7jYTvpvxIUuG4ywpR5M6AxVaJ8opCZMQSSddTmZ3FKLIlomBHFW3Abkb2VdG04nfDpbwwAOfzadBefi9K+G1Bqhx3nRpqVnfuL4R5hQpZWxyo2lFJ6iBa9bMM7kqUblHBuCK3ZYNWaUiSINBLCLAvIo57LKktAmcUsi9YQGTbWA6lFyrxUP/nf/5HCebNHiR7ktSDdbQir0MNHe92Nb0TWFmjjqWN2loH7NUtmV3qRhWjg5ZW9HVOO5y1J6uoYiiz2kVrft8nDhvJcWEvvvhi33cuPfocgeuuuw4FBQXg+M+STiIQspus7FWODz6ECrl786F1HSTVyikN0op9v6f8UwqekuGuttNL4ZRsuIncJQkCgoD/EAhZFQ0fUxfnQ/57sKRnQUAQ8D8CIUvwhw8fxsCBA/2PsEggCAgCgoCfEAhZgme72AEDBvgJVulWEBAEBAH/IxCyBM8bkbzJKkkQEAQEgXBFIGQ3WdnrYp8+fUJqXo8fP674sa+vrw+pcfXGYMQXfG+gKm0GGwIhS/DBNhFdkZctgthp2vnnn9+V4mFdhk0kJQkC4Y6AEHwQPQHnnHMO7rrrLrHt7sKc8SlmSYJAuCMQsjr4cJ9YGb8gIAgIAkLw8gwIAoKAIBCiCAjBh+jEdmVYzrISVHg4gdqVul4pU21BSZnTK01JI4KAIHAqAkLwp2ISlDluiuZUUWZB6UYLKrY7T+//hbxKmtfUQMOBQGrtqFhfgpKNVjhbOY5xbicCXmeBrf1LoNYJ664uuCEgR2bOnbY2bYKcJNi3N7lEIB82NeTWuKR9+0E5AyK0IBB4CIQswe/atQtOcqYVLslG/toTUzKQNWs6UkfpoLuNXAZ3OHgXSheUQj/LqATadm5aDcvBGorglIWUqY0uhp1rMpCx0Eq+5C3IGjcdlmYnYvV2FE5OpFivpR782Zzs0FU2H2kkj3ltOewt7wI3rE+RnOPmo1yx9NTBOEuvyNKF10WHo5EbgoAg4BmBkCX4oUOHQqPReB51iOaqhk5HkbUK9hdSyDVwCSwdrIxdm2jVrMuEaUgjEJpx2cieZoRpVjp0B21wULZ9qx26CSakT8pC6iBbk+94Iuinc2BNSkdis/1VLX05bGukZ/fOClj5V1cJsp50wLS2GPnzjEhomgZXWQ5yj6Qi4/JWjuKHmJCpo6+JTULxIfpYyrD8iEDIErwfMfVf13sLYRxFQT3uL4VqTCrGKnFY2ydaga8A0qfo29ywLs3A6KQ8qIjo+U7cZIrgNDcN02cYsVpDIQBjKXN7HnIPGWG+lcP/NSc3yhfSl8OiHArltwE1lO0uK8aGQzYUTh2LtMl5jXr+WgvMz0cja3YiolvV5l/1U9KBFZ19cbSrIH8KAoJAlxAQgu8STEFSSJMA41wzzA+nIHLjfJjLPMmtQ0aym3TrbdVXcVMoGMgKE9yLzYo6xlFRDtWdROzJiVBbi1B60InCBRZExxGhl9lQU12Fyv2ksI+Kg3GaHpZ5q6GaSAG91bSAd7owbPJyFK2lKFAjLMhcaoVt6XxYY/VwbClH1SE7rLRP0Jyc60rgTs5Q1EWSBAFBwHsICMF7D0v/t6TSQh8Xj7irtFDTWrrmZDSPNrJpJmYirqzd5maECpprU5AYyeoYFyykMkkcb0BcciayEmyw7ACGjUtHnNsBh5OiOh1xNgb3cJI6Zkk0RYMqRuK6TBTsBdSDtag50LgDoNYQ4x+hoN/XpiNdR3r+/Q4lilTNobpGmXiztywOmRPDS53m/4dFJAgHBOQka6jMciTptXdyqL48Cs6kQdz4XORQCD3PqXFz817a3DQ8Y0DlkxkotJPixFkF59AsFMUSKU/QI2NqBuxD3LRST4F5rgYJatKnc4MH6QtgazRSruL2U7G8pLGXhNVFjb8MNiHjeRPGTh0G2ECh+xKgGUJfF0l0m2K8Ote5EDeG1+vNm73LZfXueaIkVxDoEQJC8D2CL3Aqx82pRN1MjqNK/E7xWVWnm1ne3IzLQ7kzBSlzihFPFkduejHwgltJ4/KxOdkFJ23UqgerKaBfq0QEvmFtJ2NX0Yr8VQuMpKpBjAbq1rJExCH7jfzGys5y2OIykdm02dtJi3JLEBAEzgCB09HAGTQZGFX27NmD//73v4EhjJekYO+YnXqSJGdk6o4W7R5k0JOqpnmrVe3J4kilhmawh4pdyiJZPLXZuq4mhVQzXWqs24VOnDjR7TpSIXgRYE+rVVVVEpO13RSGrA7+8ssvV1zrhlLiMb388suhNKReGcu2bdtw5MgRCdnYK+gGZqN9+/bFsGGkEpTUBoGQJfhQnOfrr78e77//figOzatjWrZsGZKTk3H22Wd7tV1pTBAINgSE4INoxlJTUzF8+HAYjUZ89913QSS570Q1m83gcI233nqr7zqVngSBAEUgZHXwAYp3j8WaM2cOZs6ciXvvvRfR0dGIiorCkCHhvUvJ+y1M6qx379evHxYuXIjBg89486DHcyQNCAKBgoAQfKDMRDfkePrpp/HJJ59g1apV4Niz/kw7duwAEyx/XfgzXXrppRg5cqRySRIEBIFGBITgg/RJuOKKK/Dkk0/6XfoHH3wQR48exdSpU/0uiwggCAgCbREIWYK32+2oru7A25Y8BV5D4LrrrsPhw4e91p40JAgIAt5DIGQ3WXU6HWJiPHrb8h560pKiIurUNl8wEgQEAb8hELIE7zdEw6zj/v37IyIiZD8Ew2w2ZbihhoAQfKjNqIxHEBAEBIEmBITg5VEQBAQBQSBEEQhZgv/iiy/gckmUoBB9bmVYgoAg0AUEQpbgL7roIqjVza4Ru4CEFBEEBAFBIMQQCFmCD7F5kuEIAoKAINBtBITguw2ZVBAEBAFBIDgQEIIPjnkSKQUBQUAQ6DYCQvDdhkwqtEagvLwcvKEtSRAQBAIPATmhEnhzElQSJSYm4ptvvgkqmUVYQSBcEJAVfLjMtIxTEBAEwg4BIfiwm3IZsCAgCIQLAkLw4TLTvTRO9tgp0aV6CVxpVhDoIQJC8D0EMNyrs8fOc889N9xhkPELAgGJgBB8QE6LCCUICAKCQM8RCFkrGgn40fOHQ1qAEo6wOTTiZZddFtaQ7N27FwMHDsSNN94ooRGD5EkIWYLngB/8QEoSBM4UgaysLGzbtg1ffvklfvjhB9TV1Z1pUyFRLzIyEmeffTb+9a9/gV92ZrNZgpsH+MyGHMG/+eab4Kt5tcW/c7r55psDfCpEvEBCYM6cOcpztH37doXcJZ1EgL9qDhw4gPvuuw8cAF6v1ws8AYgAP78hp4NnIn/rrbewbt06fPXVV0hKShJy78WHjwkw1E6ylpSU4N///jf+85//CLl38Ox89tlnivrqH//4RwclJNvfCDAXhhzBM6iPPfaYQvBvvPGG8ruk3kNg+PDhYNfMoZQsFouilpHUOQIOhwOlpaUSk7dzmPx6NyQJnt9czZ+Njz/+uF8Bls6DDwFemR46dCj4BPexxEeOHEGfPn1C7gvOxzD2ande18Hv3r0bRUVFyobU5Zdf3qvCd9b41VdfDQ4IvWzZss6K9eo9Jopmq4NRo0b1al/SuPcQaGhoAF8e07UmLJ+dAl2UCm63E/aKYhQsKYGt1mNpyQxjBHiRsHLlSuUgoEaj8QsSXiX4zMxMVFZWtlgdHD161C+Dat2pP1fwbHUQERGhfMY2Wx2EmjrD7xPsYwFUegPS9A5kzSpBjVoPw9QClCdpEZ9SAHu9j4WR7gIWAbYwYhUxf+Vw6NDvv//eP7LSSsUr6X//938b4uPjG8iMipc+crXD4NJLL20YO3Zsg81m8wregdIImRI2kEosUMTxihxjxoxpUKlUHp9h1cTihpqt2Q36iKZn/CpzQ+WRzQ0mNRo0ydkNRVuqGvbtqWzYsDi9Qa+iMsMzG4rWZjbEKeXVDanPbGgwJze2rRpjVsrR2s5jX8Hw/yghIaFh//79XsG9J43QXlDDiy++2JMmvFZ36dKlDTfccEMDLfD8Pq9e0cEXFxcrJmW8eheTMs8varY6YLt83vwNpRSKm6zdmR/dCD20tU44LjKh6IUM1C3LwOjkLJRflYfihQao9jqgGpWGlCHUahSt/iemID05Dir6My45Fbp6O5zd6VDKekSgb9++GDZsmMd7vszcvHkzXnrpJeX8RCCcm/AKwW/atEk2WrrwFLFlBh8SoaVCF0pLkUBFQDXUiKItlai0OVC5QIcNs3JQbkhFoq0AOaussO+1IO/pDVARgSfWl6J0qw6GMRqoEgyI22+Fe8RY6FR6jB2lgmWjNVCHKXKdAQJM7Gw2XF8fGPo6r+jgP/300+CwOojQIWVaCtwvF8Dih2UT6+OY3PkBGDx48Bk8PoFThb/Y+OJ9Bg74wb9zCocDZe79pTA/VAi7ywHbLifcNG7dzEi4a91wNU/RETfcESpaqbuwYWMVzMlpMOgSYX8hB7bJOUgdVQdDjAXmLVxbUqgg8NFHH+Hbb78NmOF4ZQV/4sSJjlelKgOyV+YinT9RWydNCswrzUiN6QQLTQKMUwzQtS4ynKwYlpkQx9+4rZIqKRPLn0mHrrNXVoQeqQ8bYfDPhnYnAw2+W80Hyj744AOyJnErB8qaST74RtNNid1E7NussDaRO9d2VJTDMSIVGcpzrkbinQZod1SgkvjbuW41KkeYkJtMduPrLSguUyFjsRGaTSWwCL93E/zALs5cePz4cc9C+oMLvbGzYDAYGsgk0fOGQmxmQ/nxhgbH6tQGdctmkqrBsLiqoeF4VUPutR1vMKmS8hv22fIbEnizqqmuatKGhrqGmoYN03Qn+4vQN2RX1DU0HFjekNKqbHOdlp+qlIbl9soG8/CO+zyljpc3wHhTio55ewN2v7dRVlbWMgd0oMzv8nhLgG5tsrY8H+oGw4LyBschB22yOhpqdhQ1GIc2P2fqhvS1lFdqbNxQHU4bs3X07N/gv+fQW895oGyyjhgxooEWG956BM64nbvuuqthwIABAcOFXlnBe35dNeUO1kLttKFmVA5Mw5vyYo3IHAdY90dDreWluAqGBZtRtWcf9u0oR9FDCcomlJIGp6FgUznKLbkg8oZWEw33Tgf0MzJhaCqkHpcDY5QNtigttLyCp1V+0UoTyNKBkgoJc4qxfFKb74CmxuVHTxBofaCsJ+0EU133qjREj5gP2ykqVhcssxOhvTwRY2kTVXt1Bgp3NY/MhdV3ahGdUti4obo9B/GRw5D1XjCNXGTtMQJ+4MLOFBo9Hg83oBpED/bBEpjKUpA7IwV5k0sRdz+R7/oc5MUWIkVR0bhRuWw6DAvtZFqQg5K1ZpjWjUYB33JakPtQLmxuF+z0OasfpIajzIzCq8zInKCBZVU0jDMSYH1mPtwLjFBTe6poPRJG0Icyj47+I2r1iYg/+crwyrgCsRF/HDK75pprlANlF154oU8OlQW8y1qXHbYWRXwgPiUik78Q8AcX9jrBQ62G6ogDlsUFsFZkwjic9JPjXShILoVjnhvRMVrC2w63Soe0KWQ2NkCNOjetxAc3Lc/ra2DfSfpORVepQrSaVvAHrShcZIFp7nQkHFTDqC6B8WU7Mmaroe1Mp++vmfVBv5lZmdjx8U58XfsNcNZZKNvuu+Xh2TFRWPbyKh+Mkro4Rp4dTzRg89tvYrD2Qsx7/Img37D2DXDSi98R8AMX9jrBq9VE1LU1cDtLULCRNkLXmIEKUtfQ52uiqw4qInQMzcSGMhPcawpQeoCYnKRqUdHQrES2mhlur2ZHDVwbC7B6bjEKF0fC8VwiKtxqjK1VQRNNNWnV7qY2Wtfz++T2ogDZOdn4YHsl6tRnAwMG9GJPgdP01zTJX3+6C6YHpuP/FjwlLmsDZ2pEkg4Q8AcX9roOPjqaVtxkZcFqGMtiMi1Tu1DyXIliTlZD+Wpakav18RhWXYKcWXnk16MY1upGhNw1LrjUWmha2J5W8OQDBGSOhnor8pdZER2xAQWrSLVD7de5IxFJ7wu33Q5XTDwSYj0hTaZrrd8enooEUR4fMttS/i7qLqA32ll9gkhyL4g66Bx8cciJYnLvK0kQCHQE/MGFvU7waiLkOiZkTrvyMFobj6x3Ggmf7YYj6bPFXVaIIncGLLZKlFcUIiOWSLqeyuwsRpEtEQU7qmgDdjOyr4qmFT/ZGisvDFLPP59Gm1r3ooTfFqTKcdepoY6i3/cXwrxChawtDlTtqCR1EK36WQZ3JUq3qGBckduyQas0FMTJ8mYZjvbpwCwriMfVZdEviBSXtV0GSwr6EwF/cGEftgfq6aBHjx6Nd999t8cOddSDdbQir0ON00kk3iyVCupY2qitdcBe3ZLZJZFVMTpoaUVf56Tj4K28/aliKLPapRxQ8XUiszKsXbvWa3rjXyX/GodVRPB9e/1d7WuoutzfudXHsXLFX0H+frpcp7OCN910Ezimb6CcRuxMVn/fu/jii5Xn2VvYn+l4rrvuOhQUFIDMJc+0Ca/UmzBhAjZs2KA4GetJ8hYX9roOvjuDdB0k1copFWjFvt9T/ikFT8lwV9vppXBKNtxE7qGSGmjD0WNSj8T9k0YjltTybZJzM/740js47LGSZDICfDp3+vTppD6khYCkThFgcpfkfQS8xYUBRfDehymMW3R/jq0fbMG+s/vjmlumY4T9Lyj8mD5jjnyOY2EMS1eGfu655+I3v/mN31elXZHV32Vef/11f4sg/XeCgBB8J+AE9S0m+Hc/pyH0Q/8bp2Po5+/gtbe/Vob0018+jD/cdCUuIoObL97Kw4PvXoq5D/4/XHNePxw5+A4Kl/8FlkP9cM3YRzFt5CWIOZesEw9/jI2rl+GlPbXod9lteOS3t2PEj+h9sfcV5Cx+DQN+nUllh+AiKnvE8TFeWbcMa3c16sUGxqXjoXGjcY36GOzWl/Gnlyywk1ZJ94sHMOuW63CR6lijHMVVOKYagtt/Owl3XnkJ+rmsePmlfKz9VF5JQf0sivB+Q0AI3m/Q+6vjftBdOQrn2bIx6V9O9Ectjn3nxHPPbkH1kQuQPHU+/pBqxTt/2Y4LrxiO8z7OxoMba3HR/2Ri4ZTx2Proyxj6/yZh6K6ZyFjgxIAf9UM1maYbrriOyj6B+17/Ghcl/B5zHn4U32dn45Wzb4N52mh8+dJTuO+TKPz6949i4W+/RsZLUTD+djjsSx/EgzbQy+YYfVn0w42/fQzGgS9j5hN56J/0KJ7+fQY+fHQFdlMfkgQBQaB7CITvzlz3cAq50t9/+zUOu77Gly5aHZ8AYi4z4Le3jMbAE8cQc8HAlvFyuS8P09eAZQvsg4ZgaN9j+NL5NWKuG4/x12pwhH5vXl9//60TXx6isq8uwT8PDcev46IwMG4UfvbFK3ju7b1UbzteevV99Oe8s53Y54zCyF/eDsPF9CVxiFb7fYfhRqpT7YrCjUm/xrX9avH9RcPws3NCDn4ZkCDgEwS8soJn72k/+tGPxOqgC1MWeAFRaNV877OYe4kVfy/f27F+/ugxfK9s2B7D1r8+iBm/GI+Jt83Hq+MsmPXEinYjr0VtHdC/L6mHzu6H793H0WJTUHec2umLfj/sxQsLZmJ/8v/Db/9QCOPOJbhveS3VoX54tc5Lj/o9+Oc/nNgVMFZs8lzbAAAgAElEQVSgbti32xE5VN90NoPcZ2xzIPpaPfmPPH1yO62wbKEzG9o4GEbqWg7zObdbUE7Z+lEG6FufxKZAItaDKsQN7Urrp+9fSvQ+Anzmh+MwR0Wxvbb/k1cInsKbYcaMGTjvvPP8P6IAl+Bvf/tbgEl4AX56SRR2/XsZXigj/XrS9bj/htOJWIvdb69ATsXHmPOnB/Dry4qwlaowoStp0CjceMnX2LWultQ3Vai+ZSSSNRvxCq3Yf5YwHDGf/6ORtI9/Dsu6Z2D56Du8PHsURixfgt2f98NQN630WR9/OjF8fp8CbW+ajowSMyzzEuBaZURGhRGlRPCnTy6UrymGTa2D+xlyoLejGOQRFc41GchYHw/jmBpkjStB5sZ8GJgbKNJT4eTRyKo3w16S3qUXyOllkBK9jQAT+913341Aib3sFYI/55xzQG4yvWbb3duT4M/2OQB3YCUnyt7ajjt+W4iXf+nEsfMuAWhDtuN0Ae585Fn8dmAtjvS9ADEuC3JoE3TgaNo0veVpvDqSVC3nkZrl7Tyy2mG9ehEWls2Hef7fYfyOPCkc344/PbORbPdHwrzw99B9Ry+V8y4APliCrce/xpG/rsA1f3gM66+jl8NxemHQyn7Sig8Chuz1D+Uj7bbpML+cCtsyLczrU7pIvmoYHjLDQMC6YyqwYYuTftPBvtUO3YRCpN9KJ7HXpymnuA1RblifzoE1KR2JZR3PhNwJPASY4G+55Ra/2+M3I+MVgg88mEWikwgcwytPjcUrLRnH8NqicXitFUT2N57AbWVRuHBgFL7/jnTzRxrXzm3Kffcqpt39amOtPxqxeZAG/U+wfp4tZfrh1/TvrnUz8WAFbZUepTa+a15/12Lrmgfxq1c15EiOrGVadPbvICeTNnIHErnTJu+XTX3iwKuUT1Y5lD+ANoCrqf2AWslT0JhMirUaP8IM/UobDK21J+4KzL87F5XNroSprPE5c5PHVIbOjtUzpiN3E2Ban6BgGTc5DY6JaZi+SQWbJhPFsZS5PQ+5h4womGhDhhC8gpOkM0NACP7McAu9WsdraRO01XHfTkd4DIdpM/XUdAxHyDeMx0QkbqcVfJvUYZ/UzmHnSb29xwb9lUmr63UWqMbEw76uFM7x6dA0i6KKg+m5AnKz0ZRBIfvYffXJpEP6wiLEvZwF49zVGLs6HXUUCUp1J3tZtcI8rwilB+NRt8CC6FvjUF5GcRSq1ajc74YhNoQcKPlr6sKw34AkeGdZCexXpyKhzX8OH85OtQUlO4YhNanlv64PO+9eV30CwsEYfRXk/wYWssDxS+rgMG+vyEKr66wtKSh81Qj7wynIXGVA0cSm56TehqK55Ba72QcGreDTF1JgmtarfJUa+lspnN/iKjjqXajc5ELiAgrGPcSArE3xKNwBGMelk0M9Bxwu8q9EsV27/N7tlQFLo/5EoKdc2OsE76ZoTlaKPl9DD320dhjihlN0+c4QI6+S5jU1yEyiQrV2VJRZ4aBg2YlJcS1eJXtsdUCOzJy7yGxhSLM1BAtEFhHbaxA9XEerLh1qyK1xydX5nceM7WwcPro3ZMgQHK6yAgP9bEt4nPXtfki0XK4nKy7fbGrZUTB7AxLmWaAnwwL9vOkoSs5B6a3LkcIkHsEr+OWeQSDvp3l3m1FJzvfcNjtU99NKPoLiF0zQI2NqBuxDKOjNfopTPFeDBLURigLnoBslW6ORclWn/2M89ye5AYdAb3Ahx8awVNDzdLUBhjbWVo181usEb1uchsRFNdAPiUYN+ZRBUj7KafXjOYCeC6ULSqGftVy579y0GhanBmp7AVLWmGBZmUo+43tmdeCiDT/jU5XQ3pCCjPuJ4JXFF312P5WGlGU6FO6h/6z0QjHO0uNeksXwTFc30fzzPBluTlICfRz1T/f+77WmDsnJtyIiotcfZRqrDqbS8pNjjklH0VZabXclEflnriyC0+mCKoae6SbO1ozLx+ZkF5y0uaoeTMFxWrc12IQN4uqlK+gGRRlvc6F6bwHSplqRMiUBtvvTULGQPO5ey1Cc5DOfHHRSDaWVjrUK9hdSyDUwRZL34ACMxXJtolWzLhOmIY3zpRmXjexpRphmpUN30AYHZTdaHZiQPikLqYPo60Bpq5XVQfP/81obKrY1OhVz76yAlX91lSDrSQdMa4uRP49WSU1f1q6yHOQeSUXG5a3+ew0xIVNHXxP0CR3IKS0tDaMSRyLya1L8duR4LJAH0BPZqr/DRQM1SEtN7UkrvqtLOnnN4JPk3tIxqW007cndd1KFRE98Fqeqqirgx+JNLnTvIO3GtcSPEyjGdTJQ2RQrsjWf+WLZA+ylgyyjiuHaa6PNqXyM9ahbJ7tfOi+T/kJbm2Lr0gxkPWeFZi59FtP0ubtsdeBG+cIMFCfEwU6WCKaVCfRyIdtj2gSsmzoWBVGk8yT9aILKAvPz0chalojSVDoz3yrpp9DqbDIFKRmT2cEXR2A8T/PNFJ+2JWTft42BP/q1dyMZGLL2WIpj/CIDLjjvfAz+iR5PPjHPR+qZHksuDfQiAn379sWwYcN6sQcvNe1FLsQYI1KWmJA2Ix7uvQnIWUt6wtq2fOYbgtckkNVABqK3FyJnHtlElxmRzzr2NkmHjGQ3zOucMFAw7eYUN4WCgYwohIlsiC3J+dB12eogDsZpehhSV0O/rFzZ6OLP42GTl6PoITpgsnQsUpcaUKiaD2usCYYt5ag6RCqk7U6k0BF8Ts51JXCTjtWzOqmd+H7+My83D/4Iur1jxw7s2bMHqT5aRX/66ae44IILMHLkSNx4441+Rl26FwS6iYAXudCw1wLrYCNy7tZiw9xcFG1xQb2zLZ/5huBVWujj4qGtL6VDIRbUKNE8Tt040kzMRNxUUtPQKj+1eZXPn7XXpiAxsoTUMbRx0FWrA4oBm7UkWjkxWDkrEwVxRTAO1qKmjEicKFutIca3U9DvkelI31sDx36HEkWq5hCdsefEm71lpDdddvJl082p9Hnxn/70p5g3b55P+y0qKkJNTQ2mTp3q036lM0EgKBHwGhcSi20ic92kYiRcq0bcFNov3GJD9Ji2fNb7BB9JRL6TQ/XlEadrEDc+FzkUQs9zar25aUDlkxkotEfTUroKzqFZKIolUu6y1UEqljeF6kxYXdTYHW1aZTxvwtip9ClH2hjjigRohtDXBX9NkJWDc50LcWN4vd52s9ezrJIbdgi4nbDtqoOOLK0an+Du+aJpgxf5pSmlkJLRCQYkDG77/8G930o+aBptLdVD4qA/GZQ47CAPqQF7lQsBDZnTqialIcOqg2urA2lLydJweFs+A4fs62m6/fbbGw4cONBxM3V1DTU1dQ11xzsu0vpO1crchg2Oxpwah6PBUdOuXl1Ng+NATUNd15prX7mB26zpTBbHhobclVVn1PrpKp0Wq9M1EGD3X3rppYaMjIwAk6pn4pC6qWH//v2nNnJ8X0PumISG7K2Nt+reMDUkTCxuaP94nlqxXc6h4gbjyJSG7MXmhvSRqQ3L7W3vb34goSFlZm5D7sLchqKt3W79tN17s0CHWHmzky60RaH6Gj744IMulOzdIvfdd1/ncnibC4/XERd2zGdeWcH36dOHXxQdv2zJZrjZLKzjQifv6ElV07zVqm60Y2xbTbE66EpLnsqQLJ7abF1UQwdYJnqq2/O8EydohzCE0hdffAGXK7AtjbwGN5nPmuaRvfEC2nhfnYiSRXZkLE7toi+ak1K41hehKiUXyx/QwxkxFhkv22Gc2bzTQyEqa7VIIbWi6Yyfca+NWBrqJgLMhYcPdxIQ09tc2GSZ1ZGYXjGTvPzyy7FmzZqO+pD8JgRohYHvviPTvosuChlMeCzhFLtUdUMWzIMLMT19OiyjcltMenlC7Wumk8lmWst179JWVlm1Lrg4mDztP3FAb11sI6FrhtChOvr7ZCLVTIQDRZOJ+OeWwNaoqQmZ5yXUB8IHDysqKgJmmF5ZwV9//fVYvXp1wAwqUAV5/vnn6VBOMvgtLylYESCvkHONyBtVAdPqtia9ulvNKExy06kMTiqoomjPqCnZ1+cg62U6yTHChFl96TQrbegrhgb8s83/QjVSyeorlfaBKp5Mg3GBDuXz4oIVrLCT+2c/+xmWLFmCb775Bueff77fx++VFTwftuGB3XvvvTh6NGzPVHY6mU8++SRqa2sVV6KhlLZt20bmp85QGtLpx6KOhjZKg+h2yyPnplxkzc5BjnLRSn/dyRW8bkI+ikuKUfyoAT+7itwEW23Ki8C2vQraq9l+m14MzU7KFAnIMuIGPa36+XifpNMhwLzzySefnK5Yr98fPXo0fv3rX+MPf/iD8qXm7+SVFTwPYu7cuZg5c6ZC8vzJzpHpWXUTzontw5nUWe/ev39/5ObmhpR6hudWq9WCD5lIYqsGM5aPOz0SquQsZKwga670aNRVG5BXolHOZSRaTaha4EbOVDoUqCZVDulnjEvYg7yk0yHAMSmuuOKK0xXzyX3aaEV1dTUeeOAB6HQ6xMTEKP9P/JG8RvAs/NNPP93msI0/BtTc54cffoh9+/Zh3Lgu/I/rRUEvueQS5VDOqFGjerEX/zX93//+l/z5BM9ZAa8gFUEmuFt74B6B3ApnvmqB0ekmy+Em/zNTilFVT2od0trkrjaQbxq3Ygyg8ur/UK+MXhrpAgI5OTk4dOgQ/vrXv/pVq+H1x8cfh2084b1q1SocOXJEDuB4AseLeUzw11xzjRdb9H9TvEdSX99GX9ILQrE1Vyv7d7KGaCHzHlmJ9YKonTQZalZhnQy127cGDRqErKysbtfzZgWv6OC9KZC32mKLlc8++8xbzUk7HSDABM8B10MpsWrxH//4RygNqVfGYrValVPMoWQV1itA+bHRkCX46667DpdeeqkfoQ2PrnlvIdQInp8dXiBI6hyBP//5z0hJSfGRq+bOZZG7nhEIWYK32WzYu3ev51FLrtcQYCIMNR0879vEx8dj8uTJyrkFSaciMH/+fEUFeuutt556U3ICBgGv6+ADZWRsrvTee+8FijghKQefYGUroQsvvDDkxpednd1iFRYdHY0BAwbgsssuC7lxdmdA7Mnz22+/VazC+vXrpxhViHqmOwj6vmzIEvxPfvITxYpGUu8hwDpYPv8QqokJjE1dV65ciWPH/BKQsAVadsvMdt585sSfKTY2NiBdNbOqkAN+kE8af8ITcH2HLMGz/enBgwfBkV7ETrt3nrt33nkHiYmJvdN4gLTKG658SM3fiQ/OsLpI3DJ7nonvv/8+OAJ+eBa/13JDVgfPiLHq4P333+818MK94ddeew1jxowJdxh8Mn52B8JnKiQJAt1BIKQJniP+yEZrdx6Hrpflz2E+ii0E33XMpKQg4GsEQprgf/WrX+HVV1/1NaZh0d8LL7yAu+++OyzGGgiDZHUjO7CSJAh0B4GQJvj09HS8+eabQRFtvTuT5u+yfAQ7Pz8f7HNDkm8QGDx4cEB4J/TNaKUXbyEQ0gTPplwPP/ww2GZXkvcQMJvNmDZtGtiiQpIgIAgELgIhTfAMOzv9+fjjj0Gh5QJ3FoJIsrKyMvz973/H448/HkRSi6ihjgB7r+V9IUltEQh5gufhLl68GEajEVu3bpX57wECdXV1igvUvLw8URf0AEep6n0E2IR02DD2qy+pNQJhQfC/+MUvsHTpUowfPx7swkDSmSFwzz33KFYzFGT7zBqQWoKAIOBTBEL2oFN7FNmvCEd94Wgra9euBdsVS+o6AnzAhgOrL1q0qOuVpKQgIAj4FYGwIXhGefr06YpPEQ7AwWZ+EydO9Cv4wdI548Q+Z9atWxcsIoecnHxg7/PPPw+5ccmAeheBsFDRtIaQ1Qy8UfjHP/5RMfMTb4EdP2Ds/4QPi0VGRgq5dwyTT+7ISVafwBxynYQdwfMM8gqeHWWxgyL2NbJ8+fKQm9ieDmjhwoWKI7G77roLy5Yt62lzUl8QEAT8gEBYEjzjzA7Inn32Wfztb39TzP5mz56t/Az3xBhcffXViqtlNi9lqxlJgkCgI9DsTTLQ5fS1fGFL8M1As4XNpk2bwFF8lixZoqgk/vnPf54yD3wiNpRS+/G8/fbb+OUvf6lsoj711FMoKSmBXq8PpSHLWEIYAfEm6Xlyw57gm2G54447wO5vZ8yYoZx8NRgMeOKJJ1pQ49/bk6JnSAM/NykpCTfffLMiKPvqYZ8yfLEZKa/cb7nllsAfhEgoCAgCp0VACL4dRL/5zW+UA1HJycnYsGEDfv7zn+P555/HY4891obwT4tsgBbgE6g33XQTiouLwS813mhmJ1YcHGXKlCkBKrWIJQgIAmeCQFiZSXYHoJkzZyoh29jnOassdu7cia+//lpR4bz77rvdaSpgyjK585cI+8nnzWU+sORJHRUwAosggoAg0CMEhOBPAx8fjGK1BeuoOXGQ6WuvvVYJnTZw4MDT1A6M29u3b1eshnjTlNOXX36prNZlxR4Y89MVKcrLy/HFF190pWhYljnrrLMkZJ+Hme9DpxMbPORLFiHAOvfWendWZVRUVCjR5Nl+3t9xOrs6SVFRUeD/AOeff76ych8yZEhLVXEa1lUU/VtuzZo1WL9+PVavXu1fQQK0dzaSKCgokJis7eZHVvCdPLC8Edm8GblixQrFXp4P/7DLg2BMffr0UWRnkzLeV2DSlyQICAKhi4D8D+/C3G7btk1xbcA/g5XceZj8scZ7CfySEvfJXZh4KSIIBDkCQvBdmEDWu7P+M1hUMqcbEo/llVdeOV0xuS8ICAJBjoAQfBcm8MMPPwwanzX6cZkwjlR1Oiqn0wmO8SlJEBAEQhsBIfguzO+JEyc6Xr2rDMhemYv0k/uWjS1qUmBeaUZqTCcdROhgmJaOhNZlhpuwfJkJce04WpWUieXPpEPX6a6JCnETc5Aep+6kU7klCAgC4YKAEHxPZ1oTh7ETMpE3LxUnaVUFw+xcZE9IRWJsJx1ExME4dzoMrQheFZeCjClmmCfpTlaM0CNzgRnG8QboOyX4TvqSW4KAIBB2CAjB93TKB2uhdtpQMyoHpuFNjcUakTkOsO6PhlrbuBRXj89H+Y592LenCpuXGaFvXqETeRtXlaN8ywZkk2pFq4mGe6cD+hmZMDSVUY/LgTHKBluUFlomeP5qKMlH+uDG/lS35mLzM6noXDHT04FKfUFAEAg2BITgezhjqkFaRB8sQc4qwDgjRSHZhPtN0K/PQeEeIuym1bmrLA/GMfGIH5MD+6hcmMc3rffr7SidZ4LpgSwUbndDM0gNR5kZBY4UZE7QAPwCmJEA6zMFsLrphaG0p8awhHjoohqFV2n0SLxKKwTfw7mU6oJAqCEgH/w9nVG1GqojDlgWEwFX0AbncDUSx7tQkFwKxzw3omO01IMdqFdDPz4dqfynC9AOjm7q2Q3HHiusu/hPFeLVtII/aEXhIgtMpL5JOKiGUV0C48t2ZMxWN74wnD0VWuoLAoJAOCAgK/gezrJaTWv22hq4nUUo2KhF5hozEiryUUiE7XbVQTWAVuoRCTCXlcKcFAn3ITf93Ujmnrrm9mpqauDaWIDVSEfh4jQ4lhWgwk15tSqoo5sVMSpEik7GE4QhmcdnGPigmiRBoDsICMF3By0PZaOjacXtJtKGm1bxhbCrXSh5roQX6aihfDWtyFWqYYgbYkfhrBzkLSlAqY3Lc3Khzq2B9uKTpB0dxS8Mul9vRf4yK6IjNqBgFX0BUPt17khEsmaH1Dr2ah3iRpAKx0OKjIr0kCtZwYwAP2N8AlmSINAdBITgu4OWh7JqIuQ6JmROu/IwWhuPrHcaCd9N+ZGkwkHtBhS9rEZORRUqK8qRm0x59VTGXY7Va1zIWFuFqj37UDzlClrxu+FSXhiA8/k0aC+/FyX8tqinr4Q6NdSsdyfyL1xYDN0CG/btoDbnGehroYZuuFGxqRy6h4uQPVxpQlKIIMB+kNT8LEkSBLqBgDgb6wJY7HXxH//4B1wuZtozTyo1rdZjIlHntMNZe7IdlUZH1jE1sB/sZvsqNXSxpMuvdtCKvvmrgDT5vC9Q64Kr3rOs7IOGPWK+//77ngtIbsAh8Mgjj+CCCy4A/5R0KgLibOxUTDhHNlk949IruW6XE3YPHO4mwmclTLeT2wX7rlMbdNOL6CTdd7tVqRCACOzfvx/Dh8tnWQBOTUCLJCqaLkwPr3j79evXhZJSRBDoHQR2796NK664oncal1ZDFgEh+C5MLa+c2Kd6qCSNRoPBg5tOSYXKoEJ4HPX19fjoo49w9dVXh/AoZWi9gYAQfBdQHTFihBLmLlRW8RdddBFuu+22LoxcigQCAhxRjPdMQuX5CwRMw0UG0cF3Yab5P9fkyZPBTseCybNk+6GxHfWVV16prAQnTpzY/rb8HaAIcLjIUaNGBah0IlYgIyAE38XZmTRpknIAiVNdXZ0SgDtY/MM3h+zTarUKuS9evLiLo5ZigYDAG2+8gVmzZgWCKCJDkCEgZpLdnLBvv/1WiYbEdsneDrrNetZPP/0U48aRpzIvJg66zSZ2t99+u8Ss9CKuvmhqz549uOGGG3D48GFfdBe0fYiZpOepkxW8Z1w6zD3vvPNw//33d3i/JzdmzJihBBaZOnVqT5qRuiGEwP/93//12vMWQjDJUDpAQAi+A2D8kc2rkH379vmja+kzABHgL0U+jFZZWRmA0olIwYCAEHwAzdKll16KQ4cOBZBEIoq/EHjttdeUjX2LxSLWM/6ahBDoV8wkA2gS2VKC9fA9dYkQQEMSUc4AgbVr1+KWW25R3GOMHDnyDFqQKoJAIwJC8AH2JAwdOhSvvvpqgEkl4vgKgccffxwzZ87Epk2b5KyCr0AP4X6E4ANsch988EGsWLEiwKQScXobAf5yMxgMyjmLd955B0lJSb3dpbQfBggIwQfYJP/ud7/DOeecA7PZHGCSiTi9gQC7IXj00UcVVQybx65btw4XX3xxb3QlbYYhAkLwATjpfBCJLSiee+65AJRORPIWAs888wz48Bkfmtu5cyceeOABbzUt7QgCCgJC8AH4IFx22WVYs2YNlixZggULFgSghCLSmSLAp6D/+Mc/Kr6NPvjgA/zrX//CX/7yF1xyySVn2qTUEwQ6REAIvkNo/HsjLi4O69evx+bNmxW/MfwpLyl4EeAVOu+vcIjHXbt24Z///Cf+9re/4frrrw/eQYnkAY+AEHwAT9GQIUMUgmeXCMOGDcPrr78ewNKKaO0R+OGHH/Diiy8qm6cpKSk4//zzUVVVpWyi86E2SYJAbyMgB516G2EvtP+nP/0JN954I+677z4kJydj4cKFIeWf3gsQBVQTGzZswN///nflGjt2LKZNm4bx48cHlIwiTHggICv4IJlnJgg2oevfv7+ir2X9vKTAQYDPLvDJU3bqlpubqzh1Y7cTJSUlQu6BM01hJ4kQfBBNOTs6W7RoETZu3Kiobti3O1vbSPIPAqxHZ7NWNQU5568sjvzFRF9WVqZYxHBgFUmCgD8REHfB/kS/h32zKoAJv7q6WtnAY5/1knoPgc8++0zxDcM6dHbBzHr0O+64Q7kkBGLv4d6VlsVdsGeUhOA94xJUuUuXLlVWjna7HexyuLfcGQcVKF4Qln0C8WqcSZ1/8ouUT5jy5jfr1dnUUVJgICAE73kehOA94xKUuW+++aYSrek///mPQvR89e3bNyjH4g+hGxoaWgj9rbfewrZt2xRC54stYX7+85/7QyzpswsICMF7BkmsaDzjEpS5N998M/jiAzTPPvusogPOyMjAI488Ao1Go4yJXwKcuJwkKC/D1qv0+Ph4hdB5hT5hwgRwHFtJgkCwIiAEH6wz14ncvJopKipCcXGxshnLRH/vvfcqpM5H45nAmNTakzyvWj/55BMcPXoUkZGRnfTQs1us6uANYz7Axbbhvkpsl15eXq5cFRUVOHDgANxut7I6Z3xWr16tbJhKEgRCBQFR0YTKTHYyDibUP//5z8pBKSYw3izkw1NM8pyY7B577DElziwHHOFg4idOnOikxZ7d6tevn2JOyC8RdrCVlZXVswY7qM1jYTLnE6NffPGF8jurWRITE5WLTRljY2M7qC3ZwYSAqGg8z5as4D3jElK5MTExyMnJUS5W17D/E0633Xab8ve8efOUQCNfffWVz8bNL5lzzz0XrPdmsmcb8p4mm82mvKyaV+hM6gkJCTh+/LjyAuPf2VOnJEEgXBAQgg+TmWbd+xNPPKGMllUz7MGQyXDOnDmKbxRfknsz5BxgnDcyzz77bFx11VXdOr7P8rJ/F45ZyhePhdU+TOJ8mUwmsD8fSYJAOCMgBB8ms8+k3l7nvnXrVsXSxuFw+A0FXl3zSps3hpv9szTvEbQWavfu3XjvvfdaCF2lUikvBnbWdffdd6OgoEBs0f02i9JxoCIgBB+oM+MDuT7//HNF797jpDHANF6F0qWlsLdzeqkfn43EA3kofM/dYTe1tbXKwSH+ymBy5wAYvDnMK/NmUmd1zg033KAQ+j333CNeGDtEU24IAicREIIP46eB9d98dZqiDMh8Lh14bjryOiBp1ZBUmO4HKp9vT/AqJE7KQeq6gk4Jnjd1Wd3SHKbu6aefVsLWNZM5Bz6Rk6KdzpLcFAQ8IiAE7xEWyWxGQDcxG1m3JgJRFShKLYSzl6DhQBh8QnTv3r2K73s2XeQA1JIEAUHgzBEQZ2Nnjl3o14yIg3GqDpaHs1CZYIRx6Mkhq64yIr+0Evv2VMHylAHalqWCBoZHi1C+Yx/2bd0Ak75rMLH54p49e5QvCrZ44dR8KKtrLUgpQUAQaI+AEHx7ROTvFgRUSUakR5Qgf00RCst0yJiaABXfVSXAvMaM+O05GDsmDTmldjRr2DWTClBEFo+FU0Zj9LQClNd2H1BeufPVflO4+y1JDUEgvBEQgg/v+e9k9GqkTEqDa10RKlJ7QkwAACAASURBVNwulK7aANU4IwxRVGXoWBg05chfUArbfhvKt9hRo2yuqmBINsCxJpd07nbYt5XCeqCTLuSWICAI9CoCooPvVXiDuPGYNBiTNdDVFmPfBB5HJLSxKhhvzUKpXQUVHfF3ewgTG0nmi+46VxAPXEQXBEIHAVnBh85cenUkmvHpSNyZA0NcPOJH8KXH2CUOGCakQb2zHFYkIGO8rl2fbpRXWKG/zYgEceni1fmQxgSBM0FAVvBnglrI1yF9e3o8KkvuhbX65GrcsrIUjk3pyFCPRuaMRJQsroRjtgM1Ki10rgKAVvS2RSbkxBWhdE86HE43omOJ9Nd0bAMf8lDKAAUBPyIgBO9H8AO3azvyRkUjr72A27IwLLop82AWEtfnQBOrQ6TbAfvBphdBvRUFdw5DYYwOWlrF1zjtcJ3BRmv7ruVvQUAQ6D4CQvDdx0xqNCNQ74Zzr80jHu5q2mSt9nhLMgUBQcBHCIgO3kdAB2I3HMzirLP8/wiw++BAkCMQ50hkEgR6goD//3f3RHqp2yMELrnkEsUDo79TVFSUeH709yRI/yGJgBB8SE5r1wbFAS8GDRqkRHnyV+KYsRxximWRJAgIAt5FQAjeu3gGXWsc8OOaa67Bj3/8Y5/LzsE3mNgnTZrULV/wPhdUOhQEghQB2WQN0onzltg33nij4vvFlyH7+vfvj+jo6JaQfd6I5uQtPKQdQSCUEBCCD6XZPMOxcASkN954A2cSdHvHjh2Kk7DU1NQu9+6voNtdFlAKBh0CvElfVVUlqr52MycEH3SPcu8JfNNNN4Gv7qQHH3wQR48exdSpU7tTTcoKAl5FgIPEDxs2zKtthkJjQvChMIt+HAOH2Tt8+LAfJZCuBQFBoCMEZJO1I2QkXxAQBASBIEdACD7IJ9Df4peXl+PAAfEJ7O95kP4FAU8ICMF7QkXyuoxAYmIiLr744i6Xl4KCQG8gwJZZvMkqqS0CQvDyRAgCgkDQI/D999/LJquHWRSC9wCKZAkCgoAgEAoICMGHwizKGAQBQUAQ8ICAELwHUCRLEBAEBIFQQEAIPhRmUcYgCAgCgoAHBITgPYAiWYKAICAIhAICQvChMIsyBkEgzBE499xzxUzSwzMgBO8BFMkSBASB4ELgu+++EzNJD1MmBO8BFMkSBAQBQSAUEBBnY6Ewi34Yw5tvvgm+Dh06pLgq4N853XzzzX6QRroUBAQBTwjICt4TKpJ3WgSYyNl/vNPpBAfNTkpKaiH501aWAoKAIOATBGQF7xOYQ7MTjgLFxM6Jf3/88cdDc6AyKkEgSBGQFXyQTlwgiM2r+MGDBweCKCKDICAIeEBAVvAeQPFVFrva/fjjj1FTUwO1Wu2rbr3aD8d03b17Ny688EIsW7bMq237qrFvv/0WMTExSE9PV9RNkoIPgWZvkhzEXdJJBPo0UBJAfIvA9u3bMWfOHGWDkuOTHjt2DPX19b4VQnprQYBJfeDAgWCS+N3vfifhB4Pw2eDIYgUFBRKTtd3cyQrexw/zBx98oOiqP/zwQ3z55Zc+7l266wiBzz77DAMGDMCqVauUnxMmTOioqOQLAkGDgOjgfTxVixYtws6dO4XcfYx7V7o7cuQIKisrsXTpUuzbt68rVaSMIBDQCAjB+3B6OOLM/v37JcSdDzHvbldHjx5VXr5btmzpblUpLwgEHAJC8D6cEj4Q5Ha7e9ijBoYHTEiJ7WEzUr1DBJjkd+zY0eF9uSEIBAsCQvA+nqmO9rTVyWYULUhFh7Y0KgMyV5qReukwpD9sgkHjY8HDqDve9P7hhx/CaMQy1FBFQAg+QGbWHUEr8wkpSFQ1CXRtJopfNcPQ/PdQAzKS9cB3ASKwiCEICAIBj4AQfIBMkdtqRVXMMOibzg0l3GlEarIR6WMaGV4dFwfd3kpYa1lgLVKXVqLKVoXytdlIaVnNq2F4aDk2W6uwz7oZ+RP14NqqpGwUW6j8nn2oWmuCnmynNPTFULyFytkqsYG+HHQBgoOIIQicCQKsVvvkk0/OpGpI1xGCD5TpdRJ5H9QjcQRRckQcxo5xY/UqOwzjDETSKsTH6VFjrYBDkbcGFQszMPZWI4pV05E/L0Uhcs2EQhRNBQonGjB6thWJz+TDGAuorzIgBUVIG5WIsbOKYIvNRNELKbAvHIv4cWY4xhUgd0KHyqFAQUjkEAQ6ROCcc87BFVdc0eH9cL0hBB8oM19vRbnVDf2IOKiGZyClvhS5CzfAmZQKQ5QWCSOiYa2oROMWrRsOuw32vRUoeLkS0Xo9relVyssAB1zQEfGnDwcc7vjGFwaPsdYFOzkGs+930eqdVEG1drivSodpnB7uahXiEuKVl4QkQUAQCB0E5KBTwMylG5aySmgnG5AakQJsTIN1lxvFB8thnGCFakgl3XedKq3bBXcEr/qBSJUKdfwGUGa1BuXPmWGzUUa7DdlIVSRQT201zb7jjVzkbSPCP7V1yREEBIEgRkAIPoAmz7XJAtvCLJg1dhSMsSmSFa2uRNbcHGB/PrKclNHhjLlRvtWG6CQHSp7OA/N6c9I0Onxs+duxrRKOGVrYV81H4f6T5eQ3QUAQCC0EREUTSPN5sATFu9TQ2opQtLdRMOfLRShXaeDYWArbadzV2JaYkFtrQrmdNlN30AbqFjMSPLwQ3GVmTF+lhnmro7Hcng0wxQYSECKLICAIeAMBcTbmDRS72Mbrr7+ORx55RPFD05tJFaODVl0Hx34n3J29FKI00A2ORN1BO5yKdY4kRoAdj02cOBHsVkJScCAgzsY8z5OH9Z3ngpIbPAi4q+2wV3dB3lradN3VhXJSRBAQBIISAVHRBOW0idCCgCAgCJweASH402MkJQQBQSDAETh+/DjYmZ+ktggIwcsTIQgIAkGPQN++fTFs2LCgH4e3ByAE721EpT1BQBAQBAIEAdlk9fFEnHXWWdBqtT7uVbrrDgKRkZFecOvcnR6lrCDQOwgIwfcOrh22evnll+O+++7r8L7c8D8Ce/bsQUdunf0vnUggCHQdASH4rmPllZJDhgyRoM5eQbL3GiktLcV7773Xex1Iy4KAjxAQHbyPgJZuBAFBQBDwNQJC8L5GXPoTBAQBQcBHCAjB+wjo0O7GjYp1FrAvtEBK7m0lKN0fSBKJLIKAbxEQgvct3r3f23vzkajPwOpqIt25o5F4fwkUJ8P17pN+afYXIiNhLPK2e0ccdl5WuFfb6JXYZYNlXQlKylq5HybXxLb3KlDxDl3klriN02O3E7bt7fLaiOWGc1spSl4uhbXlDUJ5O5vae88Ke2s/OjRO504bnORNUxULWBYUwu6dYUorgkDQISAEH3RTdhqBj5AfmoMu1FH4DrUuDvF6CgWyk0g/OhF5zX5nonQYxiEAvRHEyV2BvFWRMD1A8WKJSgtnm2Fx1sC2NA2GpxpdHsNZhKyHCmGpKEd5hY081XNyw7okA6PvzEFRWXPeqWPjl0fmSrrvLEXWmHtRym+HehsKZ1C9LdTelsoWgneVzUdaSgbMa8th53IxqVTHSvIF2rfFqeOUHEGgNxAQK5reQPUM23RunI/Mp4thq9MiYxG58FWvRs5cIkZagsanm5H7UAJU7+XBOK8U9kNEkxenIOsZM1Jj3bCtyELWCxTxqd4JVz2TLVGoi8i+pq7x93oi32mjUT7ChMJZFA7koBM17DPeZUXBbCLLrTWIHmGEeaERce5S5NyfR/3WwD1Aj7Q5BchO8vQ2IJJeVAhMzUecEg5KB+NzRY2jv9qG4mU2onGKC1tLHY1IR/ZMQ+M9lu2dHGRtHYuiV9NPxiOhCFUVqgQkDKbxvGNF9MgEaJLMKFL82RNjb0qhsIZAylA3aqIMMM7MRFzzE+wqQdaTDphKimFoJapmfA59xZhRMiYfqe0Cn7QII78IAiGKgKzgA2ViSW1iTM+FfagROQ8bYYi1wjzBiCK3AVmTdSifnQrTOoretKccJVsAA5XR2fJgWmgBdhXAOKMY7lHTYRylg6qJ9Bw2Cyyk/miM/RGNuJR0ZIzRQ03h+srLymFzURSpuWnIKlMjbUYaVJumI21uBXEpqVnWV0F7ZxbS1BUwP5wLqye3w9UlKLCnwHSDwu4nE79MnrPCMKkxViyY4LfOx9g7p6PgnUYFjbWkhL406CWWOhYZc0ub9PdVyJ96L/KeNCJrbeM6v7lR1zu5WB2RgfSrOIdeWjUbkJWagawVVkXl4y4rxoZDtLKfOhZpk/NQ0eJNU4P0qVoUkTySBIFwQ0AIPlBm3EpkXJ9Iq3MTUsenIg4UhHuvCmOnZSN9igkZQ12wbm3SJqt0SBxPeQkquMiX+1c2KguqOysd6WOI4D2NKUKNeI7Vmkwr6pb7dlRUOCiG63RkTsyEKVkNx1ZSb/D9iGjoRlHM1lvpa4BW+43Bvts1HJOC1KjSluAkyl36gighki5Nyoc5qamna7OxoWIzihcmovwBk7I/4KhWI3VBEYpLKBj4/hyYy6juECLsBDvMy1xIeTilZWXvpn2FjHluZC8z0TcCy2ZALqlnNq/OgW4dvRA3ueFyujBs8nIUrd2AghEWZC5tJnQXLKspeHl6XDvh5U9BIPQREIIPlDkm9wU60i1XbKEgHRQg2xWhpaAdblRuqYBzL+maSTWhvbidi4OmlXp/pa4Vlk20Wdm4XG87KorVqqKNTvseUt+0KUD1dCo4tpfTBqYVFVYXVBfrEN26Nsd77TCpkTI7hcIMntzItC0xovDyXBRNaf0iaWxAFZuAxEH0snCpoCV1ieMAC0sRrGJoBe6mTeBNRPQ1majclAHrrPmNXw0u0r3PtsO4MhcGKtcmRemROJzkpx1V9WAtag40vgDVGtLRHGkEwl1GK/9B9PIa2uEg5IYgELIIiA4+UKb2BorFOsUC451aFNarkPKCHfkLMzD2/kRon1JBk0x65InEius8CEx1c6eUIyP9J1SX7tPmYmTrmY1NIdVMLqk0qO2h2Sj/ZzOF0yp6rhnF47IQr3VTYO9U5D+fSpSb56GTDrKor5wx05FDG5nLJ9aghGLIOqJzkEaaHpYjd5kRbtpMNVsjoaqugn1IFkqGUBzwqSbkT0rDvZtUqHJmoGABvYRUuSge09jP8rWNP92baJVPxG0n1UshfXvETStEjqoAGc/b6UVkR1W1AeYZaqii6IvmeRPGTiWPgrS3a1yRQG8NUi+toA3gZY17Eh2MQLIFgZBFQEL2+XBqOWTf22+/jfnz53fcK63enW4i9JimlTOZ/blIyaxu/rvjmoBSl8sS4Xko564mHX6UGmoPN110T9VBPQ9NtcsitcwiC+IeSm9UoXio4HLSl4lKDU3rzumrgrJp9e1ZXg/NtGS5XfQ14qb2NK0H06iqQYwGanrBucsKUBhpPHWPoLOG6V6zq4J58+adpqTcDhQEJGSf55mQFbxnXPyXSwSsiWrVPalI1O1VEx1J175uu3KdETi/FM48aZBK5N5ZUmvo66N9on0BzeD2mV37W6XWnLS+aalCWLXqR5VkgqlrzUmpIEegOeDHiBEjgnwk3hVfdPDexVNaEwQEAT8gIAE/PIMuBO8ZF8kVBAQBQSDoERCCD/oplAEIAoKAIOAZASF4z7j4PrfaRnbvjYeAuHO3k/4+6MnmsXPRuJ6t5ZBP+7Lkn+apsUg00OGiJeTDZV0eCrd30IerAoWLmg4gkQmjJEFAEAg+BITgA2bO7CiYaMRqsndHLZn3jc+CpdaDuctp5HWsIpPF9SdfFG2KkwuC/BI98t7YgKIH4hCt1ZE/mg76IIsXbSz5sSGbw/ljjCjxdJL1NLLIbUFAEPAvAkLw/sX/ZO90KjR3rhb5swpRsiAH1jtzkdmTwzlu8jEzOQ1jU8ZibHoOSvZTV+xR0mmB+U6yP6eTnjX2ysbVvqey5ADARidnlbV7fQVyqU7G7FJ8uCYL88uaDxHlIWcd2TlKEgQEgYBEQAg+gKZFTYeZsiJykFFGR/GntT2cY19DfmJS01que5c2eWok+d1kKO+ko/ptDqnSqVjLnnjkvkqr9fFOmBeUNpL15WnIXVuM5dPiyOWMBVb2QeCpLPmTKX+vyctjRAKyVhejaEEKfkbWjhvWWJS2ytdRm3wkVZIgIAgEJAJiBx9I00Kr6+I9w2CItKBoWybMrZx46W4ln+tJtAJX5KVTn2Tz3pjI1wp5gCzcRb4cJxa0tfvuSyVohtXkGli7wkFr8sjGKp5mvaOyzfg01xmVhkT2cOnSonyXHinDmwvIT0HAfwhwkPT6etEjtp8BT//V25eRv32CAJ0GnZWLyFnkvEtfSC4KzLCWmpvc8ALOTbmkWz+pDlEnZSJ3Iq/yyR/MgmKkNMlof9qDsMos86uhieA9FGnJOqUsvUz60ouFg2rwO4VW86ZUM3IokIbrKnJT0IEKv7Mu5J4g4G0E+vTpg4gIobP2uAoi7RHx09/uTWaY3dNROo5ZlFbvSYnIWmLD5pmNqhrNODOWj/OHcFokJpGfdVIPbRiagpznjNBPMgJX50D/cr5Hlwj+kFL6FAQEgVMREF80p2LSazld8kXTa733rGH2cAmyrFHRl4B7fxGMs13IWZtJ4TxCL4kvmuCbU/FF43nOZAXvGZdey62tbR1AtNe68XrDzTp/65LpyLXpkPFMdkiSOwN34MAB8Ce/JEEg2BEQgvfhDF588cX49NNPfdij97uKe4CCani/2YBqcc+ePbj66qsDSiYRRhA4EwTETPJMUDvDOsOGDQOTfF5eN/ytn2FfUu3MELDZbNi9ezdGjRp1Zg1ILUEggBAQgvfxZEyaNAm7du3CX/7yFx/3LN2dDoEPPvgAzzzzDNLT0/GTn/zkdMXlviAQ8AiIisbHU8SbQf369cPChQtRXl6OH/3oRxg0aBDU6p74Y/fxIEKsu6+++ooOijlRVVWlkPuECRNCbIQynHBFQKxo/DjzTPAff/wxampqgpbgd+zYAdZZp6am+hHJnnV95MgRDBw4UCF3fvlKCj4ErrzySsyaNQv33HNP8AnfixLLCr4XwT1d04mJieArmNODDz6Io0ePYurUqcE8DJE9yBE499xzwXtcktoiIAQvT0SPEGCV0+HDh3vUhlQWBASB3kFANll7B1dpVRAQBAQBvyMgBO/3KQhuAfbt2ycr+OCeQpE+hBEQgg/hyfXF0NickDcoJQkC/kSgrq4OvNiQ1BYBIXh5IgQBQSDoEYiMjJSzCx5mUQjeAyiSJQgIAoJAKCAgBB8KsyhjEAQEAUHAAwJC8B5AkSxBQBAQBEIBASH4UJhFGYMgIAgIAh4QEIL3AIpkdR0BdrfwxRdfdL2ClBQEegGBc845R/ElJKktAnKSVZ6IHiHArha++eabHrUhlQWBniLA7jLEVcGpKMoK/lRMJEcQEAQEgZBAQAg+JKZRBiEIhDcCP/zwg6hoPDwCQvAeQJGsriNQXV2NYI0z2/VRSslAReDNN99URDv77LMVFc3jjz+uXJIaERCClyehRwjExMQgKiqqR21IZUGgJwhwgHT26f/8888rzQjBn0RTCL4nT5bUFQQEAb8icPPNN4MvDoPZTPB+FSjAOheCD7AJEXEEAUGgewg89thjSoU77rhDVu/toItYtmxZ99BsV/r777+HRqPB+PHje9SOVA5OBLZv3y528ME5dV6RmgOV/+c//8HXX3+txBb2V4qNjUV9fT16ymc9kf/QoUMYMGAA7r777oAJwdlHq9U29GRQHMOS9bDszc1kMuGuu+7qSXNSN8gQKCoqwsaNG/HSSy8FmeQibk8QYJVIdnY2HA4HmNiOHTuG48eP96TJoK/bv39/REdHgw9d3X777Zg5c6bfxxTBE9TT9NlnnylvrD//+c/gQY4bN66nTUp9QUAQCFAEKisrMWfOHHz00Uc4ePBggErpH7H279+vEPyJEydwwQUXwGg0+keQpl69poN3uVywWq1YtGgRvv32W78OSjoXBASB3kNg6dKl+Pjjj4XcO4CYT9Vu27YNL774IioqKjoo5ZtsrxE8i8vEzuZKr7/+um+kl178jgD7opFVnN+nwWcC8Nf6zp07wT8ldYwAq6vYR9PWrVs7LuSDO173RcObLbt37/aB6NKFPxHgAyZ8NfuiaT5wwiZrkkIXAX6Z82ZmMCTVtekwXW5D3hqrX8TlA4BshODP5NUVPA/E7XYr+idJoY0AE/lbb72lfIZyLMykpCSF8CWFNgINDZ3bZOgm5mL5owao2sCgQty0fCyfFtcJOCrox5mQfm3rmmqkziuCeZymbb0IHdKfKUJ2Utte2jeuHjUdOeP07WRpX6r3/uaNZ39zodcJvvfgkpYDDQG2P/73v/+t6Bn5dzlBGGgz5Gt5iKSTMmCcm4vM4a36jjXCvMCEjOTOyFYFw7RcZMS1Iu0IPRLHpyN7YQ4MrbLV48zIeygdY6/V+nqAQdefEHzQTVngCMyreL1eHzgCiSR+R0CrUcO2SwXjrFSoFWmIuB82QX/QBle0FgolDzGiaGsV9tn34f+3dzVgUVbZ/6eOMhjgTH9J8JPJ3A0zC8rdINuCPkys/AtZCY+Zou6TQ/YBuS2yuhmw5oLtf2V0V0Erd3SjxGd1RUsZelYX+oRakTE1x1WUMTBGQXkxrP85L4wiXwLOMF/3Ps/AzPvee+49vzvze8973nvPKcnPQHTQlWGHv5KPor0F0L9A3ysF1VeZYJRikDhb01SJSF/7SiRqykxQ+bNlr0T0ygJkPN58BRgei6y8xVddEK5I97x3NvfBex6Ezq1xQUGB7EJhvykHZLJ1GT9+vLw0dujQoXbZZHLq1Cl52dmsWbMwZMgQWw9fyLMpAoEIUNNqutWZUCYnQXtrHtIscdA+XgldshHxyXSeGMdUsQMpM7agsjoQcWt3ICPZgPz5RfJIjJsSod0uQTKbiODDoVKakLPEBO0yLcI2JKH04UTEK3KQlBsJnUZN9K5E4LhwBBuZ4CXAR4PQsLEw2FQv1xUmCN51567TkRsMBixPS0PfixL61Z6D108/ok+nLXp+8mZq+qHu/3ouoJOWUh+6ybzBB7t35uPe+x8QbqBOsHL4KUUA1D71qDmih/79ROQsjER+tRYhhSmI3x+OOB86z4xDz2gDJsQhNpjs+UYJgcOvuFpqzEaUfmVpUiVIBbVkgWl3JnSv7EDCND2KZkbSBSQcBmUYlBOEi+Zacy4I/loIueB5JvfVGRm4saoSgfQDcvly8Tzq+/bDZ4YCrL7pJixYsMDlVXJLBRRqqHwsMNdKKF6tQ+XeLOjp+7dpWj4slmDU+AST20aJqNVFyLndgKzcUra5rypXPTZVkYUu1UBqNCJndTFZ8XqENeZj7mYzpOl0EfBRNruByFHT+fNWt4S7K0oJH3xXUHKxOhnLl6NfxTH3IPdm7L1/vITRZ05h63vvYdeuXS42I54yXCXUSgn1daTvMT10u+lzqQ5ZvFKwzgJJSRa5MhAht6tRsjYJaW/pqA65YuQioaZOgnpEs6+djijVKqhoVV4NvbdszUJenRqm9ToY+KpAdSVfkqeQyOVjwdgJkZfJvlkg/asnId4OW0VzZRyOeycI3nHY26VnXqr4Y/0FDHUHy70VQgpaojfg7PcopeBWojghAmTBKyk1gMQEDwvy5tyMwOgcmPljYz0tofaGarAJee8aELzCiPLPi1C0JFx22TDB52/cAuULBhw1HkX5+miSpYQ3uWgkPi8VIykkEA/+0dikeF096pV0x8DtVqai5L4cGA+Xo3xnEkIk6otqmfcaYAxLhX7elYtGU2PP+StcNG4217zDUHFB/oXZpgy8BeOnT8WY4V44U7QRHxeesI3cHkq58dIPOFh+oIetRTO7IlCXgym+Oe13UbcJMf6bms4dicHNG1TQDFej3lIJc3WTo0baOhdjd6dAQ4tjKo+RG6YxD4Hb2xcn7Z6Lm29vPlemw5QxOQgI0tAFoRKVZNHLEr9IQ/gIHVSKZp9++6Lc+qggeDebXt6IMgAdbUbxx5hZiXjg0dswqF8Dzh4txMdv6nCY74HbLX4Yv0SPJ4fsgmHPCUgNP2LIQzMxzJyLkrKGdlvY+2B/elj8g9hIZ2+Y7S+fH54eaYd468x0vAfd0x2r+Uizdd+yOfXTTi896MA1mwiCd81569Govacsw8xZXtj7xlKUV3lhyDg/UFykjovXbRhzp4Svl6Xj4yImdD9MzE5G8If/cBjBdzxYcUYgIBBojYAg+NaIuPFnv5HD4X2KyLmwBGdIz5NlV5T1vU+L//31VIwa3IDTe9dhW8Y2nKbTin43YUySHi9eaMCxt1+U22lmrceLUxvw/c6l2LhnNKYum4cxw/yhvFSF/+4txoWRYRhzsx/qj36Ij5ZlwlgNeE96HfMXPABfL2r3aTa2pOfizK1zMfM5LxQu1uHYpdsw8fUEeOe+hN0ljrk7cOOpF6p5KALiIasHTfzpPf+ASZOI57NfxwMRt8DbqvvImZiZNhUXc1/GmvnpOHbLYsxOCkPT1f87HM5Zig9Sl2LfpxflFqd3pNPndHz0Ifnj1eMwJrgK+xY+iTXpxbjxmafgV7QU6xa8hnLfmZj6XKjcpv6zbPw9/nFkxmfizF3JiJrkh8avP4Sx31N45oUwBM2hMfkWokSQuwd9I4Wq9kZAELy9EXYm+YezsTo6Dnu+HoQ7frcdv91M7hY14Hvfo9B8uxH52w7gzPFiFK4vhIKPDeDBN0CqOICTB4/gTG2TMheqj9DnAzhd3WxpN57F2ZNVOPPFLhw+Sosiaqju8RKU7D0CvmuQLxSNfrL/fmL0LQDJ8QsYRAdP4JO0TJx8aD200VXIX0ZWvTPhJcYiEHBxBBSUss+mKtxwww1y+i5RnBSB0yX4ZBW9ckIxdbMeU57JxYYGL/xALhhaNdxUzjegsZ9XswXfVo/+bQ81HzmHHy5Ru2bH3wWS2b8f7UDpF4qod9Zg/H9z345s+QAAFJJJREFU8ckXZ+kzV/e6LEVxqQE/DPCDnx8dYr+QKE6NAD/ItzVvOLXCPRycknZf1ddf/lX1UMr1NVPYOgIgZ3rh2CSiOCECan/4XqhCLRveDedwli1yhRfOflqCc889irtHEgEf94Nmchj8DmWjgq7T469So4EeyjZgYMAIOtqNpYpet2DYSLLWX8jExye9MP72eaCVcFRG4J4lieR3j4PuUjJ+TfFGDj+nw0nhgnfCL8+VIY0cORLz58936jE6w+COHz8u56x1ZFHYeqJyc3PBeQlFcT4Ehk1fg1/PGoEL1d+RX2YE/Cy5+HveATSePIEteesxc/OneIhIf2BDMba9nEuelLBWSjTAuG0XHknTI2XSWfKhpyNjYxf0vFCILz+ciyc3f4S7ib2VI/1Qe6gBvk8k46Ebt2HDO+QCwlIYHtZjatyHWL2+J+vkujAOUcUmCAiC7xqM+/btwwcffNC1ynaq1YdutzpaNN2jLq0Ev2jRoh61F42uDwFOwLFt1VsYVd/sMG8tjoh9yDA/2gx1AqePn2vaRGitw+fUEvnPq64+3lrGQH/8z2DIfvfGS61PdvxZ4euPQWolLlafQG1nyzM7FoGzfRX44fZQbNz8905qiVP2QsBKWn/605/s1YXbyHUGrMQySbf5OnVRkVoi9oMd1OVzHVwXrmpBbp4zxzuQ0cnhxlpq1xX5ncgQpwQCAoGuIyBW0XQdK5eo2adPH1y0W2Bgx0PwA4UP7ttXfG0dPxM2GoFkRN72dnag2kh8V8QYt+dRUpGu1HS9OuKX4npz1umIR40ahcaBFPHJTcv3/frj1rG3ual2rq4WRXb8ohgGit2fX1gsb3C7VjGuykSJuikYmKXMgLzNeTAcbBFcoM6EYiLg/H2mNqGFQbHjjeZrM7NUTTHmW4dFoJAIpc39aNQlyFzl2IvMtXDq6fm+xdfGp6eyRTsHIMBp9Pp6D8Sp/u4XILuR704GqRFy110OQFZ0eU0E6vKQFBGOmAVJSJofhVBNKJJ2dxIJ5mAmMqtikTKRvqsULVK/qRQ1EmVwmhmFNA4x3FiKtOgEbCESN62PQ8wqa2hhOleRh7kPhyNhcyerVCiO/KYFUxDzSg7y97eo10h9zAlHZDLFqSdRyokpiK2isXTkurym4s5boW/OW22D7jvvcMXIuoJA0muv4dLwIFQq3IfkOeHHt4OHYtrTz+DRRx/tCgyijkMQoIQeK0pQbjQg8RYj8nd3YBkTyepWVCI6ObIpXjtlaNKmUzq+2YlIiKC0fifI8qwuQVFjJLTzYqGdH44aY7MsJmgi55Bnoy5raP6kGCY2VhvNKCZrn4vxjwnQ356FHe9mYPE0a+5gCaV/TEFpRCzCLz+BpLyxydGoXKmDSQ5d7D5FEXVYh7zqbMTSqghR3AOByMhIWZHlaamwXGywe8o+e6JmTdl3cYAXJj4QIbI52RNsm8im+OxLIhGebiIXiAbaVSHtSpUoDV/RhBRoVS1Om/ORsiAVeZYp0C8j40Q5hfK6RiMuthJjq02IWdn0vTZtSEHx5ExkKRKRV9HcvkqPhDkGSrZdhJKILIRNJN/+NhNqApMQs5PiJ83IQMYMcgV9lYmMqnjoZhoRV9iib1UUxZuPQ+rueGRNdh/DSJGvikaGIPd2v4SufJBJnl/2Trq9f/9+HD58GNHR0XaBizeKeHt7i6TbdkHXHkKVCJ2egsSQSuSvSIBuGSXI/kjbvLHtSn/KiDiMXZCD0tmLEWLl04AopK4PRviyuUhZF4sds00wVIxFwpIYYFMKcijFnzaoBmnvAiHJ5TAUm1FTXQpjnQbBkxMRtS4cKeYEGKYTkTcaUClFImVTNqLofUJECjbRRaE+3QD14yEoKjRSWxVKjkmIDGIXUSlyPh+LuNnuQ+6MtiIqOaqdVFf2mHgh0xEIPPjgg+CXvYper0dNTY3Y2WgvgF1Qrop876FE8CZ/IstKi5xyr2nncgtlyCWTOGcH4leVQv9qCytfpUHkwxqkbCc3Cz10LQqIRurdlGA7KBb62CJUkssm6tlI1FSYYKqmzE2UMMRCrpnSVUkonUHWu08mkpYYoF8RCI2akn+wkz0gEIGcSpDcL2OnxVK6Pz5OuV4pd6y5OTdO6aoM1M/JQZh78TsU0cJ6d8GfkBiyQMAZEVBCSTlSN80JRB4NT3VLJBL/HA+r97v1iJUTkxC/LYkebmYjUZGDuckGSqRND1TJ1R63hlL53apGjFmLmPn5UB0rgWqGHhq6AGjmNV0QpPdp1U1FFMKYw367BdlyB1nY8nhTT3EvaBD3bByKVZRE5L7F2DI4gGTEN+3PrpCQ97kaUeOI0elhr47cNhn8sNfNitjo5GYT2tvqnDx5EhZLJyslentAoj/HIeATDX3NT8jhBNvkF1Bdc7Wuih5uxsK4tRSYHY/s9TEw01dJNVzVnCg7BInbihBvpvR9PgEIaCVPOV2Pgk60DZiWhYKHLTBLSgQMbkXew7XYkdvUuLRYiVh62NvycUAnYl3qlM0JnnOC8mYbUTwDgWHDhkGlcsefhmfMX3e15N/2tSIkKn2sBN0F6SpaJTO7uR61a03ifEYV0MbB0wXBnctsKSBktrbr8rpR87vvvnM4F9p8oxNHUAsKCuoGDKKqKyPA8TZEcDlXnsHujX348OH49ttvu9fIQ2t/+eWXGD16tEO1tynBFxcXy5M/adIkhyolOu89BKZPn44BA+TMIKJ4AAK8U/qOO+7AsmXLPEDbnqtYXV2NsrIy3OXgTXk2I/iPP/4YGzZswLx58yhxA2duEMUTEGAXDfvhRfEcBOLi4sCuWBFRsv05P3jwIH7zm9/giSeeQFhY65Db7bex19E+f/3rX68rXPDp06flHzhb7vHx8XjmmWfsNVYh1wkRqKurw5AhQ3D+/HknHJ0Ykr0QYBJ788035cBvPj4+uOmmm+Dv72+v7lxCrpkeBrPl/s033+Chhx7Cq6++6vBxXzfBNzQ0IIAegvCtuiieicDkyZPB6+FvvPFGzwTAg7X+7LPPwL7m77//3qEEv27dOkyZMgVDhw512GwwufPF7tlnn3WahQc2T/jhMHRFxw5DIDQ0FGvXrsXdd9/tsDGIjj0bgaeeekq2mCdMmODZQLTS3mY+eIGq5yJw5513ylacKAIBRyGwY8cOXLrUjfRijhpoL/crCL6XAXfH7u6//37s2bPHHVUTOrkAAsuXL8e0adNwzz33uMBoe3eIwkXTu3i7ZW+8k1WtVst+WP4vikCgtxA4cOAA2MDIz8/HL37xi97q1mX6ERa8y0yV8w6Ud7LOmTMHf/nLX5x3kGJkbofAkSNH5NUqK1asEOTewewKC74DYMTh7iHw9ddfg7NJHT16VFjx3YNO1O4BAvxA9Z133sHrr7+O559/vgcSPKOJsOA9Y57triXvbpw9ezZeo2xSoggE7IGAkTI6zZ8/H0qlEhcvXpSf+why7xxpYcF3jo842w0EGhsbwStq2LqaNWtWN1qKqgKB9hGoqqqSd8j/7W9/kyvwcsiYmBgEB3cUhLh9OZ56VBC8p868nfTmeETh4eHg0BX88EsUgUB3ESgvL8cHH3yArVu3yslkHnvsMURFRcm5eHnnrChdR0AQfNexEjW7iMB7770n3zr/85//lMleFIFAZwhwqBN2tzCp885Y3o3KD085E1lERAS8vLw6ay7OdYKAzePBd9KXOOUhCDz99NNgdw3/SDdv3oypU6d6iOZCza4g8NNPP8mEbn1xuGn+rvj6+uKjjz6So1WKYhsEhAVvGxyFlHYQ2LVrl+yLX7hwIRYvXtxODXHIExA4dOgQvvjiC/n1+eefQ6FQXDYAmNjvvfdeT4DBIToKgncI7J7TKYeVTUhIwIULF/CHP/xBrFd286k/deoUcnNz5U1vTOZM6hyAi2PEcKwifo0ZMwYjRoxwcyScQz1B8M4xD24/ijVr1shWPIeT5v8cR14U10aAQ0VbrXImc37xMV7hwnsimMyZ2AMDA11bURcevSB4F548Vxs6//jfeOMNOVFESkqKTPQtV0XwyhsmBlGcD4Fz586BN7P95z//kX3nJpMJvC6dCdxqnfP/n/3sZ843eA8ekSB4D558R6l++PBhmej/9a9/yYT+9ttvy0PhFRNLly4VJO+oiWnulx96Wsmc//OLXS/88HP8+PGyu42fq4jw0A6eqC50Lwi+CyCJKvZBgAmet5qzNajVanHmzBnwOvrCwkL7dCikXoUAr3RqTeRcgWO8WMnc+l9sLHLNL48geNecN7caNZM6h3zdvXs36uvr5VUV+/btcysdHa0MW+Dvvvsu+vfvfxWpWwmcLXN+z/7ycePGOXq4on8bISDWwdsISCGm5whw2kf28TK5Dxw4UHYHsD+XE7i7QqmoqJDjo/CSUEc/POadnxxCt6ysTP5vfd+nTx95bL/61a9kV9iLL74oEzovWRTFfREQFrz7zq3LaPb73/9e9rtzzBF2D3BuS87Ow75eVyi805JDJvv5+eG+++5Damqq3YfN2FgJ3Pq/trZWfgh62223XX6xNc6fxUoWu0+JU3YgCN4pp8XzBrVo0SIUFBTgq6++wo8//uiSAAwYMEAOtjZjxgy89NJLNtGB/eQcm4VJnHcF9+vXT37P+wtaEjm/HzRokGyhiyIQsCIg7s/Ed8HhCLz//vvYu3cvSkpKHD6W6xkAh7DldeHs9uDlghwgiwsv/+TS2RJQvqgxkfNr48aNssuHifzgwYMYO3as/GJXFrutmMzFQ8/rmSnPaSsI3nPm2mk15fgjHHDKHQoTNevyySefyATP7ideKcTxV6yF148zeVsJ3fqeLwpM3oMHD5YjJy5ZskQmdrbaRREI9AQB4aLpCWqijU0RiIyMxL///W85iYNTF4UGUc9HQXpfB4O545Gyq4RjrJw4cUKOjsj6DRky5DKhazSay1Y5E7rVQmcXjygCAVsiIIIr2xJNIatHCLS0btsIuFOL7LVahCivPqOMSET2ylhoOrsHDQhD/LxIaFo01czMQPZvI3G1OCVCns9C9vMhbbq/6oAiGNGvxCMyoPNq7DdnK53JnQtfuCZPnoycnBx5tdA333wjxzpPS0tDbGys7LcX5N45puJszxAQBN8z3ESrXkJAGRKFuHmpSJ3dgqaJaBPTUxE/PRLBnRC8MjgOi1+JRsBlNlciOCIO8UsykHhnCwWC4pGarkXc5OBWxN9zJTmgFm/Y4p257JNfv3497rrrLtm3LopAoLcQEATfW0iLfnqEQGCAGlJZJYIXJiKymRtV01IQ72OE0ScQgTLBKxGZXoDyw0dxdH8R9C+HXSHq4THQ7S5CkSEDUdQ+MEAF40El4hdFQyWPiNq+okVwhREWNcnjQ3TXoH+XjjXLDvvdFmS3vMB0QROOscMPVdkHz0TPL+vD1i40F1UEAjZBQBC8TWAUQuyFQIC/CpWFqdBVRiFxBvlGyHqPXxiG0pU6lEpqqAZzzxJK1iYgcsJYhC80QJOcCm1Q84jMBmS8rIV2oQ5FUiAC1BaUrs5EaVgStLdSnYA4aB+vhC7dgBoVnSdSV6qDETYhGKrmu4PA4HCEDr9+y7uzVTT2wk/I9WwEBMF79vw7ufZKqFVkwVtKkfOWAcELEhAWoUW8Kg8Z75tQU6dCoEzwRPFKDabMS0RChAr1ROSBVkJurIGprBSlZSZYFAFQ+9Sj5oie2qsQtzASIQvIv1+YiZz9Fkg+Kqg7cfk4OVhieAKBNggIgm8DiTjgTAioVEo58bJlpw6bEIucP8egcq0OxRIdq1NCpSbL+tZE7CjMQnSghMoaiax8drxcKd7Wtwqy+H0ssNRKKF6tQ+XjWdDPBDb9OR8WSw1qfOh8c12JZFxu50yAiLEIBLqBgCD4boAlqvY2AmTB+xBV1xFpN5Yia20pWdg7oNtoooFIZKl7w5sYWRkcirHVeUhZlAndqi0orW4ap1RDZM5ul8tsT/KU1K6Ozh/Tk2+ePpfqkPUVfa4jC15JFjzVlSi6pWVwKMKC2tNXSQ9K2zsujgkEnA8BcUPqfHMiRnQZATWUvhIsEhE8FfO6GASus56sgVSvIoucCHlrDvSSHgZjJIwWJTRBgL6R2pRtgd6YD93+cqRIldDHbYKS6zPBw4K8OTcjzyqusR4SXTBkn/6RHKRuiIN+byXizDVQk7un/HOSJ5Ugf68SORsykB+SBEPTsKwSxH+BgNMhIDY6Od2UeN6AOLphUVHRdW90Ug3XkIVPPnazmS4KVhzJjRMUCHVdJUzV3WNk5WANAukOod5sglm+KDQV5WA6WE0WfwdTdcMNN+CRRx5BXt7ly0cHNcVhgYB9ERAWvH3xFdJ7EQFLBblW2vRHdwDH2jvepmKbA1K1iS4KbQ5DInIXRSDgCggIH7wrzJKbj5FjlbtT4Y1NLXPNupNuQhfXQkAQvGvNl1uOdvTo0XKsFncpHBue48uIIhBwNAKC4B09A6J/TJo0CUOHDnULJNhy58xJv/zlL91CH6GEayMgfPCuPX9uMfonn3xSDszFQbk4CbSrJ/yYPn06pkyZ4hZzI5RwbQTEKhrXnj+3Gn1iYqKc9INzsrpayj4OEcyv3krZ51YTL5SxGwKC4O0GrRDcEwQ4zC6npjt//jx+/vOf90REh204sYivry/CwsI6rNOTE86UdLsn4xdt3BcBQfDuO7dCs1YIPPHEEwgICMDatWsFNgIBj0BAPGT1iGkWSjICPj4+qK5uZ2G7gEcg4KYICAveTSdWqNUWgUOHDmHcuHFyzlR/f/+2FcQRgYCbISAseDebUKFOxwhwUuuMjAx5zb1er++4ojgjEHATBIQF7yYTKdToOgI7d+7EypUrUVtbi/T0dDkptigCAXdEQBC8O86q0KlLCHASbF6xw0mw586diwULFgjXTZeQE5VcBQFB8K4yU2KcdkOgoKAA+fn52L59OwYMGADeqPTcc89h1KhRdutTCBYI9AYCguB7A2XRh8sgsGvXLuzZswdM+vwwlsMoREVF4bHHHpPX0IsiEHAlBP4fU7OL/d+DED0AAAAASUVORK5CYII=;" parent="1" vertex="1">
          <mxGeometry x="680" y="-491" width="469.75" height="471" as="geometry" />
        </mxCell>
        <mxCell id="3Jo4Y_HwqX4nvUN1Vcto-13" style="edgeStyle=orthogonalEdgeStyle;rounded=0;orthogonalLoop=1;jettySize=auto;html=1;exitX=0.5;exitY=1;exitDx=0;exitDy=0;" parent="1" source="e4bR5QUqeG97lNsjzucb-17" edge="1">
          <mxGeometry relative="1" as="geometry">
            <mxPoint x="140.16666666666697" y="20.000000000000227" as="targetPoint" />
          </mxGeometry>
        </mxCell>
        <mxCell id="e4bR5QUqeG97lNsjzucb-17" value="Attention" style="rounded=0;whiteSpace=wrap;html=1;" parent="1" vertex="1">
          <mxGeometry x="-150" y="-100" width="580" height="60" as="geometry" />
        </mxCell>
        <mxCell id="VbyK2rYdc8wlRenu8n2k-1" value="&lt;b&gt;B X&amp;nbsp;&lt;/b&gt;&lt;b style=&quot;border-color: var(--border-color);&quot;&gt;SeqLen X&amp;nbsp;&lt;/b&gt;&lt;b&gt;ModelDims&lt;/b&gt;" style="text;html=1;align=center;verticalAlign=middle;resizable=0;points=[];autosize=1;strokeColor=none;fillColor=none;" parent="1" vertex="1">
          <mxGeometry x="150" y="-390" width="170" height="30" as="geometry" />
        </mxCell>
        <mxCell id="VbyK2rYdc8wlRenu8n2k-3" value="&lt;b&gt;Vocab Size X Model Dims&lt;br&gt;&lt;/b&gt;" style="text;html=1;align=center;verticalAlign=middle;resizable=0;points=[];autosize=1;strokeColor=none;fillColor=none;" parent="1" vertex="1">
          <mxGeometry x="-65" y="-460" width="170" height="30" as="geometry" />
        </mxCell>
        <mxCell id="3Jo4Y_HwqX4nvUN1Vcto-1" value="&lt;b&gt;&amp;nbsp; Here each Input is of size seql_len,Where&lt;br style=&quot;border-color: var(--border-color);&quot;&gt;each value of index lies &lt;br&gt;between 0 to vocab size&lt;/b&gt;" style="ellipse;shape=cloud;whiteSpace=wrap;html=1;fillColor=#f8cecc;strokeColor=#b85450;" parent="1" vertex="1">
          <mxGeometry x="180" y="-620" width="310" height="110" as="geometry" />
        </mxCell>
        <mxCell id="3Jo4Y_HwqX4nvUN1Vcto-6" value="" style="shape=flexArrow;endArrow=classic;html=1;rounded=0;fillColor=#dae8fc;strokeColor=#6c8ebf;" parent="1" edge="1">
          <mxGeometry width="50" height="50" relative="1" as="geometry">
            <mxPoint x="470" y="-210" as="sourcePoint" />
            <mxPoint x="640" y="-210" as="targetPoint" />
          </mxGeometry>
        </mxCell>
        <mxCell id="3Jo4Y_HwqX4nvUN1Vcto-8" value="&lt;b&gt;Head Size == ModelDims // N_Heads&lt;/b&gt;" style="text;html=1;align=center;verticalAlign=middle;resizable=0;points=[];autosize=1;strokeColor=none;fillColor=none;" parent="1" vertex="1">
          <mxGeometry x="-205" y="-390" width="230" height="30" as="geometry" />
        </mxCell>
        <mxCell id="3Jo4Y_HwqX4nvUN1Vcto-10" value="" style="shape=curlyBracket;whiteSpace=wrap;html=1;rounded=1;labelPosition=left;verticalLabelPosition=middle;align=right;verticalAlign=middle;" parent="1" vertex="1">
          <mxGeometry x="-240" y="-230" width="20" height="190" as="geometry" />
        </mxCell>
        <mxCell id="3Jo4Y_HwqX4nvUN1Vcto-11" value="N_Heades" style="text;html=1;align=center;verticalAlign=middle;resizable=0;points=[];autosize=1;strokeColor=none;fillColor=none;" parent="1" vertex="1">
          <mxGeometry x="-349" y="-182" width="80" height="30" as="geometry" />
        </mxCell>
        <mxCell id="3Jo4Y_HwqX4nvUN1Vcto-12" value="&lt;b&gt;BXSeqLengthXHeadsize&lt;/b&gt;" style="text;html=1;align=center;verticalAlign=middle;resizable=0;points=[];autosize=1;strokeColor=none;fillColor=none;" parent="1" vertex="1">
          <mxGeometry x="155" y="-130" width="160" height="30" as="geometry" />
        </mxCell>
        <mxCell id="3Jo4Y_HwqX4nvUN1Vcto-14" value="" style="rounded=1;whiteSpace=wrap;html=1;" parent="1" vertex="1">
          <mxGeometry x="85" y="20" width="120" height="60" as="geometry" />
        </mxCell>
        <mxCell id="3Jo4Y_HwqX4nvUN1Vcto-15" value="Text" style="text;html=1;align=center;verticalAlign=middle;resizable=0;points=[];autosize=1;strokeColor=none;fillColor=none;" parent="1" vertex="1">
          <mxGeometry x="195" y="-32" width="50" height="30" as="geometry" />
        </mxCell>
      </root>
    </mxGraphModel>
  </diagram>
</mxfile>
